{
.appVersion = "3516";
.formatVersion = 3;
DisplayStrings = (
"…"
);
axes = (
{
name = Weight;
tag = wght;
}
);
classes = (
{
code = "A Aacute Abreve Abreveacute Abrevedotbelow Abrevegrave Abrevehookabove Abrevetilde Acaron Acircumflex Acircumflexacute Acircumflexdotbelow Acircumflexgrave Acircumflexhookabove Acircumflextilde Adblgrave Adieresis Adieresismacron Adotbelow Agrave Ahookabove Ainvertedbreve Amacron Aogonek Aring Aringacute Atilde AE AEacute";
name = Adiacritics;
},
{
code = "Y Yacute Ycircumflex Ydieresis Ydotaccent Ydotbelow Ygrave Yhookabove Ymacron Ytilde ";
name = Ydiacritics;
},
{
automatic = 1;

glyphs = (
{
glyphname = A;
kernLeft = KO_A;
kernRight = KO_A;
lastChange = "2025-01-20 07:45:44 +0000";
layers = (
{
anchors = (
{
name = bottom;
pos = (250,0);
},
{
name = ogonek;
pos = (535,0);
},
{
name = top;
pos = (398,700);
}
);
background = {
shapes = (
{
pos = (0,700);
ref = V;
scale = (1,-1);
}
);
};
layerId = "62D20235-B81E-4649-AB7B-DFD33366F1EF";
shapes = (
{
closed = 1;
nodes = (
(-8,0,l),
(385,658,ls),
(390,667,o),
(399,667,o),
(400,658,cs),
(411,581,l),
(510,0,l),
(535,0,l),
(411,700,l),
(386,700,l),
(-35,0,l)
);
},
{
closed = 1;
nodes = (
(483,234,l),
(476,256,l),
(130,256,l),
(116,234,l)
);
}
);
width = 610;
},
{
anchors = (
{
name = bottom;
pos = (291,0);
},
{
name = ogonek;
pos = (619,0);
},
{
name = top;
pos = (440,700);
}
);
background = {
shapes = (
{
pos = (0,700);
ref = V;
scale = (1,-1);
}
);
};
layerId = "8F4FB2AA-9411-450E-BE3E-D587D5B5F5D1";
shapes = (
{
closed = 1;
nodes = (
(89,0,l),
(423,601,ls),
(428,611,o),
(440,611,o),
(440,601,cs),
(444,484,l),
(508,0,l),
(619,0,l),
(526,700,l),
(352,700,l),
(-37,0,l)
);
},
{
closed = 1;
nodes = (
(522,177,l),
(516,273,l),
(204,273,l),
(158,177,l)
);
}
);
width = 696;
},
{
anchors = (
{
name = bottom;
pos = (346,0);
},
{
name = ogonek;
pos = (695,0);
},
{
name = top;
pos = (482,700);
}
);
background = {
anchors = (
{
name = bottom;
pos = (387,0);
},
{
name = ogonek;
pos = (696,10);
},
{
name = top;
pos = (387,700);
}
);
shapes = (
{
pos = (0,700);
ref = V;
scale = (1,-1);
}
);
};
layerId = "3917E251-E52F-4C58-ACE3-A75BE580C29C";
shapes = (
{
closed = 1;
nodes = (
(171,0,l),
(436,532,ls),
(444,549,o),
(462,550,o),
(461,532,cs),
(461,423,l),
(486,0,l),
(695,0,l),
(628,700,l),
(326,700,l),
(-38,0,l)
);
},
{
closed = 1;
nodes = (
(499,133,l),
(499,293,l),
(276,293,l),
(191,133,l)
);
}
);
width = 773;
}
);
metricRight = V;
unicode = 65;
userData = {
KernOnName = A;
com.schriftgestaltung.Glyphs.ColorIndex = 3;
com.schriftgestaltung.Glyphs.layer.rightMetricsKey = "==V";
com.schriftgestaltung.Glyphs.rightMetricsKey = V;
};
},
{
glyphname = AE;
kernLeft = KO_A;
kernRight = KO_E;
lastChange = "2025-01-19 17:48:57 +0000";
layers = (
{
anchors = (
{
name = bottom;
pos = (400,0);
},
{
name = top;
pos = (548,700);
}
);
layerId = "62D20235-B81E-4649-AB7B-DFD33366F1EF";
shapes = (
{
closed = 1;
nodes = (
(-8,0,l),
(132,234,l),
(424,234,l),
(375,0,l),
(797,0,l),
(801,22,l),
(403,22,l),
(471,339,l),
(851,339,l),
(855,361,l),
(475,361,l),
(543,678,l),
(941,678,l),
(945,700,l),
(387,700,l),
(-35,0,l)
);
},
{
closed = 1;
nodes = (
(399,679,l),
(519,678,l),
(429,256,l),
(145,256,l)
);
}
);
width = 917;
},
{
anchors = (
{
name = bottom;
pos = (416,0);
},
{
name = top;
pos = (565,700);
}
);
background = {
anchors = (
{
name = bottom;
pos = (459,0);
},
{
name = top;
pos = (459,687);
}
);
};
layerId = "8F4FB2AA-9411-450E-BE3E-D587D5B5F5D1";
shapes = (
{
closed = 1;
nodes = (
(78,0,l),
(179,177,l),
(399,177,l),
(361,0,l),
(839,0,l),
(861,103,l),
(487,103,l),
(529,301,l),
(886,301,l),
(907,399,l),
(550,399,l),
(592,599,l),
(966,599,l),
(988,700,l),
(365,700,l),
(-37,0,l)
);
},
{
closed = 1;
nodes = (
(418,599,l),
(488,599,l),
(419,273,l),
(230,273,l)
);
}
);
width = 957;
},
{
anchors = (
{
name = bottom;
pos = (483,0);
},
{
name = top;
pos = (632,700);
}
);
layerId = "3917E251-E52F-4C58-ACE3-A75BE580C29C";
shapes = (
{
closed = 1;
nodes = (
(170,0,l),
(243,137,l),
(423,137,l),
(394,0,l),
(923,0,l),
(961,180,l),
(632,180,l),
(652,275,l),
(942,275,l),
(974,425,l),
(684,425,l),
(705,520,l),
(1034,520,l),
(1072,700,l),
(330,700,l),
(-38,0,l)
);
},
{
closed = 1;
nodes = (
(434,532,l),
(507,532,l),
(457,295,l),
(318,295,l)
);
}
);
width = 1033;
}
);
metricLeft = A;
metricRight = E;
unicode = 198;
userData = {
com.schriftgestaltung.Glyphs.leftMetricsKey = A;
com.schriftgestaltung.Glyphs.rightMetricsKey = E;
};
},
{
glyphname = B;
kernLeft = KO_H;
kernRight = KO_B;
lastChange = "2025-01-20 07:45:44 +0000";
layers = (
{
anchors = (
{
name = bottom;
pos = (236,0);
},
{
name = center;
pos = (101,181);
},
{
name = top;
pos = (384,700);
}
);
background = {
shapes = (
{
closed = 1;
nodes = (
(313,0,ls),
(440,0,o),
(548,67,o),
(572,181,cs),
(590,265,o),
(553,331,o),
(469,352,c),
(553,368,o),
(614,432,o),
(632,517,cs),
(657,631,o),
(588,700,o),
(461,700,cs),
(196,700,l),
(48,0,l)
);
}
);
};
layerId = "62D20235-B81E-4649-AB7B-DFD33366F1EF";
shapes = (
{
closed = 1;
nodes = (
(317,0,ls),
(453,0,o),
(572,85,o),
(572,210,cs),
(572,284,o),
(525,332,o),
(456,350,c),
(549,369,o),
(632,431,o),
(632,539,cs),
(632,646,o),
(557,700,o),
(427,700,cs),
(196,700,l),
(48,0,l)
);
},
{
closed = 1;
nodes = (
(145,341,l),
(385,341,ls),
(483,341,o),
(548,298,o),
(548,209,cs),
(548,96,o),
(438,22,o),
(317,22,cs),
(77,22,l)
);
},
{
closed = 1;
nodes = (
(217,678,l),
(427,678,ls),
(545,678,o),
(609,633,o),
(609,538,cs),
(609,438,o),
(520,363,o),
(390,363,cs),
(150,363,l)
);
}
);
width = 669;
},
{
anchors = (
{
name = bottom;
pos = (264,0);
},
{
name = center;
pos = (127,193);
},
{
name = top;
pos = (413,700);
}
);
background = {
shapes = (
{
closed = 1;
nodes = (
(332,0,ls),
(480,0,o),
(586,70,o),
(612,193,cs),
(629,272,o),
(598,335,o),
(524,358,c),
(598,386,o),
(648,441,o),
(662,510,cs),
(688,631,o),
(616,700,o),
(472,700,cs),
(180,700,l),
(31,0,l)
);
}
);
};
layerId = "8F4FB2AA-9411-450E-BE3E-D587D5B5F5D1";
shapes = (
{
closed = 1;
nodes = (
(351,0,ls),
(493,0,o),
(619,87,o),
(619,217,cs),
(619,269,o),
(595,324,o),
(531,350,c),
(619,381,o),
(668,466,o),
(668,528,cs),
(668,634,o),
(576,700,o),
(452,700,cs),
(180,700,l),
(31,0,l)
);
},
{
closed = 1;
nodes = (
(205,304,l),
(396,304,ls),
(466,304,o),
(508,272,o),
(508,220,cs),
(508,143,o),
(438,94,o),
(351,94,cs),
(160,94,l)
);
},
{
closed = 1;
nodes = (
(269,606,l),
(452,606,ls),
(518,606,o),
(556,578,o),
(556,528,cs),
(556,473,o),
(512,398,o),
(408,398,cs),
(225,398,l)
);
}
);
width = 698;
},
{
anchors = (
{
name = bottom;
pos = (277,0);
},
{
name = center;
pos = (156,221);
},
{
name = top;
pos = (426,700);
}
);
background = {
shapes = (
{
closed = 1;
nodes = (
(391,0,ls),
(541,0,o),
(653,74,o),
(680,203,cs),
(698,289,o),
(674,348,o),
(609,367,c),
(670,394,o),
(710,446,o),
(723,508,cs),
(749,631,o),
(662,700,o),
(506,700,cs),
(167,700,l),
(18,0,l)
);
}
);
};
layerId = "3917E251-E52F-4C58-ACE3-A75BE580C29C";
shapes = (
{
closed = 1;
nodes = (
(392,0,ls),
(551,0,o),
(689,92,o),
(689,235,cs),
(689,289,o),
(662,335,o),
(617,359,c),
(676,394,o),
(721,444,o),
(721,520,cs),
(721,634,o),
(614,700,o),
(492,700,cs),
(167,700,l),
(18,0,l)
);
},
{
closed = 1;
nodes = (
(278,281,l),
(437,281,ls),
(469,281,o),
(493,265,o),
(493,235,cs),
(493,188,o),
(454,160,o),
(411,160,cs),
(252,160,l)
);
},
{
closed = 1;
nodes = (
(333,540,l),
(472,540,ls),
(504,540,o),
(528,524,o),
(528,494,cs),
(528,447,o),
(489,420,o),
(446,420,cs),
(307,420,l)
);
}
);
width = 743;
}
);
metricLeft = H;
unicode = 66;
userData = {
KernOnName = B;
com.schriftgestaltung.Glyphs.ColorIndex = 3;
com.schriftgestaltung.Glyphs.layer.leftMetricsKey = "==H";
com.schriftgestaltung.Glyphs.leftMetricsKey = H;
};
},
{
glyphname = Bstroke;
lastChange = "2025-01-19 17:48:57 +0000";
layers = (
{
layerId = "62D20235-B81E-4649-AB7B-DFD33366F1EF";
shapes = (
{
alignment = -1;
pos = (29,0);
ref = B;
},
{
closed = 1;
nodes = (
(253,171,l),
(257,191,l),
(5,191,l),
(1,171,l)
);
}
);
width = 698;
},
{
layerId = "8F4FB2AA-9411-450E-BE3E-D587D5B5F5D1";
shapes = (
{
alignment = -1;
pos = (33,0);
ref = B;
},
{
closed = 1;
nodes = (
(306,148,l),
(325,238,l),
(14,238,l),
(-5,148,l)
);
}
);
width = 731;
},
{
layerId = "3917E251-E52F-4C58-ACE3-A75BE580C29C";
shapes = (
{
alignment = -1;
pos = (45,0);
ref = B;
},
{
closed = 1;
nodes = (
(387,180,l),
(403,257,l),
(17,257,l),
(0,180,l)
);
}
);
width = 788;
}
);
metricLeft = t;
metricRight = B;
unicode = 579;
},
{
glyphname = C;
kernLeft = KO_O;
kernRight = KO_C;
lastChange = "2025-11-19 11:54:31 +0000";
layers = (
{
anchors = (
{
name = bottom;
pos = (338,0);
},
{
name = center;
pos = (309,350);
},
{
name = top;
pos = (472,700);
}
);
background = {
anchors = (
{
name = bottom;
pos = (331,0);
},
{
name = center;
pos = (331,350);
},
{
name = ogonek;
pos = (411,0);
},
{
name = top;
pos = (331,675);
},
{
name = topleft;
pos = (36,700);
},
{
name = topright;
pos = (444,700);
}
);
shapes = (
{
pos = (1,0);
ref = O;
}
);
};
layerId = "62D20235-B81E-4649-AB7B-DFD33366F1EF";
shapes = (
{
closed = 1;
nodes = (
(423,-12,o),
(483,3,o),
(532,29,c),
(527,52,l),
(479,25,o),
(422,10,o),
(358,10,cs),
(181,10,o),
(102,121,o),
(102,262,cs),
(102,434,o),
(183,691,o),
(480,691,cs),
(553,691,o),
(612,671,o),
(653,633,c),
(664,652,l),
(620,691,o),
(556,713,o),
(480,713,cs),
(163,713,o),
(78,438,o),
(78,262,cs),
(78,111,o),
(166,-12,o),
(358,-12,cs)
);
}
);
width = 633;
},
{
anchors = (
{
name = bottom;
pos = (302,0);
},
{
name = center;
pos = (315,350);
},
{
name = top;
pos = (453,700);
}
);
background = {
anchors = (
{
name = bottom;
pos = (309,0);
},
{
name = center;
pos = (320,350);
},
{
name = ogonek;
pos = (397,0);
},
{
name = top;
pos = (311,687);
},
{
name = topleft;
pos = (34,700);
},
{
name = topright;
pos = (429,700);
}
);
shapes = (
{
pos = (-1,0);
ref = O;
}
);
};
layerId = "8F4FB2AA-9411-450E-BE3E-D587D5B5F5D1";
shapes = (
{
closed = 1;
nodes = (
(405,-12,o),
(458,-3,o),
(505,15,c),
(491,117,l),
(455,101,o),
(413,90,o),
(363,90,cs),
(241,90,o),
(175,171,o),
(175,282,cs),
(175,433,o),
(252,612,o),
(450,610,cs),
(503,609,o),
(548,590,o),
(581,562,c),
(634,653,l),
(588,685,o),
(533,712,o),
(450,712,cs),
(192,712,o),
(63,501,o),
(63,281,cs),
(63,100,o),
(192,-12,o),
(347,-12,cs)
);
}
);
width = 603;
},
{
anchors = (
{
name = bottom;
pos = (339,0);
},
{
name = center;
pos = (347,355);
},
{
name = top;
pos = (488,700);
}
);
background = {
anchors = (
{
name = bottom;
pos = (366,0);
},
{
name = center;
pos = (366,350);
},
{
name = ogonek;
pos = (448,0);
},
{
name = top;
pos = (366,675);
},
{
name = topleft;
pos = (61,700);
},
{
name = topright;
pos = (482,700);
}
);
shapes = (
{
closed = 0;
nodes = (
(634,515,l),
(720,663,l),
(671,695,o),
(607,712,o),
(531,712,cs),
(285,712,o),
(100,572,o),
(52,350,cs),
(5,128,o),
(131,-12,o),
(377,-12,cs),
(453,-12,o),
(524,5,o),
(587,37,c),
(564,185,l)
);
},
{
pos = (-3,0);
ref = O;
}
);
};
layerId = "3917E251-E52F-4C58-ACE3-A75BE580C29C";
shapes = (
{
closed = 1;
nodes = (
(435,-12,o),
(498,1,o),
(538,22,c),
(511,203,l),
(476,180,o),
(431,168,o),
(394,168,cs),
(304,168,o),
(254,213,o),
(254,303,cs),
(254,418,o),
(330,540,o),
(469,540,cs),
(515,540,o),
(555,530,o),
(581,510,c),
(671,656,l),
(631,686,o),
(565,712,o),
(489,712,cs),
(187,712,o),
(50,502,o),
(50,287,cs),
(50,100,o),
(178,-12,o),
(374,-12,cs)
);
}
);
width = 629;
}
);
metricLeft = O;
metricRight = "=I/2";
unicode = 67;
userData = {
KernOnName = C;
com.schriftgestaltung.Glyphs.ColorIndex = 3;
com.schriftgestaltung.Glyphs.layer.leftMetricsKey = "==O";
com.schriftgestaltung.Glyphs.leftMetricsKey = O;
};
},
{
glyphname = D;
kernLeft = KO_H;
kernRight = KO_O;
lastChange = "2025-01-19 17:48:57 +0000";
layers = (
{
anchors = (
{
name = bottom;
pos = (276,0);
},
{
name = center;
pos = (135,350);
},
{
name = ogonek;
pos = (335,0);
},
{
name = top;
pos = (423,700);
},
{
name = topleft;
pos = (131,700);
},
{
name = topright;
pos = (514,700);
}
);
background = {
shapes = (
{
pos = (-22,0);
ref = O;
}
);
};
layerId = "62D20235-B81E-4649-AB7B-DFD33366F1EF";
shapes = (
{
closed = 1;
nodes = (
(276,0,ls),
(541,0,o),
(709,213,o),
(709,434,cs),
(709,598,o),
(598,700,o),
(416,700,cs),
(197,700,l),
(48,0,l)
);
},
{
closed = 1;
nodes = (
(217,678,l),
(416,678,ls),
(585,678,o),
(685,586,o),
(685,434,cs),
(685,223,o),
(526,22,o),
(276,22,cs),
(77,22,l)
);
}
);
width = 747;
},
{
anchors = (
{
name = bottom;
pos = (285,0);
},
{
name = center;
pos = (162,350);
},
{
name = ogonek;
pos = (285,0);
},
{
name = top;
pos = (403,700);
},
{
name = topleft;
pos = (82,700);
},
{
name = topright;
pos = (475,700);
}
);
background = {
shapes = (
{
pos = (-12,0);
ref = O;
}
);
};
layerId = "8F4FB2AA-9411-450E-BE3E-D587D5B5F5D1";
shapes = (
{
closed = 1;
nodes = (
(318,0,ls),
(561,0,o),
(718,203,o),
(718,422,cs),
(718,601,o),
(591,700,o),
(423,700,cs),
(180,700,l),
(31,0,l)
);
},
{
closed = 1;
nodes = (
(271,597,l),
(423,597,ls),
(542,597,o),
(606,531,o),
(606,423,cs),
(606,268,o),
(504,103,o),
(318,103,cs),
(166,103,l)
);
}
);
width = 743;
},
{
anchors = (
{
name = bottom;
pos = (265,0);
},
{
name = center;
pos = (220,350);
},
{
name = ogonek;
pos = (364,0);
},
{
name = top;
pos = (444,700);
},
{
name = topleft;
pos = (161,700);
},
{
name = topright;
pos = (544,700);
}
);
background = {
shapes = (
{
pos = (-14,0);
ref = O;
}
);
};
layerId = "3917E251-E52F-4C58-ACE3-A75BE580C29C";
shapes = (
{
closed = 1;
nodes = (
(364,0,ls),
(596,0,o),
(779,170,o),
(779,397,cs),
(779,586,o),
(629,700,o),
(437,700,cs),
(168,700,l),
(18,0,l)
);
},
{
closed = 1;
nodes = (
(339,520,l),
(437,520,ls),
(523,520,o),
(574,476,o),
(574,397,cs),
(574,285,o),
(497,180,o),
(364,180,cs),
(266,180,l)
);
}
);
width = 798;
}
);
metricLeft = H;
metricRight = O;
unicode = 68;
userData = {
com.schriftgestaltung.Glyphs.ColorIndex = 3;
com.schriftgestaltung.Glyphs.layer.leftMetricsKey = "==H";
com.schriftgestaltung.Glyphs.layer.rightMetricsKey = "==O";
com.schriftgestaltung.Glyphs.leftMetricsKey = H;
com.schriftgestaltung.Glyphs.rightMetricsKey = O;
};
},
{
glyphname = DZcaron;
lastChange = "2026-01-30 11:39:33 +0000";
layers = (
{
anchors = (
{
name = bottom;
pos = (891,0);
},
{
name = center;
pos = (135,350);
},
{
name = ogonek;
pos = (335,0);
},
{
name = top;
pos = (1073,857);
},
{
name = topleft;
pos = (131,700);
},
{
name = topright;
pos = (514,700);
}
);
layerId = "62D20235-B81E-4649-AB7B-DFD33366F1EF";
shapes = (
{
closed = 1;
nodes = (
(276,0,ls),
(541,0,o),
(709,213,o),
(709,434,cs),
(709,598,o),
(598,700,o),
(416,700,cs),
(197,700,l),
(48,0,l)
);
},
{
closed = 1;
nodes = (
(217,678,l),
(416,678,ls),
(585,678,o),
(685,586,o),
(685,434,cs),
(685,223,o),
(526,22,o),
(276,22,cs),
(77,22,l)
);
},
{
closed = 1;
nodes = (
(1110,0,l),
(1114,22,l),
(702,22,ls),
(692,22,o),
(689,30,o),
(699,38,cs),
(731,64,l),
(1249,678,l),
(1253,700,l),
(823,700,l),
(819,678,l),
(1212,678,ls),
(1221,678,o),
(1224,670,o),
(1216,663,cs),
(1184,637,l),
(665,21,l),
(661,0,l)
);
},
{
closed = 1;
nodes = (
(1071,796,l),
(1193,938,l),
(1167,938,l),
(1087,845,l),
(1068,818,ls),
(1063,811,o),
(1056,812,o),
(1054,818,cs),
(1045,845,l),
(1005,938,l),
(983,938,l),
(1045,796,l)
);
}
);
width = 1147;
},
{
anchors = (
{
name = bottom;
pos = (961,0);
},
{
name = center;
pos = (162,350);
},
{
name = ogonek;
pos = (285,0);
},
{
name = top;
pos = (1154,907);
},
{
name = topleft;
pos = (82,700);
},
{
name = topright;
pos = (475,700);
}
);
layerId = "8F4FB2AA-9411-450E-BE3E-D587D5B5F5D1";
shapes = (
{
closed = 1;
nodes = (
(318,0,ls),
(561,0,o),
(718,203,o),
(718,422,cs),
(718,601,o),
(591,700,o),
(423,700,cs),
(180,700,l),
(31,0,l)
);
},
{
closed = 1;
nodes = (
(271,597,l),
(423,597,ls),
(542,597,o),
(606,531,o),
(606,423,cs),
(606,268,o),
(504,103,o),
(318,103,cs),
(166,103,l)
);
},
{
closed = 1;
nodes = (
(1220,0,l),
(1242,103,l),
(893,103,ls),
(886,103,o),
(884,111,o),
(891,117,cs),
(965,186,l),
(1353,623,l),
(1368,700,l),
(861,700,l),
(841,597,l),
(1189,597,l),
(1195,597,o),
(1197,589,o),
(1191,583,cs),
(1113,508,l),
(723,68,l),
(703,0,l)
);
},
{
closed = 1;
nodes = (
(1179,782,l),
(1303,924,l),
(1213,924,l),
(1164,867,l),
(1143,837,ls),
(1137,828,o),
(1131,829,o),
(1129,837,cs),
(1123,867,l),
(1098,924,l),
(1012,924,l),
(1074,782,l)
);
}
);
width = 1322;
},
{
anchors = (
{
name = bottom;
pos = (1049,0);
},
{
name = center;
pos = (220,350);
},
{
name = ogonek;
pos = (364,0);
},
{
name = top;
pos = (1244,914);
},
{
name = topleft;
pos = (161,700);
},
{
name = topright;
pos = (544,700);
}
);
layerId = "3917E251-E52F-4C58-ACE3-A75BE580C29C";
shapes = (
{
closed = 1;
nodes = (
(364,0,ls),
(596,0,o),
(779,170,o),
(779,397,cs),
(779,586,o),
(629,700,o),
(437,700,cs),
(168,700,l),
(18,0,l)
);
},
{
closed = 1;
nodes = (
(339,520,l),
(437,520,ls),
(523,520,o),
(574,476,o),
(574,397,cs),
(574,285,o),
(497,180,o),
(364,180,cs),
(266,180,l)
);
},
{
closed = 1;
nodes = (
(1341,0,l),
(1379,180,l),
(1088,180,ls),
(1072,180,o),
(1070,191,o),
(1089,205,cs),
(1185,275,l),
(1456,539,l),
(1490,700,l),
(916,700,l),
(878,520,l),
(1180,520,l),
(1197,520,o),
(1199,507,o),
(1180,494,cs),
(1076,420,l),
(803,161,l),
(769,0,l)
);
},
{
closed = 1;
nodes = (
(1312,772,l),
(1431,914,l),
(1290,914,l),
(1258,876,l),
(1234,846,ls),
(1229,839,o),
(1219,838,o),
(1216,848,cs),
(1207,876,l),
(1191,914,l),
(1057,914,l),
(1116,772,l)
);
}
);
width = 1437;
}
);
unicode = 452;
},
{
glyphname = Dzcaron;
lastChange = "2026-01-30 11:39:38 +0000";
layers = (
{
anchors = (
{
name = bottom;
pos = (912,0);
},
{
name = center;
pos = (135,350);
},
{
name = ogonek;
pos = (335,0);
},
{
name = top;
pos = (1055,679);
},
{
name = topleft;
pos = (131,700);
},
{
name = topright;
pos = (514,700);
}
);
layerId = "62D20235-B81E-4649-AB7B-DFD33366F1EF";
shapes = (
{
closed = 1;
nodes = (
(276,0,ls),
(541,0,o),
(709,213,o),
(709,434,cs),
(709,598,o),
(598,700,o),
(416,700,cs),
(197,700,l),
(48,0,l)
);
},
{
closed = 1;
nodes = (
(217,678,l),
(416,678,ls),
(585,678,o),
(685,586,o),
(685,434,cs),
(685,223,o),
(526,22,o),
(276,22,cs),
(77,22,l)
);
},
{
closed = 1;
nodes = (
(1113,0,l),
(1119,23,l),
(758,23,ls),
(751,23,o),
(746,27,o),
(753,33,cs),
(791,68,l),
(1222,506,l),
(1224,522,l),
(819,522,l),
(814,500,l),
(1179,500,ls),
(1187,500,o),
(1191,497,o),
(1182,490,cs),
(1136,450,l),
(708,15,l),
(709,0,l)
);
},
{
closed = 1;
nodes = (
(1053,618,l),
(1175,760,l),
(1149,760,l),
(1069,667,l),
(1050,640,ls),
(1045,633,o),
(1038,634,o),
(1036,640,cs),
(1027,667,l),
(987,760,l),
(965,760,l),
(1027,618,l)
);
}
);
width = 1224;
},
{
anchors = (
{
name = bottom;
pos = (928,0);
},
{
name = center;
pos = (162,350);
},
{
name = ogonek;
pos = (285,0);
},
{
name = top;
pos = (1085,743);
},
{
name = topleft;
pos = (82,700);
},
{
name = topright;
pos = (475,700);
}
);
layerId = "8F4FB2AA-9411-450E-BE3E-D587D5B5F5D1";
shapes = (
{
closed = 1;
nodes = (
(318,0,ls),
(561,0,o),
(718,203,o),
(718,422,cs),
(718,601,o),
(591,700,o),
(423,700,cs),
(180,700,l),
(31,0,l)
);
},
{
closed = 1;
nodes = (
(271,597,l),
(423,597,ls),
(542,597,o),
(606,531,o),
(606,423,cs),
(606,268,o),
(504,103,o),
(318,103,cs),
(166,103,l)
);
},
{
closed = 1;
nodes = (
(1143,0,l),
(1162,90,l),
(868,90,ls),
(861,90,o),
(858,98,o),
(864,103,cs),
(918,146,l),
(1242,462,l),
(1256,536,l),
(825,536,l),
(806,446,l),
(1100,446,ls),
(1109,446,o),
(1110,440,o),
(1103,434,cs),
(1051,393,l),
(725,74,l),
(712,0,l)
);
},
{
closed = 1;
nodes = (
(1110,618,l),
(1234,760,l),
(1144,760,l),
(1095,703,l),
(1074,673,ls),
(1068,664,o),
(1062,665,o),
(1060,673,cs),
(1054,703,l),
(1029,760,l),
(943,760,l),
(1005,618,l)
);
}
);
width = 1269;
},
{
anchors = (
{
name = bottom;
pos = (1019,0);
},
{
name = center;
pos = (220,350);
},
{
name = ogonek;
pos = (364,0);
},
{
name = top;
pos = (1183,760);
},
{
name = topleft;
pos = (161,700);
},
{
name = topright;
pos = (544,700);
}
);
layerId = "3917E251-E52F-4C58-ACE3-A75BE580C29C";
shapes = (
{
closed = 1;
nodes = (
(364,0,ls),
(596,0,o),
(779,170,o),
(779,397,cs),
(779,586,o),
(629,700,o),
(437,700,cs),
(168,700,l),
(18,0,l)
);
},
{
closed = 1;
nodes = (
(339,520,l),
(437,520,ls),
(523,520,o),
(574,476,o),
(574,397,cs),
(574,285,o),
(497,180,o),
(364,180,cs),
(266,180,l)
);
},
{
closed = 1;
nodes = (
(1254,0,l),
(1287,154,l),
(1044,154,ls),
(1035,154,o),
(1034,165,o),
(1041,169,cs),
(1100,205,l),
(1342,391,l),
(1371,546,l),
(900,546,l),
(867,392,l),
(1109,392,ls),
(1118,392,o),
(1118,382,o),
(1110,377,cs),
(1053,342,l),
(814,156,l),
(783,0,l)
);
},
{
closed = 1;
nodes = (
(1251,618,l),
(1370,760,l),
(1229,760,l),
(1197,722,l),
(1173,692,ls),
(1168,685,o),
(1158,684,o),
(1155,694,cs),
(1146,722,l),
(1130,760,l),
(996,760,l),
(1055,618,l)
);
}
);
width = 1358;
}
);
unicode = 453;
},
{
color = 4;
glyphname = Eth;
kernRight = KO_O;
lastChange = "2026-02-13 12:35:47 +0000";
layers = (
{
anchors = (
{
name = bottom;
pos = (307,0);
},
{
name = center;
pos = (166,350);
},
{
name = ogonek;
pos = (366,0);
},
{
name = top;
pos = (454,700);
},
{
name = topleft;
pos = (162,700);
},
{
name = topright;
pos = (545,700);
}
);
layerId = "62D20235-B81E-4649-AB7B-DFD33366F1EF";
shapes = (
{
closed = 1;
nodes = (
(307,0,ls),
(572,0,o),
(740,213,o),
(740,434,cs),
(740,598,o),
(629,700,o),
(447,700,cs),
(228,700,l),
(156,360,l),
(41,360,l),
(37,340,l),
(151,340,l),
(79,0,l)
);
},
{
closed = 1;
nodes = (
(176,340,l),
(289,340,l),
(293,360,l),
(180,360,l),
(248,678,l),
(447,678,ls),
(616,678,o),
(716,586,o),
(716,434,cs),
(716,223,o),
(557,22,o),
(307,22,cs),
(108,22,l)
);
}
);
width = 778;
},
{
anchors = (
{
name = bottom;
pos = (316,0);
},
{
name = center;
pos = (193,350);
},
{
name = ogonek;
pos = (316,0);
},
{
name = top;
pos = (434,700);
},
{
name = topleft;
pos = (113,700);
},
{
name = topright;
pos = (506,700);
}
);
layerId = "8F4FB2AA-9411-450E-BE3E-D587D5B5F5D1";
shapes = (
{
closed = 1;
nodes = (
(349,0,ls),
(592,0,o),
(749,203,o),
(749,422,cs),
(749,601,o),
(622,700,o),
(454,700,cs),
(211,700,l),
(146,395,l),
(47,395,l),
(28,305,l),
(127,305,l),
(62,0,l)
);
},
{
closed = 1;
nodes = (
(240,305,l),
(339,305,l),
(358,395,l),
(259,395,l),
(302,597,l),
(454,597,ls),
(573,597,o),
(637,531,o),
(637,423,cs),
(637,268,o),
(535,103,o),
(349,103,cs),
(197,103,l)
);
}
);
width = 774;
},
{
anchors = (
{
name = bottom;
pos = (267,0);
},
{
name = center;
pos = (222,350);
},
{
name = ogonek;
pos = (366,0);
},
{
name = top;
pos = (446,700);
},
{
name = topleft;
pos = (163,700);
},
{
name = topright;
pos = (546,700);
}
);
layerId = "3917E251-E52F-4C58-ACE3-A75BE580C29C";
shapes = (
{
closed = 1;
nodes = (
(366,0,ls),
(598,0,o),
(781,170,o),
(781,397,cs),
(781,586,o),
(631,700,o),
(439,700,cs),
(170,700,l),
(110,422,l),
(52,422,l),
(19,268,l),
(77,268,l),
(20,0,l)
);
},
{
closed = 1;
nodes = (
(287,268,l),
(392,268,l),
(425,422,l),
(320,422,l),
(341,520,l),
(439,520,ls),
(525,520,o),
(576,476,o),
(576,397,cs),
(576,285,o),
(499,180,o),
(366,180,cs),
(268,180,l)
);
}
);
width = 800;
}
);
metricLeft = t;
unicode = 208;
userData = {
com.schriftgestaltung.Glyphs.rightMetricsKey = O;
};
},
{
glyphname = E;
kernLeft = KO_H;
kernRight = KO_E;
lastChange = "2025-01-20 07:45:44 +0000";
layers = (
{
anchors = (
{
name = bottom;
pos = (251,0);
},
{
name = ogonek;
pos = (448,0);
},
{
name = top;
pos = (399,700);
},
{
name = topleft;
pos = (106,700);
}
);
layerId = "62D20235-B81E-4649-AB7B-DFD33366F1EF";
shapes = (
{
closed = 1;
nodes = (
(469,0,l),
(473,22,l),
(77,22,l),
(145,339,l),
(523,339,l),
(527,361,l),
(149,361,l),
(217,678,l),
(613,678,l),
(617,700,l),
(196,700,l),
(48,0,l)
);
}
);
width = 589;
},
{
anchors = (
{
name = bottom;
pos = (256,0);
},
{
name = ogonek;
pos = (474,0);
},
{
name = top;
pos = (409,700);
},
{
name = topleft;
pos = (112,700);
}
);
background = {
anchors = (
{
name = bottom;
pos = (314,0);
},
{
name = ogonek;
pos = (502,0);
},
{
name = top;
pos = (314,675);
},
{
name = topleft;
pos = (35,700);
}
);
shapes = (
{
closed = 1;
nodes = (
(522,0,l),
(522,22,l),
(145,22,l),
(145,339,l),
(505,339,l),
(505,361,l),
(145,361,l),
(145,678,l),
(522,678,l),
(522,700,l),
(121,700,l),
(121,0,l)
);
},
{
closed = 1;
nodes = (
(551,0,l),
(551,180,l),
(272,180,l),
(272,270,l),
(534,270,l),
(534,430,l),
(272,430,l),
(272,520,l),
(551,520,l),
(551,700,l),
(62,700,l),
(62,0,l)
);
}
);
};
layerId = "8F4FB2AA-9411-450E-BE3E-D587D5B5F5D1";
shapes = (
{
closed = 1;
nodes = (
(509,0,l),
(531,103,l),
(160,103,l),
(202,301,l),
(555,301,l),
(576,399,l),
(223,399,l),
(265,597,l),
(636,597,l),
(658,700,l),
(180,700,l),
(31,0,l)
);
}
);
width = 627;
},
{
anchors = (
{
name = bottom;
pos = (271,0);
},
{
name = ogonek;
pos = (522,0);
},
{
name = top;
pos = (429,700);
},
{
name = topleft;
pos = (140,700);
}
);
layerId = "3917E251-E52F-4C58-ACE3-A75BE580C29C";
shapes = (
{
closed = 1;
nodes = (
(547,0,l),
(582,165,l),
(253,165,l),
(276,273,l),
(567,273,l),
(600,427,l),
(309,427,l),
(332,535,l),
(661,535,l),
(696,700,l),
(167,700,l),
(18,0,l)
);
}
);
width = 657;
}
);
metricLeft = H;
unicode = 69;
userData = {
KernOnName = E;
com.schriftgestaltung.Glyphs.ColorIndex = 3;
com.schriftgestaltung.Glyphs.layer.leftMetricsKey = "==H";
com.schriftgestaltung.Glyphs.leftMetricsKey = H;
};
},
{
glyphname = Schwa;
kernRight = KO_O;
lastChange = "2025-01-19 17:48:57 +0000";
layers = (
{
anchors = (
{
name = "abkhasian-hook.case";
pos = (694,325);
},
{
name = bottom;
pos = (319,0);
},
{
name = top;
pos = (467,700);
}
);
background = {
shapes = (
{
pos = (-10,0);
ref = O;
}
);
};
layerId = "62D20235-B81E-4649-AB7B-DFD33366F1EF";
shapes = (
{
closed = 1;
nodes = (
(608,-12,o),
(720,239,o),
(720,426,cs),
(720,579,o),
(645,712,o),
(441,712,cs),
(344,712,o),
(274,689,o),
(191,641,c),
(200,622,l),
(288,674,o),
(357,690,o),
(441,690,cs),
(628,690,o),
(696,571,o),
(696,426,cs),
(696,246,o),
(590,10,o),
(337,10,cs),
(118,10,o),
(80,192,o),
(95,303,c),
(689,303,l),
(694,325,l),
(82,325,l),
(74,303,l),
(54,183,o),
(101,-12,o),
(337,-12,cs)
);
}
);
width = 761;
},
{
anchors = (
{
name = "abkhasian-hook.case";
pos = (651,370);
},
{
name = bottom;
pos = (369,0);
},
{
name = top;
pos = (454,700);
}
);
background = {
shapes = (
{
pos = (-3,0);
ref = O;
}
);
};
layerId = "8F4FB2AA-9411-450E-BE3E-D587D5B5F5D1";
shapes = (
{
closed = 1;
nodes = (
(586,-12,o),
(737,206,o),
(737,418,cs),
(737,583,o),
(633,712,o),
(433,712,cs),
(347,712,o),
(254,691,o),
(177,645,c),
(189,548,l),
(258,591,o),
(342,610,o),
(402,610,cs),
(554,610,o),
(625,534,o),
(625,418,cs),
(625,251,o),
(513,90,o),
(347,90,cs),
(192,90,o),
(153,190,o),
(162,285,c),
(634,285,l),
(651,370,l),
(74,370,l),
(59,318,l),
(32,190,o),
(89,-12,o),
(346,-12,cs)
);
}
);
width = 763;
},
{
anchors = (
{
name = "abkhasian-hook.case";
pos = (662,412);
},
{
name = bottom;
pos = (311,0);
},
{
name = top;
pos = (454,700);
}
);
background = {
shapes = (
{
pos = (-24,0);
ref = O;
}
);
};
layerId = "3917E251-E52F-4C58-ACE3-A75BE580C29C";
shapes = (
{
closed = 1;
nodes = (
(596,-12,o),
(748,185,o),
(748,399,cs),
(748,593,o),
(610,712,o),
(421,712,cs),
(334,712,o),
(244,696,o),
(172,665,c),
(151,503,l),
(218,538,o),
(289,554,o),
(362,554,cs),
(488,554,o),
(554,499,o),
(554,397,cs),
(554,267,o),
(499,148,o),
(351,148,cs),
(253,148,o),
(215,195,o),
(221,258,c),
(629,258,l),
(662,412,l),
(83,412,l),
(43,304,l),
(12,160,o),
(121,-12,o),
(346,-12,cs)
);
}
);
width = 767;
}
);
metricLeft = O;
metricRight = O;
unicode = 399;
},
{
glyphname = Ezh;
lastChange = "2025-01-19 17:48:57 +0000";
layers = (
{
anchors = (
{
name = bottom;
pos = (252,0);
},
{
name = top;
pos = (400,700);
}
);
background = {
shapes = (
{
ref = three;
}
);
};
layerId = "62D20235-B81E-4649-AB7B-DFD33366F1EF";
shapes = (
{
closed = 1;
nodes = (
(390,-8,o),
(510,62,o),
(533,169,cs),
(559,295,o),
(470,396,o),
(238,390,c),
(246,380,l),
(637,692,l),
(638,700,l),
(193,700,l),
(189,678,l),
(578,678,ls),
(585,678,o),
(587,673,o),
(577,667,cs),
(527,633,l),
(215,380,l),
(213,369,l),
(251,369,ls),
(448,369,o),
(533,290,o),
(509,175,cs),
(487,76,o),
(373,14,o),
(238,14,cs),
(155,14,o),
(66,43,o),
(17,85,c),
(3,67,l),
(59,21,o),
(152,-8,o),
(234,-8,cs)
);
}
);
width = 635;
},
{
anchors = (
{
name = bottom;
pos = (247,0);
},
{
name = top;
pos = (396,700);
}
);
background = {
shapes = (
{
ref = three;
},
{
closed = 1;
nodes = (
(411,-8,o),
(552,52,o),
(552,209,cs),
(552,350,o),
(439,415,o),
(226,418,c),
(256,381,l),
(522,632,l),
(522,700,l),
(48,700,l),
(48,606,l),
(355,606,ls),
(365,606,o),
(369,600,o),
(360,593,cs),
(319,561,l),
(147,385,l),
(147,321,l),
(235,321,ls),
(378,321,o),
(444,277,o),
(444,207,cs),
(444,139,o),
(378,93,o),
(267,93,cs),
(184,93,o),
(110,116,o),
(52,158,c),
(13,66,l),
(88,14,o),
(174,-8,o),
(272,-8,cs)
);
}
);
};
layerId = "8F4FB2AA-9411-450E-BE3E-D587D5B5F5D1";
shapes = (
{
closed = 1;
nodes = (
(373,-8,o),
(521,39,o),
(551,180,cs),
(581,321,o),
(470,411,o),
(280,414,c),
(313,381,l),
(621,632,l),
(636,700,l),
(162,700,l),
(142,606,l),
(438,606,ls),
(448,606,o),
(451,600,o),
(440,593,cs),
(392,561,l),
(194,385,l),
(180,321,l),
(268,321,ls),
(399,321,o),
(454,270,o),
(439,197,cs),
(425,132,o),
(354,93,o),
(262,93,cs),
(169,93,o),
(100,116,o),
(51,158,c),
(-2,73,l),
(43,37,o),
(137,-8,o),
(245,-8,cs)
);
}
);
width = 634;
},
{
anchors = (
{
name = bottom;
pos = (248,0);
},
{
name = top;
pos = (397,700);
}
);
background = {
shapes = (
{
ref = three;
}
);
};
layerId = "3917E251-E52F-4C58-ACE3-A75BE580C29C";
shapes = (
{
closed = 1;
nodes = (
(417,-11,o),
(573,43,o),
(603,185,cs),
(628,298,o),
(541,418,o),
(363,424,c),
(395,377,l),
(638,559,l),
(668,700,l),
(140,700,l),
(104,530,l),
(332,530,ls),
(347,530,o),
(350,517,o),
(335,507,cs),
(294,485,l),
(198,410,l),
(173,292,l),
(280,292,ls),
(388,292,o),
(418,261,o),
(411,225,cs),
(402,183,o),
(351,161,o),
(269,161,cs),
(193,161,o),
(130,170,o),
(66,224,c),
(-22,69,l),
(41,17,o),
(130,-11,o),
(259,-11,cs)
);
}
);
width = 663;
}
);
metricRight = B;
unicode = 439;
},
{
glyphname = F;
kernLeft = KO_H;
kernRight = KO_F;
lastChange = "2025-01-20 07:45:44 +0000";
layers = (
{
anchors = (
{
name = bottom;
pos = (203,0);
},
{
name = center;
pos = (128,179);
},
{
name = ogonek;
pos = (448,0);
},
{
name = top;
pos = (351,700);
},
{
name = topleft;
pos = (106,700);
}
);
layerId = "62D20235-B81E-4649-AB7B-DFD33366F1EF";
shapes = (
{
closed = 1;
nodes = (
(71,0,l),
(143,339,l),
(523,339,l),
(527,361,l),
(147,361,l),
(215,678,l),
(613,678,l),
(617,700,l),
(196,700,l),
(48,0,l)
);
}
);
width = 576;
},
{
anchors = (
{
name = bottom;
pos = (212,0);
},
{
name = center;
pos = (130,158);
},
{
name = ogonek;
pos = (474,0);
},
{
name = top;
pos = (361,700);
},
{
name = topleft;
pos = (112,700);
}
);
background = {
anchors = (
{
name = bottom;
pos = (276,0);
},
{
name = center;
pos = (163,179);
},
{
name = top;
pos = (276,675);
}
);
shapes = (
{
closed = 1;
nodes = (
(272,0,l),
(272,239,l),
(524,239,l),
(524,403,l),
(272,403,l),
(272,520,l),
(541,520,l),
(541,700,l),
(62,700,l),
(62,0,l)
);
},
{
closed = 1;
nodes = (
(146,0,l),
(146,339,l),
(493,339,l),
(493,361,l),
(146,361,l),
(146,678,l),
(526,678,l),
(526,700,l),
(121,700,l),
(121,0,l)
);
}
);
};
layerId = "8F4FB2AA-9411-450E-BE3E-D587D5B5F5D1";
shapes = (
{
closed = 1;
nodes = (
(138,0,l),
(202,301,l),
(555,301,l),
(576,399,l),
(223,399,l),
(265,597,l),
(636,597,l),
(658,700,l),
(180,700,l),
(31,0,l)
);
}
);
width = 610;
},
{
anchors = (
{
name = bottom;
pos = (229,0);
},
{
name = center;
pos = (172,124);
},
{
name = ogonek;
pos = (522,0);
},
{
name = top;
pos = (378,700);
},
{
name = topleft;
pos = (140,700);
}
);
layerId = "3917E251-E52F-4C58-ACE3-A75BE580C29C";
shapes = (
{
closed = 1;
nodes = (
(223,0,l),
(277,255,l),
(563,255,l),
(597,415,l),
(311,415,l),
(334,520,l),
(658,520,l),
(696,700,l),
(167,700,l),
(18,0,l)
);
}
);
width = 643;
}
);
metricLeft = H;
unicode = 70;
userData = {
KernOnName = F;
com.schriftgestaltung.Glyphs.ColorIndex = 3;
com.schriftgestaltung.Glyphs.layer.leftMetricsKey = "==H";
com.schriftgestaltung.Glyphs.leftMetricsKey = H;
};
},
{
glyphname = G;
kernLeft = KO_O;
kernRight = KO_G;
lastChange = "2025-01-20 07:45:44 +0000";
layers = (
{
anchors = (
{
name = bottom;
pos = (368,0);
},
{
name = top;
pos = (485,700);
}
);
background = {
shapes = (
{
pos = (-5,0);
ref = C;
},
{
pos = (-5,0);
ref = O;
}
);
};
layerId = "62D20235-B81E-4649-AB7B-DFD33366F1EF";
shapes = (
{
closed = 1;
nodes = (
(454,-12,o),
(535,14,o),
(603,61,c),
(667,361,l),
(395,361,l),
(391,339,l),
(639,339,l),
(580,70,l),
(521,31,o),
(449,10,o),
(359,10,cs),
(181,10,o),
(100,115,o),
(100,248,cs),
(100,426,o),
(182,691,o),
(481,691,cs),
(568,691,o),
(647,655,o),
(688,612,c),
(699,633,l),
(646,684,o),
(571,713,o),
(481,713,cs),
(162,713,o),
(76,430,o),
(76,248,cs),
(76,105,o),
(165,-12,o),
(359,-12,cs)
);
}
);
width = 739;
},
{
anchors = (
{
name = bottom;
pos = (384,0);
},
{
name = top;
pos = (469,700);
}
);
background = {
shapes = (
{
pos = (1,0);
ref = O;
},
{
pos = (1,0);
ref = C;
}
);
};
layerId = "8F4FB2AA-9411-450E-BE3E-D587D5B5F5D1";
shapes = (
{
closed = 1;
nodes = (
(448,-12,o),
(534,9,o),
(610,57,c),
(683,401,l),
(419,401,l),
(398,299,l),
(560,299,l),
(521,119,l),
(480,100,o),
(435,90,o),
(385,90,cs),
(243,90,o),
(177,175,o),
(177,292,cs),
(177,438,o),
(253,612,o),
(461,610,cs),
(549,609,o),
(606,584,o),
(648,539,c),
(700,630,l),
(644,684,o),
(579,712,o),
(472,712,cs),
(194,712,o),
(65,506,o),
(65,291,cs),
(65,104,o),
(194,-12,o),
(369,-12,cs)
);
}
);
width = 763;
},
{
anchors = (
{
name = bottom;
pos = (353,0);
},
{
name = top;
pos = (501,700);
}
);
background = {
shapes = (
{
pos = (-13,0);
ref = O;
},
{
pos = (-13,0);
ref = C;
}
);
};
layerId = "3917E251-E52F-4C58-ACE3-A75BE580C29C";
shapes = (
{
closed = 1;
nodes = (
(471,-12,o),
(567,11,o),
(652,54,c),
(732,426,l),
(445,426,l),
(411,266,l),
(517,266,l),
(495,171,l),
(471,164,o),
(445,161,o),
(421,161,cs),
(315,161,o),
(255,209,o),
(255,293,cs),
(255,418,o),
(321,540,o),
(500,540,cs),
(560,540,o),
(623,523,o),
(659,504,c),
(749,650,l),
(686,690,o),
(608,712,o),
(520,712,cs),
(178,712,o),
(51,502,o),
(51,287,cs),
(51,100,o),
(179,-12,o),
(368,-12,cs)
);
}
);
width = 765;
}
);
metricLeft = O;
unicode = 71;
userData = {
KernOnName = G;
com.schriftgestaltung.Glyphs.ColorIndex = 3;
com.schriftgestaltung.Glyphs.layer.leftMetricsKey = "==O";
com.schriftgestaltung.Glyphs.leftMetricsKey = O;
};
},
{
glyphname = Gstroke;
lastChange = "2025-01-19 17:48:57 +0000";
layers = (
{
background = {
shapes = (
{
pos = (1,0);
ref = G;
}
);
};
layerId = "62D20235-B81E-4649-AB7B-DFD33366F1EF";
shapes = (
{
closed = 1;
nodes = (
(743,194,l),
(747,216,l),
(501,216,l),
(497,194,l)
);
},
{
closed = 1;
nodes = (
(454,-12,o),
(535,14,o),
(603,61,c),
(667,361,l),
(643,361,l),
(580,70,l),
(521,31,o),
(449,10,o),
(359,10,cs),
(181,10,o),
(100,115,o),
(100,248,cs),
(100,426,o),
(182,691,o),
(481,691,cs),
(568,691,o),
(647,655,o),
(688,612,c),
(699,633,l),
(646,684,o),
(571,713,o),
(481,713,cs),
(162,713,o),
(76,430,o),
(76,248,cs),
(76,105,o),
(165,-12,o),
(359,-12,cs)
);
}
);
width = 777;
},
{
background = {
shapes = (
{
ref = G;
}
);
};
layerId = "8F4FB2AA-9411-450E-BE3E-D587D5B5F5D1";
shapes = (
{
closed = 1;
nodes = (
(733,209,l),
(755,312,l),
(470,312,l),
(448,209,l)
);
},
{
closed = 1;
nodes = (
(448,-12,o),
(534,9,o),
(610,57,c),
(683,401,l),
(581,401,l),
(521,119,l),
(480,100,o),
(435,90,o),
(385,90,cs),
(243,90,o),
(177,175,o),
(177,292,cs),
(177,438,o),
(253,612,o),
(461,610,cs),
(549,609,o),
(606,584,o),
(648,539,c),
(700,630,l),
(644,684,o),
(579,712,o),
(472,712,cs),
(194,712,o),
(65,506,o),
(65,291,cs),
(65,104,o),
(194,-12,o),
(369,-12,cs)
);
}
);
width = 766;
},
{
background = {
anchors = (
{
name = bottom;
pos = (344,0);
},
{
name = top;
pos = (344,700);
}
);
shapes = (
{
ref = G;
}
);
};
layerId = "3917E251-E52F-4C58-ACE3-A75BE580C29C";
shapes = (
{
closed = 1;
nodes = (
(763,223,l),
(797,383,l),
(470,383,l),
(436,223,l)
);
},
{
closed = 1;
nodes = (
(471,-12,o),
(567,11,o),
(652,54,c),
(732,426,l),
(551,426,l),
(495,171,l),
(471,164,o),
(445,161,o),
(421,161,cs),
(315,161,o),
(255,209,o),
(255,293,cs),
(255,418,o),
(321,540,o),
(500,540,cs),
(560,540,o),
(623,523,o),
(659,504,c),
(749,650,l),
(686,690,o),
(608,712,o),
(520,712,cs),
(178,712,o),
(51,502,o),
(51,287,cs),
(51,100,o),
(179,-12,o),
(368,-12,cs)
);
}
);
width = 794;
}
);
unicode = 484;
},
{
glyphname = H;
kernLeft = KO_H;
kernRight = KO_H;
lastChange = "2025-01-20 07:45:44 +0000";
layers = (
{
anchors = (
{
name = bottom;
pos = (295,0);
},
{
name = bottomright;
pos = (542,0);
},
{
name = center;
pos = (408,535);
},
{
name = top;
pos = (443,700);
},
{
name = topleft;
pos = (113,700);
},
{
name = topright;
pos = (690,700);
}
);
layerId = "62D20235-B81E-4649-AB7B-DFD33366F1EF";
shapes = (
{
closed = 1;
nodes = (
(72,0,l),
(144,339,l),
(590,339,l),
(518,0,l),
(542,0,l),
(690,700,l),
(666,700,l),
(594,361,l),
(148,361,l),
(220,700,l),
(196,700,l),
(48,0,l)
);
}
);
width = 700;
},
{
anchors = (
{
name = bottom;
pos = (315,0);
},
{
name = bottomright;
pos = (599,0);
},
{
name = center;
pos = (428,552);
},
{
name = top;
pos = (464,700);
},
{
name = topleft;
pos = (112,700);
},
{
name = topright;
pos = (748,700);
}
);
background = {
shapes = (
{
closed = 1;
nodes = (
(272,0,l),
(272,269,l),
(472,269,l),
(472,0,l),
(682,0,l),
(682,700,l),
(472,700,l),
(472,429,l),
(272,429,l),
(272,700,l),
(62,700,l),
(62,0,l)
);
},
{
closed = 1;
nodes = (
(145,0,l),
(145,339,l),
(591,339,l),
(591,0,l),
(615,0,l),
(615,700,l),
(591,700,l),
(591,361,l),
(145,361,l),
(145,700,l),
(121,700,l),
(121,0,l)
);
}
);
};
layerId = "8F4FB2AA-9411-450E-BE3E-D587D5B5F5D1";
shapes = (
{
closed = 1;
nodes = (
(145,0,l),
(209,299,l),
(548,299,l),
(484,0,l),
(599,0,l),
(748,700,l),
(634,700,l),
(570,401,l),
(231,401,l),
(295,700,l),
(180,700,l),
(31,0,l)
);
}
);
width = 744;
},
{
anchors = (
{
name = bottom;
pos = (338,0);
},
{
name = bottomright;
pos = (658,0);
},
{
name = center;
pos = (454,572);
},
{
name = top;
pos = (487,700);
},
{
name = topleft;
pos = (167,700);
},
{
name = topright;
pos = (807,700);
}
);
layerId = "3917E251-E52F-4C58-ACE3-A75BE580C29C";
shapes = (
{
closed = 1;
nodes = (
(228,0,l),
(284,264,l),
(504,264,l),
(448,0,l),
(658,0,l),
(807,700,l),
(597,700,l),
(540,434,l),
(320,434,l),
(377,700,l),
(167,700,l),
(18,0,l)
);
}
);
width = 792;
}
);
unicode = 72;
userData = {
KernOnName = H;
com.schriftgestaltung.Glyphs.ColorIndex = 3;
};
},
{
glyphname = Hbar;
lastChange = "2025-01-19 17:48:57 +0000";
layers = (
{
layerId = "62D20235-B81E-4649-AB7B-DFD33366F1EF";
shapes = (
{
alignment = -1;
pos = (42,0);
ref = H;
},
{
closed = 1;
nodes = (
(811,503,l),
(816,525,l),
(76,525,l),
(71,503,l)
);
}
);
width = 780;
},
{
background = {
shapes = (
{
closed = 1;
nodes = (
(856,494,l),
(875,581,l),
(87,581,l),
(68,494,l)
);
}
);
};
layerId = "8F4FB2AA-9411-450E-BE3E-D587D5B5F5D1";
shapes = (
{
alignment = -1;
pos = (47,0);
ref = H;
},
{
closed = 1;
nodes = (
(856,494,l),
(875,581,l),
(87,581,l),
(68,494,l)
);
}
);
width = 828;
},
{
background = {
shapes = (
{
closed = 1;
nodes = (
(906,492,l),
(936,636,l),
(97,636,l),
(67,492,l)
);
}
);
};
layerId = "3917E251-E52F-4C58-ACE3-A75BE580C29C";
shapes = (
{
alignment = -1;
pos = (48,0);
ref = H;
},
{
closed = 1;
nodes = (
(906,492,l),
(936,636,l),
(97,636,l),
(67,492,l)
);
}
);
width = 879;
}
);
metricLeft = t;
metricRight = "=|t";
unicode = 294;
},
{
color = 4;
glyphname = I;
kernLeft = KO_I;
kernRight = KO_I;
lastChange = "2025-01-20 07:45:44 +0000";
layers = (
{
anchors = (
{
name = bottom;
pos = (60,0);
},
{
name = ogonek;
pos = (72,0);
},
{
name = top;
pos = (208,700);
},
{
name = topleft;
pos = (113,700);
}
);
layerId = "62D20235-B81E-4649-AB7B-DFD33366F1EF";
shapes = (
{
closed = 1;
nodes = (
(72,0,l),
(220,700,l),
(196,700,l),
(48,0,l)
);
}
);
width = 230;
},
{
anchors = (
{
name = bottom;
pos = (88,0);
},
{
name = ogonek;
pos = (144,0);
},
{
name = top;
pos = (237,700);
},
{
name = topleft;
pos = (112,700);
}
);
layerId = "8F4FB2AA-9411-450E-BE3E-D587D5B5F5D1";
shapes = (
{
closed = 1;
nodes = (
(144,0,l),
(293,700,l),
(180,700,l),
(31,0,l)
);
}
);
width = 289;
},
{
anchors = (
{
name = bottom;
pos = (123,0);
},
{
name = ogonek;
pos = (228,0);
},
{
name = top;
pos = (272,700);
},
{
name = topleft;
pos = (111,700);
}
);
layerId = "3917E251-E52F-4C58-ACE3-A75BE580C29C";
shapes = (
{
closed = 1;
nodes = (
(228,0,l),
(377,700,l),
(167,700,l),
(18,0,l)
);
}
);
width = 362;
}
);
unicode = 73;
userData = {
KernOnName = I;
com.schriftgestaltung.Glyphs.ColorIndex = 3;
};
},
{
glyphname = IJ;
kernLeft = KO_I;
kernRight = KO_J;
lastChange = "2025-01-19 17:48:57 +0000";
layers = (
{
layerId = "62D20235-B81E-4649-AB7B-DFD33366F1EF";
shapes = (
{
ref = I;
},
{
pos = (230,0);
ref = _part.Jcomb;
}
);
width = 729;
},
{
background = {
anchors = (
{
name = bottom;
pos = (216,0);
},
{
name = ogonek;
pos = (381,0);
},
{
name = top;
pos = (216,687);
},
{
name = topleft;
pos = (20,700);
}
);
shapes = (
{
closed = 1;
nodes = (
(743,-6,o),
(829,69,o),
(829,198,cs),
(829,700,l),
(455,700,l),
(455,602,l),
(716,602,l),
(716,198,ls),
(716,131,o),
(677,96,o),
(592,96,cs),
(547,96,o),
(501,110,o),
(455,133,c),
(455,30,l),
(498,7,o),
(553,-6,o),
(607,-6,cs)
);
},
{
closed = 1;
nodes = (
(381,0,l),
(381,98,l),
(272,98,l),
(272,602,l),
(381,602,l),
(381,700,l),
(50,700,l),
(50,602,l),
(159,602,l),
(159,98,l),
(50,98,l),
(50,0,l)
);
}
);
};
layerId = "8F4FB2AA-9411-450E-BE3E-D587D5B5F5D1";
shapes = (
{
ref = I;
},
{
pos = (289,0);
ref = _part.Jcomb;
}
);
width = 802;
},
{
layerId = "3917E251-E52F-4C58-ACE3-A75BE580C29C";
shapes = (
{
ref = I;
},
{
pos = (362,0);
ref = _part.Jcomb;
}
);
width = 900;
}
);
unicode = 306;
},
{
glyphname = Istroke;
lastChange = "2026-03-12 14:38:27 +0000";
layers = (
{
anchors = (
{
name = bottom;
pos = (167,0);
},
{
name = ogonek;
pos = (179,0);
},
{
name = top;
pos = (315,700);
},
{
name = topleft;
pos = (220,700);
}
);
background = {
anchors = (
{
name = bottom;
pos = (167,0);
},
{
name = ogonek;
pos = (179,0);
},
{
name = top;
pos = (315,700);
},
{
name = topleft;
pos = (220,700);
}
);
shapes = (
{
closed = 1;
nodes = (
(179,0,l),
(327,700,l),
(303,700,l),
(155,0,l)
);
},
{
closed = 1;
nodes = (
(371,337,l),
(375,357,l),
(123,357,l),
(119,337,l)
);
}
);
};
layerId = "62D20235-B81E-4649-AB7B-DFD33366F1EF";
shapes = (
{
closed = 1;
nodes = (
(179,0,l),
(327,700,l),
(303,700,l),
(155,0,l)
);
},
{
closed = 1;
nodes = (
(371,337,l),
(375,357,l),
(123,357,l),
(119,337,l)
);
}
);
width = 458;
},
{
anchors = (
{
name = bottom;
pos = (180,0);
},
{
name = ogonek;
pos = (236,0);
},
{
name = top;
pos = (329,700);
},
{
name = topleft;
pos = (204,700);
}
);
background = {
anchors = (
{
name = bottom;
pos = (180,0);
},
{
name = ogonek;
pos = (236,0);
},
{
name = top;
pos = (329,700);
},
{
name = topleft;
pos = (204,700);
}
);
shapes = (
{
closed = 1;
nodes = (
(236,0,l),
(385,700,l),
(272,700,l),
(123,0,l)
);
},
{
closed = 1;
nodes = (
(409,316,l),
(428,406,l),
(117,406,l),
(98,316,l)
);
}
);
};
layerId = "8F4FB2AA-9411-450E-BE3E-D587D5B5F5D1";
shapes = (
{
closed = 1;
nodes = (
(236,0,l),
(385,700,l),
(272,700,l),
(123,0,l)
);
},
{
closed = 1;
nodes = (
(409,316,l),
(428,406,l),
(117,406,l),
(98,316,l)
);
}
);
width = 487;
},
{
anchors = (
{
name = bottom;
pos = (203,0);
},
{
name = ogonek;
pos = (308,0);
},
{
name = top;
pos = (352,700);
},
{
name = topleft;
pos = (191,700);
}
);
background = {
anchors = (
{
name = bottom;
pos = (203,0);
},
{
name = ogonek;
pos = (308,0);
},
{
name = top;
pos = (352,700);
},
{
name = topleft;
pos = (191,700);
}
);
shapes = (
{
closed = 1;
nodes = (
(308,0,l),
(457,700,l),
(247,700,l),
(98,0,l)
);
},
{
closed = 1;
nodes = (
(453,294,l),
(486,448,l),
(113,448,l),
(80,294,l)
);
}
);
};
layerId = "3917E251-E52F-4C58-ACE3-A75BE580C29C";
shapes = (
{
closed = 1;
nodes = (
(308,0,l),
(457,700,l),
(247,700,l),
(98,0,l)
);
},
{
closed = 1;
nodes = (
(453,294,l),
(486,448,l),
(113,448,l),
(80,294,l)
);
}
);
width = 525;
}
);
metricLeft = I;
metricRight = I;
unicode = 407;
},
{
glyphname = J;
kernLeft = KO_J;
kernRight = KO_J;
lastChange = "2025-01-20 07:45:44 +0000";
layers = (
{
anchors = (
{
name = bottom;
pos = (159,0);
},
{
name = top;
pos = (393,700);
}
);
layerId = "62D20235-B81E-4649-AB7B-DFD33366F1EF";
shapes = (
{
closed = 1;
nodes = (
(186,-12,o),
(265,37,o),
(285,135,cs),
(405,700,l),
(381,700,l),
(262,141,ls),
(243,52,o),
(175,10,o),
(99,10,cs),
(40,10,o),
(-8,36,o),
(-23,59,c),
(-33,39,l),
(-18,18,o),
(32,-12,o),
(99,-12,cs)
);
}
);
width = 415;
},
{
anchors = (
{
name = bottom;
pos = (157,0);
},
{
name = top;
pos = (417,700);
}
);
layerId = "8F4FB2AA-9411-450E-BE3E-D587D5B5F5D1";
shapes = (
{
closed = 1;
nodes = (
(258,-12,o),
(337,59,o),
(362,175,cs),
(474,700,l),
(361,700,l),
(254,198,ls),
(237,121,o),
(194,91,o),
(134,91,cs),
(88,91,o),
(40,107,o),
(15,133,c),
(-34,51,l),
(2,13,o),
(61,-12,o),
(134,-12,cs)
);
}
);
width = 470;
},
{
anchors = (
{
name = bottom;
pos = (156,0);
},
{
name = top;
pos = (438,700);
}
);
layerId = "3917E251-E52F-4C58-ACE3-A75BE580C29C";
shapes = (
{
closed = 1;
nodes = (
(313,-12,o),
(414,69,o),
(448,225,cs),
(549,700,l),
(339,700,l),
(242,259,ls),
(229,201,o),
(197,171,o),
(146,171,cs),
(112,171,o),
(84,175,o),
(55,194,c),
(-41,33,l),
(2,5,o),
(72,-12,o),
(138,-12,cs)
);
}
);
width = 534;
}
);
metricRight = H;
unicode = 74;
userData = {
KernOnName = J;
com.schriftgestaltung.Glyphs.ColorIndex = 3;
com.schriftgestaltung.Glyphs.layer.rightMetricsKey = "==H";
com.schriftgestaltung.Glyphs.rightMetricsKey = H;
com.typemytype.robofont.layerData = {
background = {
anchors = (
);
components = (
);
contours = (
{
points = (
{
segmentType = line;
smooth = 0;
x = 455;
y = 700;
},
{
segmentType = line;
smooth = 0;
x = 313;
y = 700;
},
{
segmentType = line;
smooth = 0;
x = 313;
y = 190;
},
{
smooth = 0;
x = 313;
y = 157;
},
{
smooth = 0;
x = 305;
y = 116;
},
{
segmentType = curve;
smooth = 1;
x = 254;
y = 116;
},
{
smooth = 0;
x = 209;
y = 116;
},
{
smooth = 0;
x = 185;
y = 123;
},
{
segmentType = curve;
smooth = 0;
x = 153;
y = 139;
},
{
segmentType = line;
smooth = 0;
x = 127;
y = 19;
},
{
smooth = 0;
x = 162;
y = -1;
},
{
smooth = 0;
x = 210;
y = -12;
},
{
segmentType = curve;
smooth = 1;
x = 254;
y = -12;
},
{
smooth = 0;
x = 425;
y = -12;
},
{
smooth = 0;
x = 455;
y = 97;
},
{
segmentType = curve;
smooth = 0;
x = 455;
y = 190;
}
);
}
);
lib = {
};
name = J;
unicodes = (
);
width = 447;
};
};
};
},
{
glyphname = K;
kernLeft = KO_H;
kernRight = KO_K;
lastChange = "2025-01-19 17:48:57 +0000";
layers = (
{
anchors = (
{
name = bottom;
pos = (245,0);
},
{
name = bottomright;
pos = (497,0);
},
{
name = center;
pos = (176,543);
},
{
name = top;
pos = (393,700);
},
{
name = topleft;
pos = (196,700);
}
);
background = {
shapes = (
{
ref = H;
}
);
};
layerId = "62D20235-B81E-4649-AB7B-DFD33366F1EF";
shapes = (
{
closed = 1;
nodes = (
(71,0,l),
(143,339,l),
(274,339,l),
(635,700,l),
(604,700,l),
(267,361,l),
(148,361,l),
(220,700,l),
(196,700,l),
(48,0,l)
);
},
{
closed = 1;
nodes = (
(512,0,l),
(282,361,l),
(266,344,l),
(485,0,l)
);
}
);
width = 600;
},
{
anchors = (
{
name = bottom;
pos = (275,0);
},
{
name = bottomright;
pos = (519,0);
},
{
name = center;
pos = (208,574);
},
{
name = top;
pos = (424,700);
},
{
name = topleft;
pos = (180,700);
}
);
background = {
shapes = (
{
ref = H;
}
);
};
layerId = "8F4FB2AA-9411-450E-BE3E-D587D5B5F5D1";
shapes = (
{
closed = 1;
nodes = (
(145,0,l),
(209,302,l),
(337,302,l),
(710,700,l),
(580,700,l),
(300,399,l),
(230,399,l),
(294,700,l),
(180,700,l),
(31,0,l)
);
},
{
closed = 1;
nodes = (
(589,0,l),
(383,386,l),
(303,314,l),
(469,0,l)
);
}
);
width = 674;
},
{
anchors = (
{
name = bottom;
pos = (327,0);
},
{
name = bottomright;
pos = (607,0);
},
{
name = center;
pos = (238,586);
},
{
name = top;
pos = (476,700);
},
{
name = topleft;
pos = (167,700);
}
);
background = {
shapes = (
{
ref = H;
}
);
};
layerId = "3917E251-E52F-4C58-ACE3-A75BE580C29C";
shapes = (
{
closed = 1;
nodes = (
(228,0,l),
(285,270,l),
(487,270,l),
(810,700,l),
(576,700,l),
(375,430,l),
(319,430,l),
(377,700,l),
(167,700,l),
(18,0,l)
);
},
{
closed = 1;
nodes = (
(667,0,l),
(532,412,l),
(363,284,l),
(451,0,l)
);
}
);
width = 746;
}
);
metricLeft = H;
unicode = 75;
userData = {
com.schriftgestaltung.Glyphs.ColorIndex = 3;
com.schriftgestaltung.Glyphs.layer.leftMetricsKey = "==H";
com.schriftgestaltung.Glyphs.leftMetricsKey = H;
};
},
{
glyphname = L;
kernLeft = KO_H;
kernRight = KO_L;
lastChange = "2025-01-20 07:45:44 +0000";
layers = (
{
anchors = (
{
name = bottom;
pos = (262,0);
},
{
name = center;
pos = (148,416);
},
{
name = top;
pos = (208,700);
},
{
name = topright;
pos = (487,700);
}
);
layerId = "62D20235-B81E-4649-AB7B-DFD33366F1EF";
shapes = (
{
closed = 1;
nodes = (
(475,0,l),
(479,22,l),
(77,22,l),
(221,700,l),
(196,700,l),
(48,0,l)
);
}
);
width = 535;
},
{
anchors = (
{
name = bottom;
pos = (277,0);
},
{
name = center;
pos = (163,350);
},
{
name = top;
pos = (238,700);
},
{
name = topright;
pos = (489,700);
}
);
background = {
shapes = (
{
closed = 1;
nodes = (
(540,0,l),
(540,170,l),
(273,170,l),
(273,700,l),
(62,700,l),
(62,0,l)
);
},
{
closed = 1;
nodes = (
(528,0,l),
(528,22,l),
(145,22,l),
(145,700,l),
(121,700,l),
(121,0,l)
);
}
);
};
layerId = "8F4FB2AA-9411-450E-BE3E-D587D5B5F5D1";
shapes = (
{
closed = 1;
nodes = (
(507,0,l),
(529,103,l),
(169,103,l),
(296,700,l),
(180,700,l),
(31,0,l)
);
}
);
width = 571;
},
{
anchors = (
{
name = bottom;
pos = (274,0);
},
{
name = center;
pos = (212,416);
},
{
name = top;
pos = (273,700);
},
{
name = topright;
pos = (512,700);
}
);
layerId = "3917E251-E52F-4C58-ACE3-A75BE580C29C";
shapes = (
{
closed = 1;
nodes = (
(536,0,l),
(574,180,l),
(268,180,l),
(379,700,l),
(167,700,l),
(18,0,l)
);
}
);
width = 604;
}
);
metricLeft = H;
metricRight = T;
unicode = 76;
userData = {
KernOnName = L;
com.schriftgestaltung.Glyphs.ColorIndex = 3;
com.schriftgestaltung.Glyphs.layer.leftMetricsKey = "==H";
com.schriftgestaltung.Glyphs.leftMetricsKey = H;
};
},
{
glyphname = Lj;
lastChange = "2026-01-30 11:39:51 +0000";
layers = (
{
anchors = (
{
name = bottom;
pos = (480,-265);
},
{
name = center;
pos = (148,416);
},
{
name = top;
pos = (705,703);
},
{
name = topright;
pos = (487,700);
}
);
layerId = "62D20235-B81E-4649-AB7B-DFD33366F1EF";
shapes = (
{
closed = 1;
nodes = (
(475,0,l),
(479,22,l),
(77,22,l),
(221,700,l),
(196,700,l),
(48,0,l)
);
},
{
closed = 1;
nodes = (
(477,-190,o),
(538,-128,o),
(563,-16,cs),
(681,522,l),
(583,522,l),
(578,500,l),
(651,500,l),
(541,-13,ls),
(520,-113,o),
(467,-173,o),
(341,-216,c),
(351,-233,l)
);
},
{
closed = 1;
nodes = (
(702,632,l),
(727,750,l),
(703,750,l),
(678,632,l)
);
}
);
width = 719;
},
{
anchors = (
{
name = bottom;
pos = (587,-265);
},
{
name = center;
pos = (163,350);
},
{
name = top;
pos = (812,750);
},
{
name = topright;
pos = (489,700);
}
);
layerId = "8F4FB2AA-9411-450E-BE3E-D587D5B5F5D1";
shapes = (
{
closed = 1;
nodes = (
(507,0,l),
(529,103,l),
(169,103,l),
(296,700,l),
(180,700,l),
(31,0,l)
);
},
{
closed = 1;
nodes = (
(587,-210,o),
(684,-141,o),
(716,5,cs),
(832,536,l),
(632,536,l),
(614,445,l),
(704,445,l),
(608,8,ls),
(590,-76,o),
(532,-122,o),
(446,-141,c),
(463,-236,l)
);
},
{
closed = 1;
nodes = (
(841,632,l),
(866,750,l),
(758,750,l),
(733,632,l)
);
}
);
width = 848;
},
{
anchors = (
{
name = bottom;
pos = (668,-265);
},
{
name = center;
pos = (212,416);
},
{
name = top;
pos = (882,753);
},
{
name = topright;
pos = (512,700);
}
);
layerId = "3917E251-E52F-4C58-ACE3-A75BE580C29C";
shapes = (
{
closed = 1;
nodes = (
(536,0,l),
(574,180,l),
(268,180,l),
(379,700,l),
(167,700,l),
(18,0,l)
);
},
{
closed = 1;
nodes = (
(648,-238,o),
(796,-172,o),
(831,-10,cs),
(950,546,l),
(669,546,l),
(635,386,l),
(723,386,l),
(644,15,ls),
(633,-34,o),
(581,-62,o),
(513,-62,c),
(528,-235,l)
);
},
{
closed = 1;
nodes = (
(962,618,l),
(990,750,l),
(773,750,l),
(745,618,l)
);
}
);
width = 959;
}
);
unicode = 456;
},
{
color = 9;
glyphname = Lj.ss01;
lastChange = "2026-02-13 12:18:53 +0000";
layers = (
{
anchors = (
{
name = bottom;
pos = (480,-265);
},
{
name = center;
pos = (148,416);
},
{
name = top;
pos = (705,703);
},
{
name = topright;
pos = (487,700);
}
);
layerId = "62D20235-B81E-4649-AB7B-DFD33366F1EF";
shapes = (
{
closed = 1;
nodes = (
(475,0,l),
(479,22,l),
(77,22,l),
(221,700,l),
(196,700,l),
(48,0,l)
);
},
{
closed = 1;
nodes = (
(477,-190,o),
(538,-128,o),
(563,-16,cs),
(681,522,l),
(583,522,l),
(578,500,l),
(651,500,l),
(541,-13,ls),
(520,-113,o),
(467,-173,o),
(341,-216,c),
(351,-233,l)
);
},
{
closed = 1;
nodes = (
(702,632,l),
(727,750,l),
(703,750,l),
(678,632,l)
);
}
);
width = 719;
},
{
anchors = (
{
name = bottom;
pos = (587,-265);
},
{
name = center;
pos = (163,350);
},
{
name = top;
pos = (812,750);
},
{
name = topright;
pos = (489,700);
}
);
layerId = "8F4FB2AA-9411-450E-BE3E-D587D5B5F5D1";
shapes = (
{
closed = 1;
nodes = (
(507,0,l),
(529,103,l),
(169,103,l),
(296,700,l),
(180,700,l),
(31,0,l)
);
},
{
closed = 1;
nodes = (
(587,-210,o),
(684,-141,o),
(716,5,cs),
(832,536,l),
(632,536,l),
(614,445,l),
(704,445,l),
(608,8,ls),
(590,-76,o),
(532,-122,o),
(446,-141,c),
(463,-236,l)
);
},
{
closed = 1;
nodes = (
(841,632,l),
(866,750,l),
(758,750,l),
(733,632,l)
);
}
);
width = 848;
},
{
anchors = (
{
name = bottom;
pos = (668,-265);
},
{
name = center;
pos = (212,416);
},
{
name = top;
pos = (882,753);
},
{
name = topright;
pos = (512,700);
}
);
layerId = "3917E251-E52F-4C58-ACE3-A75BE580C29C";
shapes = (
{
closed = 1;
nodes = (
(536,0,l),
(574,180,l),
(268,180,l),
(379,700,l),
(167,700,l),
(18,0,l)
);
},
{
closed = 1;
nodes = (
(648,-238,o),
(796,-172,o),
(831,-10,cs),
(950,546,l),
(669,546,l),
(635,386,l),
(723,386,l),
(644,15,ls),
(633,-34,o),
(581,-62,o),
(513,-62,c),
(528,-235,l)
);
},
{
closed = 1;
nodes = (
(962,618,l),
(990,750,l),
(773,750,l),
(745,618,l)
);
}
);
width = 959;
}
);
},
{
color = 4;
glyphname = Lslash;
lastChange = "2025-01-19 15:32:04 +0000";
layers = (
{
background = {
shapes = (
{
pos = (5,0);
ref = L;
}
);
};
layerId = "62D20235-B81E-4649-AB7B-DFD33366F1EF";
shapes = (
{
closed = 1;
nodes = (
(125,339,l),
(53,0,l),
(480,0,l),
(484,22,l),
(82,22,l),
(153,356,l),
(410,510,l),
(415,534,l),
(158,380,l),
(226,700,l),
(201,700,l),
(130,363,l),
(29,303,l),
(24,279,l)
);
}
);
width = 540;
},
{
background = {
shapes = (
{
pos = (10,0);
ref = L;
}
);
};
layerId = "8F4FB2AA-9411-450E-BE3E-D587D5B5F5D1";
shapes = (
{
closed = 1;
nodes = (
(102,285,l),
(41,0,l),
(517,0,l),
(539,103,l),
(179,103,l),
(235,365,l),
(450,495,l),
(472,595,l),
(256,465,l),
(306,700,l),
(190,700,l),
(123,385,l),
(33,331,l),
(12,231,l)
);
}
);
width = 581;
},
{
background = {
shapes = (
{
pos = (9,0);
ref = L;
}
);
};
layerId = "3917E251-E52F-4C58-ACE3-A75BE580C29C";
shapes = (
{
closed = 1;
nodes = (
(75,225,l),
(27,0,l),
(545,0,l),
(583,180,l),
(277,180,l),
(318,373,l),
(495,480,l),
(534,662,l),
(357,555,l),
(388,700,l),
(176,700,l),
(114,408,l),
(39,363,l),
(0,180,l)
);
}
);
width = 613;
}
);
metricLeft = t;
metricRight = L;
unicode = 321;
},
{
glyphname = M;
kernLeft = KO_H;
kernRight = KO_H;
lastChange = "2025-01-19 17:48:57 +0000";
layers = (
{
anchors = (
{
name = bottom;
pos = (355,0);
},
{
name = bottomright;
pos = (662,0);
},
{
name = top;
pos = (503,700);
}
);
layerId = "62D20235-B81E-4649-AB7B-DFD33366F1EF";
shapes = (
{
closed = 1;
nodes = (
(73,0,l),
(188,541,l),
(206,640,ls),
(208,652,o),
(215,654,o),
(219,643,cs),
(392,254,l),
(416,254,l),
(763,643,ls),
(770,651,o),
(778,652,o),
(776,640,cs),
(752,541,l),
(637,0,l),
(662,0,l),
(810,700,l),
(785,700,l),
(417,287,ls),
(410,279,o),
(403,281,o),
(401,287,cs),
(216,700,l),
(196,700,l),
(48,0,l)
);
}
);
width = 820;
},
{
anchors = (
{
name = bottom;
pos = (386,0);
},
{
name = bottomright;
pos = (740,0);
},
{
name = top;
pos = (535,700);
}
);
layerId = "8F4FB2AA-9411-450E-BE3E-D587D5B5F5D1";
shapes = (
{
closed = 1;
nodes = (
(140,0,l),
(219,368,l),
(231,491,ls),
(232,502,o),
(244,504,o),
(249,495,cs),
(400,197,l),
(455,197,l),
(732,495,ls),
(740,503,o),
(751,502,o),
(748,491,cs),
(709,368,l),
(631,0,l),
(740,0,l),
(889,700,l),
(785,700,l),
(461,347,ls),
(452,338,o),
(444,339,o),
(441,347,cs),
(266,700,l),
(180,700,l),
(31,0,l)
);
}
);
width = 885;
},
{
anchors = (
{
name = bottom;
pos = (417,0);
},
{
name = bottomright;
pos = (815,0);
},
{
name = top;
pos = (556,700);
}
);
layerId = "3917E251-E52F-4C58-ACE3-A75BE580C29C";
shapes = (
{
closed = 1;
nodes = (
(217,0,l),
(283,309,l),
(277,410,ls),
(277,424,o),
(289,427,o),
(295,416,cs),
(428,161,l),
(491,161,l),
(711,418,ls),
(720,428,o),
(734,421,o),
(729,410,cs),
(682,309,l),
(616,0,l),
(815,0,l),
(964,700,l),
(729,700,l),
(518,444,ls),
(508,432,o),
(496,435,o),
(490,448,cs),
(368,700,l),
(167,700,l),
(18,0,l)
);
}
);
width = 949;
}
);
metricLeft = H;
metricRight = H;
unicode = 77;
userData = {
com.schriftgestaltung.Glyphs.ColorIndex = 3;
com.schriftgestaltung.Glyphs.layer.leftMetricsKey = "==H";
com.schriftgestaltung.Glyphs.layer.rightMetricsKey = "==H";
com.schriftgestaltung.Glyphs.leftMetricsKey = H;
com.schriftgestaltung.Glyphs.rightMetricsKey = H;
};
},
{
glyphname = N;
kernLeft = KO_H;
kernRight = KO_H;
lastChange = "2025-01-19 17:48:57 +0000";
layers = (
{
anchors = (
{
name = bottom;
pos = (304,0);
},
{
name = part.hook;
pos = (48,0);
},
{
name = top;
pos = (449,700);
}
);
background = {
shapes = (
{
pos = (-7,0);
ref = H;
}
);
};
layerId = "62D20235-B81E-4649-AB7B-DFD33366F1EF";
shapes = (
{
closed = 1;
nodes = (
(72,0,l),
(191,561,l),
(208,657,ls),
(209,664,o),
(216,669,o),
(220,661,cs),
(525,0,l),
(548,0,l),
(701,700,l),
(677,700,l),
(556,148,l),
(541,45,ls),
(540,37,o),
(532,35,o),
(529,42,cs),
(226,700,l),
(196,700,l),
(48,0,l)
);
}
);
width = 711;
},
{
anchors = (
{
name = bottom;
pos = (333,0);
},
{
name = part.hook;
pos = (37,0);
},
{
name = top;
pos = (464,700);
}
);
background = {
shapes = (
{
pos = (-12,0);
ref = H;
}
);
};
layerId = "8F4FB2AA-9411-450E-BE3E-D587D5B5F5D1";
shapes = (
{
closed = 1;
nodes = (
(139,0,l),
(222,388,l),
(236,513,ls),
(238,525,o),
(249,525,o),
(253,517,cs),
(512,0,l),
(608,0,l),
(757,700,l),
(649,700,l),
(566,312,l),
(552,187,ls),
(550,175,o),
(539,175,o),
(535,183,cs),
(276,700,l),
(180,700,l),
(31,0,l)
);
}
);
width = 753;
},
{
anchors = (
{
name = bottom;
pos = (387,0);
},
{
name = part.hook;
pos = (18,0);
},
{
name = top;
pos = (507,700);
}
);
background = {
shapes = (
{
pos = (-14,0);
ref = H;
}
);
};
layerId = "3917E251-E52F-4C58-ACE3-A75BE580C29C";
shapes = (
{
closed = 1;
nodes = (
(228,0,l),
(277,231,l),
(287,361,ls),
(288,379,o),
(302,384,o),
(310,369,cs),
(513,0,l),
(699,0,l),
(848,700,l),
(638,700,l),
(589,470,l),
(581,337,ls),
(579,316,o),
(565,312,o),
(555,331,cs),
(365,700,l),
(167,700,l),
(18,0,l)
);
}
);
width = 833;
}
);
metricLeft = H;
metricRight = H;
unicode = 78;
userData = {
com.schriftgestaltung.Glyphs.ColorIndex = 3;
com.schriftgestaltung.Glyphs.layer.leftMetricsKey = "==H";
com.schriftgestaltung.Glyphs.layer.rightMetricsKey = "==H";
com.schriftgestaltung.Glyphs.leftMetricsKey = H;
com.schriftgestaltung.Glyphs.rightMetricsKey = H;
};
},
{
glyphname = Nj;
lastChange = "2026-01-30 11:40:01 +0000";
layers = (
{
anchors = (
{
name = bottom;
pos = (695,-265);
},
{
name = part.hook;
pos = (48,0);
},
{
name = top;
pos = (920,703);
}
);
layerId = "62D20235-B81E-4649-AB7B-DFD33366F1EF";
shapes = (
{
closed = 1;
nodes = (
(72,0,l),
(191,561,l),
(208,657,ls),
(209,664,o),
(216,669,o),
(220,661,cs),
(525,0,l),
(548,0,l),
(701,700,l),
(677,700,l),
(556,148,l),
(541,45,ls),
(540,37,o),
(532,35,o),
(529,42,cs),
(226,700,l),
(196,700,l),
(48,0,l)
);
},
{
closed = 1;
nodes = (
(692,-190,o),
(753,-128,o),
(778,-16,cs),
(896,522,l),
(798,522,l),
(793,500,l),
(866,500,l),
(756,-13,ls),
(735,-113,o),
(682,-173,o),
(556,-216,c),
(566,-233,l)
);
},
{
closed = 1;
nodes = (
(917,632,l),
(942,750,l),
(918,750,l),
(893,632,l)
);
}
);
width = 934;
},
{
anchors = (
{
name = bottom;
pos = (795,-265);
},
{
name = part.hook;
pos = (37,0);
},
{
name = top;
pos = (1020,750);
}
);
layerId = "8F4FB2AA-9411-450E-BE3E-D587D5B5F5D1";
shapes = (
{
closed = 1;
nodes = (
(139,0,l),
(222,388,l),
(236,513,ls),
(238,525,o),
(249,525,o),
(253,517,cs),
(512,0,l),
(608,0,l),
(757,700,l),
(649,700,l),
(566,312,l),
(552,187,ls),
(550,175,o),
(539,175,o),
(535,183,cs),
(276,700,l),
(180,700,l),
(31,0,l)
);
},
{
closed = 1;
nodes = (
(795,-210,o),
(892,-141,o),
(924,5,cs),
(1040,536,l),
(840,536,l),
(822,445,l),
(912,445,l),
(816,8,ls),
(798,-76,o),
(740,-122,o),
(654,-141,c),
(671,-236,l)
);
},
{
closed = 1;
nodes = (
(1049,632,l),
(1074,750,l),
(966,750,l),
(941,632,l)
);
}
);
width = 1056;
},
{
anchors = (
{
name = bottom;
pos = (908,-265);
},
{
name = part.hook;
pos = (18,0);
},
{
name = top;
pos = (1122,753);
}
);
layerId = "3917E251-E52F-4C58-ACE3-A75BE580C29C";
shapes = (
{
closed = 1;
nodes = (
(228,0,l),
(277,231,l),
(287,361,ls),
(288,379,o),
(302,384,o),
(310,369,cs),
(513,0,l),
(699,0,l),
(848,700,l),
(638,700,l),
(589,470,l),
(581,337,ls),
(579,316,o),
(565,312,o),
(555,331,cs),
(365,700,l),
(167,700,l),
(18,0,l)
);
},
{
closed = 1;
nodes = (
(888,-238,o),
(1036,-172,o),
(1071,-10,cs),
(1190,546,l),
(909,546,l),
(875,386,l),
(963,386,l),
(884,15,ls),
(873,-34,o),
(821,-62,o),
(753,-62,c),
(768,-235,l)
);
},
{
closed = 1;
nodes = (
(1202,618,l),
(1230,750,l),
(1013,750,l),
(985,618,l)
);
}
);
width = 1199;
}
);
unicode = 459;
},
{
color = 9;
glyphname = Nj.ss01;
lastChange = "2026-02-13 12:18:36 +0000";
layers = (
{
anchors = (
{
name = bottom;
pos = (695,-265);
},
{
name = part.hook;
pos = (48,0);
},
{
name = top;
pos = (920,703);
}
);
layerId = "62D20235-B81E-4649-AB7B-DFD33366F1EF";
shapes = (
{
closed = 1;
nodes = (
(72,0,l),
(191,561,l),
(208,657,ls),
(209,664,o),
(216,669,o),
(220,661,cs),
(525,0,l),
(548,0,l),
(701,700,l),
(677,700,l),
(556,148,l),
(541,45,ls),
(540,37,o),
(532,35,o),
(529,42,cs),
(226,700,l),
(196,700,l),
(48,0,l)
);
},
{
closed = 1;
nodes = (
(692,-190,o),
(753,-128,o),
(778,-16,cs),
(896,522,l),
(798,522,l),
(793,500,l),
(866,500,l),
(756,-13,ls),
(735,-113,o),
(682,-173,o),
(556,-216,c),
(566,-233,l)
);
},
{
closed = 1;
nodes = (
(917,632,l),
(942,750,l),
(918,750,l),
(893,632,l)
);
}
);
width = 934;
},
{
anchors = (
{
name = bottom;
pos = (795,-265);
},
{
name = part.hook;
pos = (37,0);
},
{
name = top;
pos = (1020,750);
}
);
layerId = "8F4FB2AA-9411-450E-BE3E-D587D5B5F5D1";
shapes = (
{
closed = 1;
nodes = (
(139,0,l),
(222,388,l),
(236,513,ls),
(238,525,o),
(249,525,o),
(253,517,cs),
(512,0,l),
(608,0,l),
(757,700,l),
(649,700,l),
(566,312,l),
(552,187,ls),
(550,175,o),
(539,175,o),
(535,183,cs),
(276,700,l),
(180,700,l),
(31,0,l)
);
},
{
closed = 1;
nodes = (
(795,-210,o),
(892,-141,o),
(924,5,cs),
(1040,536,l),
(840,536,l),
(822,445,l),
(912,445,l),
(816,8,ls),
(798,-76,o),
(740,-122,o),
(654,-141,c),
(671,-236,l)
);
},
{
closed = 1;
nodes = (
(1049,632,l),
(1074,750,l),
(966,750,l),
(941,632,l)
);
}
);
width = 1056;
},
{
anchors = (
{
name = bottom;
pos = (908,-265);
},
{
name = part.hook;
pos = (18,0);
},
{
name = top;
pos = (1122,753);
}
);
layerId = "3917E251-E52F-4C58-ACE3-A75BE580C29C";
shapes = (
{
closed = 1;
nodes = (
(228,0,l),
(277,231,l),
(287,361,ls),
(288,379,o),
(302,384,o),
(310,369,cs),
(513,0,l),
(699,0,l),
(848,700,l),
(638,700,l),
(589,470,l),
(581,337,ls),
(579,316,o),
(565,312,o),
(555,331,cs),
(365,700,l),
(167,700,l),
(18,0,l)
);
},
{
closed = 1;
nodes = (
(888,-238,o),
(1036,-172,o),
(1071,-10,cs),
(1190,546,l),
(909,546,l),
(875,386,l),
(963,386,l),
(884,15,ls),
(873,-34,o),
(821,-62,o),
(753,-62,c),
(768,-235,l)
);
},
{
closed = 1;
nodes = (
(1202,618,l),
(1230,750,l),
(1013,750,l),
(985,618,l)
);
}
);
width = 1199;
}
);
},
{
glyphname = Eng;
kernLeft = KO_H;
kernRight = KO_H;
lastChange = "2025-01-19 17:48:57 +0000";
layers = (
{
anchors = (
{
name = bottom;
pos = (301,0);
},
{
name = part.hook;
pos = (48,0);
},
{
name = top;
pos = (449,700);
}
);
background = {
shapes = (
{
ref = N;
}
);
};
layerId = "62D20235-B81E-4649-AB7B-DFD33366F1EF";
shapes = (
{
closed = 1;
nodes = (
(72,0,l),
(191,561,l),
(208,657,ls),
(209,664,o),
(216,669,o),
(220,661,cs),
(524,2,l),
(511,-59,ls),
(492,-147,o),
(424,-190,o),
(348,-190,cs),
(289,-190,o),
(241,-164,o),
(226,-141,c),
(216,-161,l),
(231,-182,o),
(281,-212,o),
(348,-212,cs),
(435,-212,o),
(514,-162,o),
(534,-65,cs),
(701,700,l),
(677,700,l),
(556,148,l),
(541,45,ls),
(540,37,o),
(532,35,o),
(529,42,cs),
(226,700,l),
(196,700,l),
(48,0,l)
);
}
);
width = 711;
},
{
anchors = (
{
name = bottom;
pos = (322,0);
},
{
name = part.hook;
pos = (31,0);
},
{
name = top;
pos = (471,700);
}
);
background = {
shapes = (
{
ref = N;
}
);
};
layerId = "8F4FB2AA-9411-450E-BE3E-D587D5B5F5D1";
shapes = (
{
closed = 1;
nodes = (
(139,0,l),
(222,388,l),
(236,513,ls),
(238,525,o),
(249,525,o),
(253,517,cs),
(500,24,l),
(493,-8,ls),
(478,-79,o),
(435,-109,o),
(375,-109,cs),
(329,-109,o),
(281,-93,o),
(256,-67,c),
(207,-149,l),
(243,-187,o),
(302,-212,o),
(375,-212,cs),
(499,-212,o),
(579,-143,o),
(603,-25,cs),
(757,700,l),
(649,700,l),
(566,312,l),
(552,187,ls),
(550,175,o),
(539,175,o),
(535,183,cs),
(276,700,l),
(180,700,l),
(31,0,l)
);
}
);
width = 753;
},
{
anchors = (
{
name = bottom;
pos = (359,0);
},
{
name = part.hook;
pos = (18,0);
},
{
name = top;
pos = (508,700);
}
);
background = {
shapes = (
{
ref = N;
}
);
};
layerId = "3917E251-E52F-4C58-ACE3-A75BE580C29C";
shapes = (
{
closed = 1;
nodes = (
(228,0,l),
(277,231,l),
(287,361,ls),
(288,379,o),
(302,384,o),
(310,369,cs),
(491,39,l),
(489,31,ls),
(481,3,o),
(452,-29,o),
(401,-29,cs),
(367,-29,o),
(339,-25,o),
(310,-6,c),
(214,-167,l),
(257,-195,o),
(327,-212,o),
(393,-212,cs),
(529,-212,o),
(666,-157,o),
(699,0,cs),
(848,700,l),
(638,700,l),
(589,470,l),
(581,337,ls),
(579,316,o),
(565,312,o),
(555,331,cs),
(365,700,l),
(167,700,l),
(18,0,l)
);
}
);
width = 833;
}
);
metricLeft = N;
metricRight = N;
unicode = 330;
},
{
glyphname = O;
kernLeft = KO_O;
kernRight = KO_O;
lastChange = "2025-01-20 07:45:44 +0000";
layers = (
{
anchors = (
{
name = bottom;
pos = (332,0);
},
{
name = center;
pos = (406,350);
},
{
name = ogonek;
pos = (536,38);
},
{
name = top;
pos = (480,700);
},
{
name = topleft;
pos = (114,700);
},
{
name = topright;
pos = (576,700);
}
);
background = {
shapes = (
{
pos = (28,4);
ref = o;
scale = (1.3277,1.3277);
}
);
};
layerId = "62D20235-B81E-4649-AB7B-DFD33366F1EF";
shapes = (
{
closed = 1;
nodes = (
(619,-12,o),
(731,239,o),
(731,426,cs),
(731,580,o),
(656,712,o),
(462,712,cs),
(191,712,o),
(79,462,o),
(79,275,cs),
(79,121,o),
(154,-12,o),
(348,-12,cs)
);
},
{
closed = 1;
nodes = (
(171,10,o),
(103,129,o),
(103,275,cs),
(103,455,o),
(209,690,o),
(462,690,cs),
(639,690,o),
(707,572,o),
(707,426,cs),
(707,246,o),
(601,10,o),
(348,10,cs)
);
}
);
width = 772;
},
{
anchors = (
{
name = bottom;
pos = (326,0);
},
{
name = center;
pos = (400,350);
},
{
name = ogonek;
pos = (551,48);
},
{
name = top;
pos = (475,700);
},
{
name = topleft;
pos = (112,700);
},
{
name = topright;
pos = (580,700);
}
);
background = {
shapes = (
{
pos = (4,4);
ref = o;
scale = (1.3,1.3);
}
);
};
layerId = "8F4FB2AA-9411-450E-BE3E-D587D5B5F5D1";
shapes = (
{
closed = 1;
nodes = (
(589,-12,o),
(740,206,o),
(740,418,cs),
(740,583,o),
(639,712,o),
(445,712,cs),
(210,712,o),
(62,495,o),
(62,284,cs),
(62,118,o),
(161,-12,o),
(349,-12,cs)
);
},
{
closed = 1;
nodes = (
(230,90,o),
(174,167,o),
(174,284,cs),
(174,450,o),
(283,610,o),
(445,610,cs),
(570,610,o),
(628,534,o),
(628,418,cs),
(628,251,o),
(516,90,o),
(349,90,cs)
);
}
);
width = 766;
},
{
anchors = (
{
name = bottom;
pos = (338,0);
},
{
name = center;
pos = (412,350);
},
{
name = ogonek;
pos = (547,26);
},
{
name = top;
pos = (467,700);
},
{
name = topleft;
pos = (111,700);
},
{
name = topright;
pos = (620,700);
}
);
background = {
shapes = (
{
pos = (13,3);
ref = o;
scale = (1.222,1.2705);
}
);
};
layerId = "3917E251-E52F-4C58-ACE3-A75BE580C29C";
shapes = (
{
closed = 1;
nodes = (
(620,-12,o),
(772,185,o),
(772,399,cs),
(772,593,o),
(634,712,o),
(455,712,cs),
(199,712,o),
(40,500,o),
(52,276,cs),
(61,108,o),
(186,-12,o),
(370,-12,cs)
);
},
{
closed = 1;
nodes = (
(307,168,o),
(255,214,o),
(255,297,cs),
(255,395,o),
(309,532,o),
(439,532,cs),
(523,532,o),
(568,485,o),
(568,397,cs),
(568,305,o),
(519,168,o),
(386,168,cs)
);
}
);
width = 791;
}
);
unicode = 79;
userData = {
KernOnName = O;
com.schriftgestaltung.Glyphs.ColorIndex = 3;
};
},
{
glyphname = Ohorn;
kernLeft = KO_O;
kernRight = KO_O;
lastChange = "2026-02-13 19:22:22 +0000";
layers = (
{
anchors = (
{
name = bottom;
pos = (332,0);
},
{
name = center;
pos = (406,350);
},
{
name = ogonek;
pos = (536,38);
},
{
name = top;
pos = (480,700);
},
{
name = topleft;
pos = (114,700);
},
{
name = topright;
pos = (682,784);
}
);
layerId = "62D20235-B81E-4649-AB7B-DFD33366F1EF";
shapes = (
{
closed = 1;
nodes = (
(619,-12,o),
(731,239,o),
(731,426,cs),
(731,580,o),
(656,712,o),
(462,712,cs),
(191,712,o),
(79,462,o),
(79,275,cs),
(79,121,o),
(154,-12,o),
(348,-12,cs)
);
},
{
closed = 1;
nodes = (
(171,10,o),
(103,129,o),
(103,275,cs),
(103,455,o),
(209,690,o),
(462,690,cs),
(639,690,o),
(707,572,o),
(707,426,cs),
(707,246,o),
(601,10,o),
(348,10,cs)
);
},
{
closed = 1;
nodes = (
(616,680,o),
(666,710,o),
(682,784,c),
(660,784,l),
(647,722,o),
(612,700,o),
(576,700,c),
(556,700,l),
(552,680,l),
(572,680,l)
);
}
);
width = 772;
},
{
anchors = (
{
name = bottom;
pos = (326,0);
},
{
name = center;
pos = (400,350);
},
{
name = ogonek;
pos = (551,48);
},
{
name = top;
pos = (475,700);
},
{
name = topleft;
pos = (112,700);
},
{
name = topright;
pos = (726,790);
}
);
layerId = "8F4FB2AA-9411-450E-BE3E-D587D5B5F5D1";
shapes = (
{
closed = 1;
nodes = (
(589,-12,o),
(740,206,o),
(740,418,cs),
(740,583,o),
(639,712,o),
(445,712,cs),
(210,712,o),
(62,495,o),
(62,284,cs),
(62,118,o),
(161,-12,o),
(349,-12,cs)
);
},
{
closed = 1;
nodes = (
(230,90,o),
(174,167,o),
(174,284,cs),
(174,450,o),
(283,610,o),
(445,610,cs),
(570,610,o),
(628,534,o),
(628,418,cs),
(628,251,o),
(516,90,o),
(349,90,cs)
);
},
{
closed = 1;
nodes = (
(630,640,o),
(701,673,o),
(726,790,c),
(651,790,l),
(635,714,o),
(609,700,o),
(580,700,c),
(532,700,l),
(519,640,l),
(567,640,l)
);
}
);
width = 766;
},
{
anchors = (
{
name = bottom;
pos = (338,0);
},
{
name = center;
pos = (412,350);
},
{
name = ogonek;
pos = (547,26);
},
{
name = top;
pos = (467,700);
},
{
name = topleft;
pos = (111,700);
},
{
name = topright;
pos = (772,794);
}
);
layerId = "3917E251-E52F-4C58-ACE3-A75BE580C29C";
shapes = (
{
closed = 1;
nodes = (
(620,-12,o),
(772,185,o),
(772,399,cs),
(772,593,o),
(634,712,o),
(455,712,cs),
(199,712,o),
(40,500,o),
(52,276,cs),
(61,108,o),
(186,-12,o),
(370,-12,cs)
);
},
{
closed = 1;
nodes = (
(307,168,o),
(255,214,o),
(255,297,cs),
(255,395,o),
(309,532,o),
(439,532,cs),
(523,532,o),
(568,485,o),
(568,397,cs),
(568,305,o),
(519,168,o),
(386,168,cs)
);
},
{
closed = 1;
nodes = (
(698,612,o),
(783,652,o),
(792,794,c),
(691,794,l),
(686,713,o),
(661,700,o),
(620,700,cs),
(540,700,l),
(521,612,l),
(621,612,l)
);
}
);
width = 791;
}
);
unicode = 416;
},
{
glyphname = Ohornacute;
kernLeft = KO_O;
lastChange = "2026-02-13 19:26:19 +0000";
layers = (
{
anchors = (
{
name = bottom;
pos = (332,0);
},
{
name = center;
pos = (406,350);
},
{
name = ogonek;
pos = (536,38);
},
{
name = top;
pos = (517,878);
},
{
name = topleft;
pos = (114,700);
},
{
name = topright;
pos = (682,784);
}
);
layerId = "62D20235-B81E-4649-AB7B-DFD33366F1EF";
shapes = (
{
closed = 1;
nodes = (
(619,-12,o),
(731,239,o),
(731,426,cs),
(731,580,o),
(656,712,o),
(462,712,cs),
(191,712,o),
(79,462,o),
(79,275,cs),
(79,121,o),
(154,-12,o),
(348,-12,cs)
);
},
{
closed = 1;
nodes = (
(171,10,o),
(103,129,o),
(103,275,cs),
(103,455,o),
(209,690,o),
(462,690,cs),
(639,690,o),
(707,572,o),
(707,426,cs),
(707,246,o),
(601,10,o),
(348,10,cs)
);
},
{
closed = 1;
nodes = (
(616,680,o),
(666,710,o),
(682,784,c),
(660,784,l),
(647,722,o),
(612,700,o),
(576,700,c),
(556,700,l),
(552,680,l),
(572,680,l)
);
},
{
closed = 1;
nodes = (
(512,796,l),
(644,938,l),
(614,938,l),
(490,796,l)
);
}
);
width = 772;
},
{
anchors = (
{
name = bottom;
pos = (326,0);
},
{
name = center;
pos = (400,350);
},
{
name = ogonek;
pos = (551,48);
},
{
name = top;
pos = (397,802);
},
{
name = topleft;
pos = (112,700);
},
{
name = topright;
pos = (726,790);
}
);
layerId = "8F4FB2AA-9411-450E-BE3E-D587D5B5F5D1";
shapes = (
{
closed = 1;
nodes = (
(589,-12,o),
(740,206,o),
(740,418,cs),
(740,583,o),
(639,712,o),
(445,712,cs),
(210,712,o),
(62,495,o),
(62,284,cs),
(62,118,o),
(161,-12,o),
(349,-12,cs)
);
},
{
closed = 1;
nodes = (
(230,90,o),
(174,167,o),
(174,284,cs),
(174,450,o),
(283,610,o),
(445,610,cs),
(570,610,o),
(628,534,o),
(628,418,cs),
(628,251,o),
(516,90,o),
(349,90,cs)
);
},
{
closed = 1;
nodes = (
(630,640,o),
(701,673,o),
(726,790,c),
(651,790,l),
(635,714,o),
(609,700,o),
(580,700,c),
(532,700,l),
(519,640,l),
(567,640,l)
);
},
{
closed = 1;
nodes = (
(535,782,l),
(662,924,l),
(543,924,l),
(444,782,l)
);
}
);
width = 766;
},
{
anchors = (
{
name = bottom;
pos = (338,0);
},
{
name = center;
pos = (412,350);
},
{
name = ogonek;
pos = (547,26);
},
{
name = top;
pos = (310,819);
},
{
name = topleft;
pos = (111,700);
},
{
name = topright;
pos = (772,794);
}
);
layerId = "3917E251-E52F-4C58-ACE3-A75BE580C29C";
shapes = (
{
closed = 1;
nodes = (
(620,-12,o),
(772,185,o),
(772,399,cs),
(772,593,o),
(634,712,o),
(455,712,cs),
(199,712,o),
(40,500,o),
(52,276,cs),
(61,108,o),
(186,-12,o),
(370,-12,cs)
);
},
{
closed = 1;
nodes = (
(307,168,o),
(255,214,o),
(255,297,cs),
(255,395,o),
(309,532,o),
(439,532,cs),
(523,532,o),
(568,485,o),
(568,397,cs),
(568,305,o),
(519,168,o),
(386,168,cs)
);
},
{
closed = 1;
nodes = (
(698,612,o),
(783,652,o),
(792,794,c),
(691,794,l),
(686,713,o),
(661,700,o),
(620,700,cs),
(540,700,l),
(521,612,l),
(621,612,l)
);
},
{
closed = 1;
nodes = (
(558,772,l),
(689,914,l),
(490,914,l),
(390,772,l)
);
}
);
width = 791;
}
);
unicode = 7898;
},
{
glyphname = Oslash;
lastChange = "2025-01-19 17:48:57 +0000";
layers = (
{
anchors = (
{
name = bottom;
pos = (332,0);
},
{
name = top;
pos = (480,700);
}
);
layerId = "62D20235-B81E-4649-AB7B-DFD33366F1EF";
shapes = (
{
closed = 1;
nodes = (
(619,-12,o),
(731,239,o),
(731,426,cs),
(731,580,o),
(656,713,o),
(462,713,cs),
(191,713,o),
(79,462,o),
(79,275,cs),
(79,121,o),
(154,-12,o),
(348,-12,cs)
);
},
{
closed = 1;
nodes = (
(134,0,l),
(705,700,l),
(678,700,l),
(107,0,l)
);
},
{
closed = 1;
nodes = (
(171,10,o),
(103,129,o),
(103,275,cs),
(103,455,o),
(209,691,o),
(462,691,cs),
(639,691,o),
(707,572,o),
(707,426,cs),
(707,246,o),
(601,10,o),
(348,10,cs)
);
}
);
width = 772;
},
{
anchors = (
{
name = bottom;
pos = (326,0);
},
{
name = top;
pos = (475,700);
}
);
layerId = "8F4FB2AA-9411-450E-BE3E-D587D5B5F5D1";
shapes = (
{
closed = 1;
nodes = (
(589,-12,o),
(740,206,o),
(740,418,cs),
(740,583,o),
(639,712,o),
(445,712,cs),
(210,712,o),
(62,495,o),
(62,284,cs),
(62,118,o),
(161,-12,o),
(349,-12,cs)
);
},
{
closed = 1;
nodes = (
(195,0,l),
(714,700,l),
(595,700,l),
(75,0,l)
);
},
{
closed = 1;
nodes = (
(230,90,o),
(174,167,o),
(174,284,cs),
(174,450,o),
(283,610,o),
(445,610,cs),
(570,610,o),
(628,534,o),
(628,418,cs),
(628,251,o),
(516,90,o),
(349,90,cs)
);
}
);
width = 766;
},
{
anchors = (
{
name = bottom;
pos = (338,0);
},
{
name = top;
pos = (487,700);
}
);
background = {
shapes = (
{
ref = O;
}
);
};
layerId = "3917E251-E52F-4C58-ACE3-A75BE580C29C";
shapes = (
{
closed = 1;
nodes = (
(620,-12,o),
(772,185,o),
(772,399,cs),
(772,593,o),
(634,712,o),
(455,712,cs),
(199,712,o),
(40,500,o),
(52,276,cs),
(61,108,o),
(186,-12,o),
(370,-12,cs)
);
},
{
closed = 1;
nodes = (
(247,0,l),
(779,700,l),
(599,700,l),
(67,0,l)
);
},
{
closed = 1;
nodes = (
(271,136,o),
(220,192,o),
(220,297,cs),
(220,406,o),
(290,558,o),
(458,558,cs),
(552,558,o),
(603,502,o),
(603,397,cs),
(603,288,o),
(533,136,o),
(365,136,cs)
);
}
);
width = 791;
}
);
metricLeft = O;
metricRight = O;
unicode = 216;
},
{
glyphname = OE;
kernLeft = KO_O;
kernRight = KO_E;
lastChange = "2025-01-19 17:48:57 +0000";
layers = (
{
anchors = (
{
name = bottom;
pos = (530,0);
},
{
name = top;
pos = (678,700);
}
);
background = {
shapes = (
{
pos = (1,0);
ref = O;
},
{
pos = (580,0);
ref = E;
}
);
};
layerId = "62D20235-B81E-4649-AB7B-DFD33366F1EF";
shapes = (
{
closed = 1;
nodes = (
(491,-12,o),
(595,60,o),
(652,161,cs),
(658,171,o),
(664,166,o),
(662,157,cs),
(628,0,l),
(1049,0,l),
(1053,22,l),
(657,22,l),
(725,339,l),
(1103,339,l),
(1107,361,l),
(729,361,l),
(797,678,l),
(1193,678,l),
(1197,700,l),
(776,700,l),
(733,493,ls),
(731,484,o),
(724,484,o),
(723,493,cs),
(709,618,o),
(622,713,o),
(462,713,cs),
(191,713,o),
(79,462,o),
(79,275,cs),
(79,121,o),
(154,-12,o),
(348,-12,cs)
);
},
{
closed = 1;
nodes = (
(171,10,o),
(103,129,o),
(103,275,cs),
(103,455,o),
(209,691,o),
(462,691,cs),
(639,691,o),
(707,572,o),
(707,426,cs),
(707,246,o),
(601,10,o),
(348,10,cs)
);
}
);
width = 1169;
},
{
anchors = (
{
name = bottom;
pos = (520,0);
},
{
name = top;
pos = (669,700);
}
);
layerId = "8F4FB2AA-9411-450E-BE3E-D587D5B5F5D1";
shapes = (
{
closed = 1;
nodes = (
(429,-12,o),
(498,19,o),
(555,70,cs),
(565,80,o),
(573,76,o),
(570,61,cs),
(557,0,l),
(1035,0,l),
(1057,103,l),
(686,103,l),
(728,301,l),
(1081,301,l),
(1102,399,l),
(749,399,l),
(791,597,l),
(1162,597,l),
(1184,700,l),
(706,700,l),
(688,617,ls),
(685,604,o),
(677,603,o),
(669,613,cs),
(626,673,o),
(551,712,o),
(445,712,cs),
(210,712,o),
(62,495,o),
(62,284,cs),
(62,118,o),
(161,-12,o),
(349,-12,cs)
);
},
{
closed = 1;
nodes = (
(230,90,o),
(174,167,o),
(174,284,cs),
(174,450,o),
(283,610,o),
(445,610,cs),
(570,610,o),
(628,534,o),
(628,418,cs),
(628,251,o),
(516,90,o),
(349,90,cs)
);
}
);
width = 1153;
},
{
anchors = (
{
name = bottom;
pos = (512,0);
},
{
name = top;
pos = (661,700);
}
);
background = {
anchors = (
{
name = bottom;
pos = (325,0);
},
{
name = center;
pos = (419,350);
},
{
name = ogonek;
pos = (576,0);
},
{
name = top;
pos = (325,700);
},
{
name = topleft;
pos = (45,700);
},
{
name = topright;
pos = (841,700);
}
);
};
layerId = "3917E251-E52F-4C58-ACE3-A75BE580C29C";
shapes = (
{
closed = 1;
nodes = (
(394,-12,o),
(443,6,o),
(485,38,cs),
(499,50,o),
(509,45,o),
(505,26,cs),
(500,0,l),
(1029,0,l),
(1064,165,l),
(735,165,l),
(758,273,l),
(1049,273,l),
(1082,427,l),
(791,427,l),
(814,535,l),
(1143,535,l),
(1178,700,l),
(649,700,l),
(645,679,ls),
(642,664,o),
(632,661,o),
(619,670,cs),
(580,697,o),
(522,712,o),
(455,712,cs),
(199,712,o),
(40,500,o),
(52,276,cs),
(61,108,o),
(186,-12,o),
(338,-12,cs)
);
},
{
closed = 1;
nodes = (
(307,168,o),
(255,214,o),
(255,297,cs),
(255,395,o),
(309,532,o),
(439,532,cs),
(523,532,o),
(568,485,o),
(568,397,cs),
(568,305,o),
(519,168,o),
(386,168,cs)
);
}
);
width = 1139;
}
);
metricLeft = O;
metricRight = E;
unicode = 338;
userData = {
com.schriftgestaltung.Glyphs.leftMetricsKey = O;
com.schriftgestaltung.Glyphs.rightMetricsKey = E;
};
},
{
glyphname = P;
kernLeft = KO_H;
kernRight = KO_P;
lastChange = "2025-01-20 07:45:44 +0000";
layers = (
{
anchors = (
{
name = bottom;
pos = (209,0);
},
{
name = top;
pos = (357,700);
}
);
layerId = "62D20235-B81E-4649-AB7B-DFD33366F1EF";
shapes = (
{
closed = 1;
nodes = (
(72,0,l),
(126,254,l),
(332,254,ls),
(506,254,o),
(639,364,o),
(639,520,cs),
(639,626,o),
(557,700,o),
(416,700,cs),
(196,700,l),
(48,0,l)
);
},
{
closed = 1;
nodes = (
(216,678,l),
(414,678,ls),
(540,678,o),
(615,617,o),
(615,519,cs),
(615,371,o),
(488,276,o),
(330,276,cs),
(130,276,l)
);
}
);
width = 641;
},
{
anchors = (
{
name = bottom;
pos = (245,0);
},
{
name = top;
pos = (394,700);
}
);
background = {
shapes = (
{
closed = 1;
nodes = (
(272,606,l),
(426,606,ls),
(516,606,o),
(585,559,o),
(563,454,cs),
(540,348,o),
(451,302,o),
(361,302,cs),
(207,302,l)
);
},
{
closed = 1;
nodes = (
(361,208,ls),
(497,208,o),
(636,284,o),
(669,434,cs),
(701,589,o),
(598,700,o),
(426,700,cs),
(182,700,l),
(77,208,l)
);
}
);
};
layerId = "8F4FB2AA-9411-450E-BE3E-D587D5B5F5D1";
shapes = (
{
closed = 1;
nodes = (
(143,0,l),
(187,207,l),
(348,207,ls),
(539,207,o),
(675,330,o),
(675,486,cs),
(675,622,o),
(570,700,o),
(435,700,cs),
(180,700,l),
(31,0,l)
);
},
{
closed = 1;
nodes = (
(272,606,l),
(426,606,ls),
(505,606,o),
(567,570,o),
(567,491,cs),
(567,396,o),
(493,302,o),
(361,302,cs),
(207,302,l)
);
}
);
width = 679;
},
{
anchors = (
{
name = bottom;
pos = (259,0);
},
{
name = top;
pos = (408,700);
}
);
layerId = "3917E251-E52F-4C58-ACE3-A75BE580C29C";
shapes = (
{
closed = 1;
nodes = (
(228,0,l),
(264,169,l),
(409,169,ls),
(594,169,o),
(752,285,o),
(752,461,cs),
(752,602,o),
(640,700,o),
(460,700,cs),
(167,700,l),
(18,0,l)
);
},
{
closed = 1;
nodes = (
(341,530,l),
(450,530,ls),
(512,530,o),
(548,502,o),
(548,450,cs),
(548,383,o),
(484,339,o),
(409,339,cs),
(300,339,l)
);
}
);
width = 756;
}
);
metricLeft = H;
unicode = 80;
userData = {
KernOnName = P;
com.schriftgestaltung.Glyphs.ColorIndex = 3;
com.schriftgestaltung.Glyphs.layer.leftMetricsKey = "==H";
com.schriftgestaltung.Glyphs.leftMetricsKey = H;
};
},
{
glyphname = Thorn;
kernLeft = KO_H;
lastChange = "2025-01-19 17:48:57 +0000";
layers = (
{
anchors = (
{
name = bottom;
pos = (266,0);
},
{
name = top;
pos = (414,700);
}
);
background = {
anchors = (
{
name = bottom;
pos = (277,0);
},
{
name = top;
pos = (277,700);
}
);
};
layerId = "62D20235-B81E-4649-AB7B-DFD33366F1EF";
shapes = (
{
closed = 1;
nodes = (
(72,0,l),
(100,132,l),
(312,132,ls),
(486,132,o),
(619,242,o),
(619,398,cs),
(619,504,o),
(537,578,o),
(396,578,cs),
(194,578,l),
(220,700,l),
(196,700,l),
(48,0,l)
);
},
{
closed = 1;
nodes = (
(190,556,l),
(394,556,ls),
(520,556,o),
(595,495,o),
(595,397,cs),
(595,249,o),
(468,154,o),
(310,154,cs),
(104,154,l)
);
}
);
width = 648;
},
{
anchors = (
{
name = bottom;
pos = (283,0);
},
{
name = top;
pos = (432,700);
}
);
layerId = "8F4FB2AA-9411-450E-BE3E-D587D5B5F5D1";
shapes = (
{
closed = 1;
nodes = (
(143,0,l),
(166,107,l),
(345,107,ls),
(536,107,o),
(672,230,o),
(672,386,cs),
(672,522,o),
(567,600,o),
(432,600,cs),
(271,600,l),
(292,700,l),
(180,700,l),
(31,0,l)
);
},
{
closed = 1;
nodes = (
(250,505,l),
(423,506,ls),
(502,506,o),
(564,470,o),
(564,391,cs),
(564,296,o),
(490,202,o),
(358,202,cs),
(186,202,l)
);
}
);
width = 697;
},
{
anchors = (
{
name = bottom;
pos = (320,0);
},
{
name = top;
pos = (469,700);
}
);
background = {
anchors = (
{
name = bottom;
pos = (298,0);
},
{
name = top;
pos = (298,700);
}
);
};
layerId = "3917E251-E52F-4C58-ACE3-A75BE580C29C";
shapes = (
{
closed = 1;
nodes = (
(228,0,l),
(247,89,l),
(429,89,ls),
(614,89,o),
(772,205,o),
(772,381,cs),
(772,522,o),
(660,620,o),
(480,620,cs),
(360,620,l),
(377,700,l),
(167,700,l),
(18,0,l)
);
},
{
closed = 1;
nodes = (
(324,450,l),
(470,450,ls),
(532,450,o),
(568,422,o),
(568,370,cs),
(568,303,o),
(504,259,o),
(429,259,cs),
(283,259,l)
);
}
);
width = 793;
}
);
metricLeft = I;
metricRight = "=I/2";
unicode = 222;
userData = {
com.schriftgestaltung.Glyphs.leftMetricsKey = H;
};
},
{
glyphname = Q;
kernLeft = KO_O;
kernRight = KO_O;
lastChange = "2025-01-20 07:45:44 +0000";
layers = (
{
anchors = (
{
name = bottom;
pos = (332,0);
},
{
name = top;
pos = (480,700);
}
);
background = {
shapes = (
{
pos = (1,0);
ref = O;
}
);
};
layerId = "62D20235-B81E-4649-AB7B-DFD33366F1EF";
shapes = (
{
closed = 1;
nodes = (
(539,-70,l),
(495,17,l),
(660,88,o),
(731,278,o),
(731,426,cs),
(731,580,o),
(656,713,o),
(462,713,cs),
(191,713,o),
(79,462,o),
(79,275,cs),
(79,121,o),
(154,-12,o),
(348,-12,cs),
(395,-12,o),
(437,-5,o),
(474,9,c),
(521,-79,l)
);
},
{
closed = 1;
nodes = (
(171,10,o),
(103,129,o),
(103,275,cs),
(103,455,o),
(209,691,o),
(462,691,cs),
(639,691,o),
(707,572,o),
(707,426,cs),
(707,281,o),
(639,100,o),
(486,33,c),
(380,233,l),
(360,224,l),
(448,58,l),
(461,38,ls),
(467,29,o),
(465,25,o),
(455,22,cs),
(423,12,o),
(387,10,o),
(348,10,cs)
);
}
);
width = 772;
},
{
anchors = (
{
name = bottom;
pos = (326,0);
},
{
name = top;
pos = (475,700);
}
);
background = {
shapes = (
{
pos = (38,0);
ref = O;
}
);
};
layerId = "8F4FB2AA-9411-450E-BE3E-D587D5B5F5D1";
shapes = (
{
closed = 1;
nodes = (
(557,-52,l),
(518,29,l),
(658,102,o),
(740,262,o),
(740,418,cs),
(740,583,o),
(639,712,o),
(445,712,cs),
(210,712,o),
(62,495,o),
(62,284,cs),
(62,118,o),
(161,-12,o),
(349,-12,cs),
(377,-12,o),
(404,-9,o),
(429,-3,c),
(471,-90,l)
);
},
{
closed = 1;
nodes = (
(229,85,o),
(174,164,o),
(174,284,cs),
(174,450,o),
(283,610,o),
(445,610,cs),
(570,610,o),
(628,534,o),
(628,418,cs),
(628,295,o),
(570,174,o),
(474,118,c),
(400,273,l),
(314,234,l),
(365,129,l),
(389,101,ls),
(395,95,o),
(393,88,o),
(386,87,cs),
(375,85,o),
(365,85,o),
(347,85,cs)
);
}
);
width = 766;
},
{
anchors = (
{
name = bottom;
pos = (338,0);
},
{
name = top;
pos = (487,700);
}
);
background = {
shapes = (
{
pos = (38,0);
ref = O;
}
);
};
layerId = "3917E251-E52F-4C58-ACE3-A75BE580C29C";
shapes = (
{
closed = 1;
nodes = (
(626,-34,l),
(588,49,l),
(705,123,o),
(772,257,o),
(772,399,cs),
(772,593,o),
(634,712,o),
(455,712,cs),
(199,712,o),
(40,500,o),
(52,276,cs),
(61,108,o),
(186,-12,o),
(370,-12,cs),
(391,-12,o),
(412,-11,o),
(432,-8,c),
(473,-104,l)
);
},
{
closed = 1;
nodes = (
(303,138,o),
(255,194,o),
(255,297,cs),
(255,395,o),
(309,532,o),
(439,532,cs),
(523,532,o),
(568,485,o),
(568,397,cs),
(568,334,o),
(554,255,o),
(520,195,c),
(472,312,l),
(326,243,l),
(352,180,l),
(381,151,ls),
(385,147,o),
(385,138,o),
(376,138,cs),
(374,138,o),
(372,138,o),
(370,138,cs)
);
}
);
width = 791;
}
);
metricLeft = O;
metricRight = O;
unicode = 81;
userData = {
KernOnName = Q;
com.schriftgestaltung.Glyphs.ColorIndex = 3;
com.schriftgestaltung.Glyphs.layer.leftMetricsKey = "==O";
com.schriftgestaltung.Glyphs.layer.rightMetricsKey = "==O";
com.schriftgestaltung.Glyphs.leftMetricsKey = O;
com.schriftgestaltung.Glyphs.rightMetricsKey = O;
};
},
{
glyphname = R;
kernLeft = KO_H;
kernRight = KO_R;
lastChange = "2025-01-20 07:45:44 +0000";
layers = (
{
anchors = (
{
name = bottom;
pos = (275,0);
},
{
name = top;
pos = (387,700);
}
);
background = {
shapes = (
{
closed = 1;
nodes = (
(196,700,l),
(445,700,ls),
(581,700,o),
(655,634,o),
(655,522,cs),
(655,410,o),
(559,299,o),
(389,299,cs),
(111,299,l)
);
},
{
closed = 1;
nodes = (
(389,321,ls),
(544,321,o),
(631,421,o),
(631,522,cs),
(631,622,o),
(568,678,o),
(445,678,cs),
(216,678,l),
(140,321,l)
);
}
);
};
layerId = "62D20235-B81E-4649-AB7B-DFD33366F1EF";
shapes = (
{
closed = 1;
nodes = (
(72,0,l),
(135,299,l),
(396,299,l),
(489,0,l),
(514,0,l),
(441,235,l),
(417,284,ls),
(412,294,o),
(419,301,o),
(430,302,cs),
(568,320,o),
(654,414,o),
(654,522,cs),
(654,633,o),
(579,700,o),
(450,700,cs),
(196,700,l),
(48,0,l)
);
},
{
closed = 1;
nodes = (
(216,678,l),
(445,678,ls),
(568,678,o),
(631,622,o),
(631,522,cs),
(631,421,o),
(544,321,o),
(389,321,cs),
(140,321,l)
);
}
);
width = 663;
},
{
anchors = (
{
name = bottom;
pos = (300,0);
},
{
name = top;
pos = (411,700);
}
);
background = {
shapes = (
{
pos = (-12,0);
ref = P;
},
{
closed = 1;
nodes = (
(272,606,l),
(446,606,ls),
(549,606,o),
(591,540,o),
(577,475,cs),
(564,414,o),
(501,354,o),
(392,354,cs),
(218,354,l)
);
},
{
closed = 1;
nodes = (
(392,260,ls),
(540,260,o),
(659,345,o),
(683,455,cs),
(711,586,o),
(612,700,o),
(446,700,cs),
(182,700,l),
(88,260,l)
);
}
);
};
layerId = "8F4FB2AA-9411-450E-BE3E-D587D5B5F5D1";
shapes = (
{
closed = 1;
nodes = (
(143,0,l),
(198,259,l),
(369,259,l),
(462,0,l),
(581,0,l),
(507,203,l),
(474,251,ls),
(468,260,o),
(473,268,o),
(485,271,cs),
(619,306,o),
(687,406,o),
(687,501,cs),
(687,604,o),
(607,700,o),
(446,700,cs),
(180,700,l),
(31,0,l)
);
},
{
closed = 1;
nodes = (
(272,606,l),
(446,606,ls),
(536,606,o),
(580,555,o),
(580,499,cs),
(580,417,o),
(496,354,o),
(392,354,cs),
(218,354,l)
);
}
);
width = 695;
},
{
anchors = (
{
name = bottom;
pos = (345,0);
},
{
name = top;
pos = (430,700);
}
);
background = {
shapes = (
{
closed = 1;
nodes = (
(341,530,l),
(460,530,ls),
(517,530,o),
(543,500,o),
(543,466,cs),
(543,423,o),
(500,373,o),
(426,373,cs),
(307,373,l)
);
},
{
closed = 1;
nodes = (
(426,203,ls),
(602,203,o),
(749,321,o),
(749,466,cs),
(749,602,o),
(620,700,o),
(460,700,cs),
(169,700,l),
(61,203,l)
);
}
);
};
layerId = "3917E251-E52F-4C58-ACE3-A75BE580C29C";
shapes = (
{
closed = 1;
nodes = (
(228,0,l),
(275,219,l),
(381,219,l),
(444,0,l),
(659,0,l),
(608,152,l),
(565,221,ls),
(560,229,o),
(561,242,o),
(573,246,cs),
(686,281,o),
(749,375,o),
(749,466,cs),
(749,584,o),
(659,700,o),
(451,700,cs),
(167,700,l),
(18,0,l)
);
},
{
closed = 1;
nodes = (
(341,530,l),
(460,530,ls),
(517,530,o),
(543,500,o),
(543,466,cs),
(543,420,o),
(505,373,o),
(426,373,cs),
(307,373,l)
);
}
);
width = 757;
}
);
metricLeft = H;
unicode = 82;
userData = {
KernOnName = R;
com.schriftgestaltung.Glyphs.ColorIndex = 3;
com.schriftgestaltung.Glyphs.layer.leftMetricsKey = "==H";
com.schriftgestaltung.Glyphs.leftMetricsKey = H;
};
},
{
glyphname = S;
kernLeft = KO_S;
kernRight = KO_S;
lastChange = "2025-01-20 07:45:44 +0000";
layers = (
{
anchors = (
{
name = bottom;
pos = (245,0);
},
{
name = top;
pos = (393,700);
}
);
background = {
anchors = (
{
name = bottom;
pos = (211,0);
},
{
name = top;
pos = (354,675);
}
);
shapes = (
{
attr = {
strokeHeight = 22;
strokeWidth = 24;
};
closed = 0;
nodes = (
(587,619,l),
(531,672,o),
(473,697,o),
(378,697,cs),
(235,697,o),
(139,624,o),
(139,525,cs),
(139,426,o),
(219,394,o),
(308,371,cs),
(341,362,ls),
(462,330,o),
(507,268,o),
(507,187,cs),
(507,56,o),
(368,0,o),
(258,0,cs),
(157,0,o),
(90,29,o),
(23,86,cs)
);
}
);
};
layerId = "62D20235-B81E-4649-AB7B-DFD33366F1EF";
shapes = (
{
closed = 1;
nodes = (
(401,-12,o),
(519,61,o),
(519,202,cs),
(519,282,o),
(466,339,o),
(357,369,cs),
(291,387,ls),
(201,412,o),
(151,444,o),
(151,517,cs),
(151,598,o),
(221,686,o),
(378,686,cs),
(468,686,o),
(528,658,o),
(579,612,c),
(589,631,l),
(542,677,o),
(474,708,o),
(381,708,cs),
(204,708,o),
(127,609,o),
(127,517,cs),
(127,428,o),
(188,391,o),
(286,364,cs),
(352,346,ls),
(449,320,o),
(495,268,o),
(495,200,cs),
(495,71,o),
(380,10,o),
(256,10,cs),
(172,10,o),
(86,38,o),
(32,93,c),
(22,75,l),
(74,20,o),
(161,-12,o),
(254,-12,cs)
);
}
);
width = 599;
},
{
anchors = (
{
name = bottom;
pos = (264,0);
},
{
name = top;
pos = (413,700);
}
);
background = {
anchors = (
{
name = bottom;
pos = (249,0);
},
{
name = top;
pos = (395,687);
}
);
shapes = (
{
attr = {
strokeHeight = 102;
strokeWidth = 111;
};
closed = 0;
nodes = (
(614,605,l),
(555,633,o),
(480,661,o),
(396,661,cs),
(232,661,o),
(156,600,o),
(156,505,cs),
(156,435,o),
(219,394,o),
(315,370,cs),
(348,361,ls),
(463,328,o),
(502,283,o),
(502,210,cs),
(502,107,o),
(402,40,o),
(266,40,cs),
(149,40,o),
(84,71,o),
(34,98,cs)
);
}
);
};
layerId = "8F4FB2AA-9411-450E-BE3E-D587D5B5F5D1";
shapes = (
{
closed = 1;
nodes = (
(421,-10,o),
(557,70,o),
(557,218,cs),
(557,318,o),
(492,375,o),
(352,413,cs),
(314,424,ls),
(246,444,o),
(213,465,o),
(213,510,cs),
(213,556,o),
(248,611,o),
(387,611,cs),
(461,611,o),
(536,590,o),
(583,556,c),
(634,645,l),
(576,682,o),
(502,711,o),
(399,711,cs),
(197,711,o),
(102,612,o),
(102,502,cs),
(102,403,o),
(178,353,o),
(287,324,cs),
(325,314,ls),
(417,289,o),
(444,258,o),
(445,207,cs),
(445,129,o),
(368,91,o),
(268,91,cs),
(190,91,o),
(118,111,o),
(63,151,c),
(10,56,l),
(70,13,o),
(158,-10,o),
(254,-10,cs)
);
}
);
width = 621;
},
{
anchors = (
{
name = bottom;
pos = (287,0);
},
{
name = top;
pos = (426,700);
}
);
background = {
anchors = (
{
name = bottom;
pos = (271,0);
},
{
name = top;
pos = (420,700);
}
);
shapes = (
{
attr = {
strokeHeight = 175;
strokeWidth = 205;
};
closed = 0;
nodes = (
(646,573,l),
(593,603,o),
(513,624,o),
(419,624,cs),
(298,624,o),
(183,570,o),
(183,474,cs),
(183,404,o),
(217,376,o),
(348,355,cs),
(367,352,ls),
(507,330,o),
(517,289,o),
(517,231,cs),
(517,113,o),
(381,76,o),
(270,76,cs),
(175,76,o),
(96,106,o),
(31,140,cs)
);
}
);
};
layerId = "3917E251-E52F-4C58-ACE3-A75BE580C29C";
shapes = (
{
closed = 1;
nodes = (
(497,-10,o),
(622,96,o),
(622,243,cs),
(621,360,o),
(532,421,o),
(410,439,cs),
(336,450,ls),
(298,456,o),
(286,466,o),
(286,483,cs),
(286,521,o),
(359,537,o),
(422,537,cs),
(501,537,o),
(551,521,o),
(603,494,c),
(696,649,l),
(642,682,o),
(528,712,o),
(418,712,cs),
(235,712,o),
(81,615,o),
(81,463,cs),
(81,357,o),
(171,290,o),
(294,272,cs),
(355,263,ls),
(401,256,o),
(417,242,o),
(417,222,cs),
(417,183,o),
(349,166,o),
(285,166,cs),
(221,166,o),
(142,183,o),
(73,220,c),
(-9,59,l),
(53,22,o),
(164,-10,o),
(260,-10,cs)
);
}
);
width = 670;
}
);
unicode = 83;
userData = {
KernOnName = S;
com.schriftgestaltung.Glyphs.ColorIndex = 3;
com.typemytype.robofont.layerData = {
background = {
anchors = (
);
components = (
);
contours = (
{
points = (
{
smooth = 0;
x = 389;
y = 562;
},
{
smooth = 0;
x = 346;
y = 574;
},
{
segmentType = curve;
smooth = 1;
x = 290;
y = 574;
},
{
smooth = 0;
x = 204;
y = 574;
},
{
smooth = 0;
x = 174;
y = 537;
},
{
segmentType = curve;
smooth = 1;
x = 174;
y = 499;
},
{
smooth = 0;
x = 174;
y = 463;
},
{
smooth = 0;
x = 196;
y = 444;
},
{
segmentType = curve;
smooth = 1;
x = 238;
y = 441;
},
{
segmentType = line;
smooth = 1;
x = 311;
y = 435;
},
{
smooth = 0;
x = 434;
y = 425;
},
{
smooth = 0;
x = 509;
y = 341;
},
{
segmentType = curve;
smooth = 1;
x = 509;
y = 224;
},
{
smooth = 0;
x = 509;
y = 82;
},
{
smooth = 0;
x = 419;
y = -10;
},
{
segmentType = curve;
smooth = 1;
x = 249;
y = -10;
},
{
smooth = 0;
x = 154;
y = -10;
},
{
smooth = 0;
x = 93;
y = 11;
},
{
segmentType = curve;
smooth = 0;
x = 23;
y = 64;
},
{
segmentType = line;
smooth = 0;
x = 69;
y = 190;
},
{
smooth = 0;
x = 135;
y = 143;
},
{
smooth = 0;
x = 175;
y = 128;
},
{
segmentType = curve;
smooth = 1;
x = 245;
y = 128;
},
{
smooth = 0;
x = 318;
y = 128;
},
{
smooth = 0;
x = 359;
y = 160;
},
{
segmentType = curve;
smooth = 1;
x = 359;
y = 218;
},
{
smooth = 0;
x = 359;
y = 259;
},
{
smooth = 0;
x = 335;
y = 287;
},
{
segmentType = curve;
smooth = 1;
x = 280;
y = 292;
},
{
segmentType = line;
smooth = 1;
x = 210;
y = 298;
},
{
smooth = 0;
x = 103;
y = 307;
},
{
smooth = 0;
x = 24;
y = 377;
},
{
segmentType = curve;
smooth = 1;
x = 24;
y = 489;
},
{
smooth = 0;
x = 24;
y = 615;
},
{
smooth = 0;
x = 112;
y = 712;
},
{
segmentType = curve;
smooth = 1;
x = 285;
y = 712;
},
{
smooth = 0;
x = 378;
y = 712;
},
{
smooth = 0;
x = 435;
y = 686;
},
{
segmentType = curve;
smooth = 0;
x = 483;
y = 655;
},
{
segmentType = line;
smooth = 0;
x = 439;
y = 537;
}
);
}
);
lib = {
};
name = S;
unicodes = (
);
width = 503;
};
};
};
},
{
glyphname = Germandbls;
lastChange = "2025-01-19 17:48:57 +0000";
layers = (
{
anchors = (
{
name = bottom;
pos = (359,0);
},
{
name = top;
pos = (507,700);
}
);
layerId = "62D20235-B81E-4649-AB7B-DFD33366F1EF";
shapes = (
{
closed = 1;
nodes = (
(516,-8,o),
(630,82,o),
(630,211,cs),
(630,321,o),
(549,386,o),
(382,390,c),
(756,692,l),
(757,700,l),
(233,700,l),
(85,0,l),
(106,0,l),
(249,678,l),
(697,678,ls),
(703,678,o),
(707,674,o),
(697,667,cs),
(648,633,l),
(342,380,l),
(340,369,l),
(373,369,ls),
(531,369,o),
(606,308,o),
(606,210,cs),
(606,90,o),
(499,14,o),
(373,14,cs),
(314,14,o),
(262,29,o),
(231,56,c),
(215,37,l),
(253,9,o),
(305,-8,o),
(368,-8,cs)
);
}
);
width = 726;
},
{
anchors = (
{
name = bottom;
pos = (383,0);
},
{
name = top;
pos = (532,700);
}
);
background = {
shapes = (
{
closed = 1;
nodes = (
(164,0,l),
(313,700,l),
(199,700,l),
(50,0,l)
);
},
{
closed = 1;
nodes = (
(572,-8,o),
(725,52,o),
(758,209,cs),
(789,353,o),
(686,415,o),
(478,418,c),
(502,381,l),
(818,632,l),
(833,700,l),
(261,700,l),
(241,606,l),
(660,606,ls),
(669,606,o),
(673,600,o),
(662,593,cs),
(614,561,l),
(395,385,l),
(381,321,l),
(469,321,ls),
(611,321,o),
(665,277,o),
(650,207,cs),
(636,139,o),
(563,93,o),
(452,93,cs),
(397,93,o),
(350,108,o),
(316,139,c),
(259,47,l),
(303,15,o),
(362,-8,o),
(435,-8,cs)
);
}
);
};
layerId = "8F4FB2AA-9411-450E-BE3E-D587D5B5F5D1";
shapes = (
{
closed = 1;
nodes = (
(628,-8,o),
(758,94,o),
(758,220,cs),
(758,331,o),
(674,396,o),
(561,410,c),
(818,632,l),
(833,700,l),
(199,700,l),
(50,0,l),
(164,0,l),
(293,606,l),
(640,606,ls),
(649,606,o),
(653,600,o),
(642,593,cs),
(594,561,l),
(395,385,l),
(381,321,l),
(502,321,ls),
(585,321,o),
(650,288,o),
(650,220,cs),
(650,155,o),
(583,93,o),
(463,93,cs),
(404,93,o),
(353,108,o),
(316,139,c),
(259,47,l),
(306,15,o),
(368,-8,o),
(446,-8,cs)
);
}
);
width = 820;
},
{
anchors = (
{
name = bottom;
pos = (402,0);
},
{
name = top;
pos = (551,700);
}
);
background = {
shapes = (
{
closed = 1;
nodes = (
(231,0,l),
(380,700,l),
(170,700,l),
(21,0,l)
);
},
{
closed = 1;
nodes = (
(618,-11,o),
(796,63,o),
(829,218,cs),
(852,327,o),
(766,414,o),
(607,420,c),
(608,377,l),
(860,559,l),
(890,700,l),
(277,700,l),
(241,530,l),
(589,530,ls),
(603,530,o),
(608,516,o),
(592,507,cs),
(553,485,l),
(432,410,l),
(408,302,l),
(513,302,ls),
(610,302,o),
(657,276,o),
(648,234,cs),
(638,187,o),
(583,164,o),
(498,164,cs),
(453,164,o),
(415,170,o),
(374,193,c),
(279,27,l),
(334,-4,o),
(400,-11,o),
(479,-11,cs)
);
}
);
};
layerId = "3917E251-E52F-4C58-ACE3-A75BE580C29C";
shapes = (
{
closed = 1;
nodes = (
(664,-11,o),
(822,91,o),
(822,245,cs),
(822,331,o),
(764,396,o),
(667,415,c),
(860,559,l),
(890,700,l),
(170,700,l),
(21,0,l),
(231,0,l),
(344,530,l),
(561,530,ls),
(575,530,o),
(580,516,o),
(564,507,cs),
(525,485,l),
(432,410,l),
(408,302,l),
(520,302,ls),
(586,302,o),
(624,282,o),
(624,245,cs),
(624,196,o),
(566,164,o),
(498,164,cs),
(453,164,o),
(415,170,o),
(374,193,c),
(279,27,l),
(334,-4,o),
(400,-11,o),
(479,-11,cs)
);
}
);
width = 869;
}
);
metricLeft = I;
metricRight = B;
unicode = 7838;
},
{
glyphname = T;
kernLeft = KO_T;
kernRight = KO_T;
lastChange = "2025-01-20 07:45:44 +0000";
layers = (
{
anchors = (
{
name = bottom;
pos = (211,0);
},
{
name = bottomright;
pos = (224,0);
},
{
name = center;
pos = (285,350);
},
{
name = top;
pos = (359,700);
}
);
layerId = "62D20235-B81E-4649-AB7B-DFD33366F1EF";
shapes = (
{
closed = 1;
nodes = (
(224,0,l),
(367,678,l),
(616,678,l),
(620,700,l),
(98,700,l),
(94,678,l),
(342,678,l),
(199,0,l)
);
}
);
width = 532;
},
{
anchors = (
{
name = bottom;
pos = (246,0);
},
{
name = bottomright;
pos = (305,0);
},
{
name = center;
pos = (321,350);
},
{
name = top;
pos = (396,700);
}
);
layerId = "8F4FB2AA-9411-450E-BE3E-D587D5B5F5D1";
shapes = (
{
closed = 1;
nodes = (
(305,0,l),
(432,597,l),
(672,597,l),
(694,700,l),
(99,700,l),
(77,597,l),
(316,597,l),
(189,0,l)
);
}
);
width = 609;
},
{
anchors = (
{
name = bottom;
pos = (271,0);
},
{
name = bottomright;
pos = (376,0);
},
{
name = center;
pos = (345,350);
},
{
name = top;
pos = (420,700);
}
);
layerId = "3917E251-E52F-4C58-ACE3-A75BE580C29C";
shapes = (
{
closed = 1;
nodes = (
(376,0,l),
(487,520,l),
(700,520,l),
(738,700,l),
(101,700,l),
(63,520,l),
(276,520,l),
(165,0,l)
);
}
);
width = 657;
}
);
unicode = 84;
userData = {
KernOnName = T;
com.schriftgestaltung.Glyphs.ColorIndex = 3;
};
},
{
color = 4;
glyphname = Tbar;
lastChange = "2026-03-12 14:38:27 +0000";
layers = (
{
anchors = (
{
name = bottom;
pos = (211,0);
},
{
name = bottomright;
pos = (224,0);
},
{
name = center;
pos = (285,350);
},
{
name = top;
pos = (359,700);
}
);
background = {
anchors = (
{
name = bottom;
pos = (211,0);
},
{
name = bottomright;
pos = (224,0);
},
{
name = center;
pos = (285,350);
},
{
name = top;
pos = (359,700);
}
);
shapes = (
{
closed = 1;
nodes = (
(224,0,l),
(367,678,l),
(616,678,l),
(620,700,l),
(98,700,l),
(94,678,l),
(342,678,l),
(199,0,l)
);
},
{
closed = 1;
nodes = (
(408,340,l),
(412,360,l),
(160,360,l),
(156,340,l)
);
}
);
};
layerId = "62D20235-B81E-4649-AB7B-DFD33366F1EF";
shapes = (
{
closed = 1;
nodes = (
(224,0,l),
(367,678,l),
(616,678,l),
(620,700,l),
(98,700,l),
(94,678,l),
(342,678,l),
(199,0,l)
);
},
{
closed = 1;
nodes = (
(408,340,l),
(412,360,l),
(160,360,l),
(156,340,l)
);
}
);
width = 532;
},
{
anchors = (
{
name = bottom;
pos = (246,0);
},
{
name = bottomright;
pos = (305,0);
},
{
name = center;
pos = (321,350);
},
{
name = top;
pos = (396,700);
}
);
background = {
anchors = (
{
name = bottom;
pos = (246,0);
},
{
name = bottomright;
pos = (305,0);
},
{
name = center;
pos = (321,350);
},
{
name = top;
pos = (396,700);
}
);
shapes = (
{
closed = 1;
nodes = (
(305,0,l),
(432,597,l),
(672,597,l),
(694,700,l),
(99,700,l),
(77,597,l),
(316,597,l),
(189,0,l)
);
},
{
closed = 1;
nodes = (
(467,305,l),
(486,395,l),
(175,395,l),
(156,305,l)
);
}
);
};
layerId = "8F4FB2AA-9411-450E-BE3E-D587D5B5F5D1";
shapes = (
{
closed = 1;
nodes = (
(305,0,l),
(432,597,l),
(672,597,l),
(694,700,l),
(99,700,l),
(77,597,l),
(316,597,l),
(189,0,l)
);
},
{
closed = 1;
nodes = (
(467,305,l),
(486,395,l),
(175,395,l),
(156,305,l)
);
}
);
width = 609;
},
{
anchors = (
{
name = bottom;
pos = (271,0);
},
{
name = bottomright;
pos = (376,0);
},
{
name = center;
pos = (345,350);
},
{
name = top;
pos = (420,700);
}
);
background = {
anchors = (
{
name = bottom;
pos = (271,0);
},
{
name = bottomright;
pos = (376,0);
},
{
name = center;
pos = (345,350);
},
{
name = top;
pos = (420,700);
}
);
shapes = (
{
closed = 1;
nodes = (
(376,0,l),
(487,520,l),
(700,520,l),
(738,700,l),
(101,700,l),
(63,520,l),
(276,520,l),
(165,0,l)
);
},
{
closed = 1;
nodes = (
(515,268,l),
(548,422,l),
(175,422,l),
(142,268,l)
);
}
);
};
layerId = "3917E251-E52F-4C58-ACE3-A75BE580C29C";
shapes = (
{
closed = 1;
nodes = (
(376,0,l),
(487,520,l),
(700,520,l),
(738,700,l),
(101,700,l),
(63,520,l),
(276,520,l),
(165,0,l)
);
},
{
closed = 1;
nodes = (
(515,268,l),
(548,422,l),
(175,422,l),
(142,268,l)
);
}
);
width = 657;
}
);
unicode = 358;
},
{
glyphname = U;
kernLeft = KO_U;
kernRight = KO_U;
lastChange = "2025-01-20 07:45:44 +0000";
layers = (
{
anchors = (
{
name = bottom;
pos = (295,0);
},
{
name = ogonek;
pos = (453,31);
},
{
name = top;
pos = (422,700);
},
{
name = topright;
pos = (681,700);
}
);
layerId = "62D20235-B81E-4649-AB7B-DFD33366F1EF";
shapes = (
{
closed = 1;
nodes = (
(447,-10,o),
(552,89,o),
(578,209,cs),
(681,700,l),
(656,700,l),
(553,209,ls),
(530,100,o),
(430,12,o),
(312,12,cs),
(169,12,o),
(93,104,o),
(125,252,cs),
(221,700,l),
(196,700,l),
(101,252,ls),
(66,90,o),
(163,-10,o),
(307,-10,cs)
);
}
);
width = 692;
},
{
anchors = (
{
name = bottom;
pos = (309,0);
},
{
name = ogonek;
pos = (485,30);
},
{
name = top;
pos = (437,700);
},
{
name = topright;
pos = (717,700);
}
);
layerId = "8F4FB2AA-9411-450E-BE3E-D587D5B5F5D1";
shapes = (
{
closed = 1;
nodes = (
(473,-11,o),
(582,70,o),
(613,216,cs),
(717,700,l),
(603,700,l),
(502,230,ls),
(488,163,o),
(432,91,o),
(330,91,cs),
(231,91,o),
(179,164,o),
(198,253,cs),
(294,700,l),
(180,700,l),
(88,268,ls),
(52,104,o),
(156,-11,o),
(317,-11,cs)
);
}
);
width = 713;
},
{
anchors = (
{
name = bottom;
pos = (336,0);
},
{
name = ogonek;
pos = (521,30);
},
{
name = top;
pos = (467,700);
},
{
name = topright;
pos = (783,700);
}
);
layerId = "3917E251-E52F-4C58-ACE3-A75BE580C29C";
shapes = (
{
closed = 1;
nodes = (
(490,-12,o),
(641,70,o),
(676,226,cs),
(783,700,l),
(573,700,l),
(479,262,ls),
(467,201,o),
(416,170,o),
(369,170,cs),
(319,170,o),
(273,207,o),
(289,281,cs),
(377,700,l),
(167,700,l),
(84,311,ls),
(38,94,o),
(188,-12,o),
(349,-12,cs)
);
}
);
width = 768;
}
);
metricLeft = H;
metricRight = H;
unicode = 85;
userData = {
com.schriftgestaltung.Glyphs.ColorIndex = 3;
};
},
{
glyphname = Uhorn;
kernLeft = KO_U;
lastChange = "2026-02-13 19:24:36 +0000";
layers = (
{
anchors = (
{
name = bottom;
pos = (295,0);
},
{
name = ogonek;
pos = (453,31);
},
{
name = top;
pos = (422,700);
},
{
name = topright;
pos = (787,784);
}
);
layerId = "62D20235-B81E-4649-AB7B-DFD33366F1EF";
shapes = (
{
closed = 1;
nodes = (
(447,-10,o),
(552,89,o),
(578,209,cs),
(681,700,l),
(656,700,l),
(553,209,ls),
(530,100,o),
(430,12,o),
(312,12,cs),
(169,12,o),
(93,104,o),
(125,252,cs),
(221,700,l),
(196,700,l),
(101,252,ls),
(66,90,o),
(163,-10,o),
(307,-10,cs)
);
},
{
closed = 1;
nodes = (
(721,680,o),
(771,710,o),
(787,784,c),
(765,784,l),
(752,722,o),
(717,700,o),
(681,700,c),
(661,700,l),
(657,680,l),
(677,680,l)
);
}
);
width = 692;
},
{
anchors = (
{
name = bottom;
pos = (309,0);
},
{
name = ogonek;
pos = (485,30);
},
{
name = top;
pos = (437,700);
},
{
name = topright;
pos = (863,790);
}
);
layerId = "8F4FB2AA-9411-450E-BE3E-D587D5B5F5D1";
shapes = (
{
closed = 1;
nodes = (
(473,-11,o),
(582,70,o),
(613,216,cs),
(717,700,l),
(603,700,l),
(502,230,ls),
(488,163,o),
(432,91,o),
(330,91,cs),
(231,91,o),
(179,164,o),
(198,253,cs),
(294,700,l),
(180,700,l),
(88,268,ls),
(52,104,o),
(156,-11,o),
(317,-11,cs)
);
},
{
closed = 1;
nodes = (
(767,640,o),
(838,673,o),
(863,790,c),
(788,790,l),
(772,714,o),
(746,700,o),
(717,700,c),
(669,700,l),
(656,640,l),
(704,640,l)
);
}
);
width = 713;
},
{
anchors = (
{
name = bottom;
pos = (336,0);
},
{
name = ogonek;
pos = (521,30);
},
{
name = top;
pos = (467,700);
},
{
name = topright;
pos = (935,794);
}
);
layerId = "3917E251-E52F-4C58-ACE3-A75BE580C29C";
shapes = (
{
closed = 1;
nodes = (
(490,-12,o),
(641,70,o),
(676,226,cs),
(783,700,l),
(573,700,l),
(479,262,ls),
(467,201,o),
(416,170,o),
(369,170,cs),
(319,170,o),
(273,207,o),
(289,281,cs),
(377,700,l),
(167,700,l),
(84,311,ls),
(38,94,o),
(188,-12,o),
(349,-12,cs)
);
},
{
closed = 1;
nodes = (
(861,612,o),
(946,652,o),
(955,794,c),
(854,794,l),
(849,713,o),
(824,700,o),
(783,700,cs),
(703,700,l),
(684,612,l),
(784,612,l)
);
}
);
width = 768;
}
);
unicode = 431;
},
{
glyphname = V;
kernLeft = KO_V;
kernRight = KO_V;
lastChange = "2025-01-20 07:45:44 +0000";
layers = (
{
anchors = (
{
name = bottom;
pos = (251,0);
},
{
name = top;
pos = (399,700);
}
);
background = {
shapes = (
{
pos = (38,0);
ref = v;
}
);
};
layerId = "62D20235-B81E-4649-AB7B-DFD33366F1EF";
shapes = (
{
closed = 1;
nodes = (
(265,0,l),
(683,700,l),
(654,700,l),
(265,42,ls),
(260,33,o),
(252,33,o),
(250,42,cs),
(240,119,l),
(137,700,l),
(113,700,l),
(237,0,l)
);
}
);
width = 610;
},
{
anchors = (
{
name = bottom;
pos = (286,0);
},
{
name = top;
pos = (435,700);
}
);
layerId = "8F4FB2AA-9411-450E-BE3E-D587D5B5F5D1";
shapes = (
{
closed = 1;
nodes = (
(368,0,l),
(758,700,l),
(627,700,l),
(304,99,ls),
(299,90,o),
(287,89,o),
(287,99,cs),
(284,216,l),
(224,700,l),
(112,700,l),
(204,0,l)
);
}
);
width = 686;
},
{
anchors = (
{
name = bottom;
pos = (320,0);
},
{
name = top;
pos = (469,700);
}
);
layerId = "3917E251-E52F-4C58-ACE3-A75BE580C29C";
shapes = (
{
closed = 1;
nodes = (
(460,0,l),
(821,700,l),
(588,700,l),
(357,177,ls),
(351,163,o),
(334,165,o),
(335,180,cs),
(340,294,l),
(318,700,l),
(111,700,l),
(178,0,l)
);
}
);
width = 750;
}
);
unicode = 86;
userData = {
KernOnName = V;
com.schriftgestaltung.Glyphs.ColorIndex = 3;
};
},
{
glyphname = W;
kernLeft = KO_W;
kernRight = KO_W;
lastChange = "2025-01-19 17:48:57 +0000";
layers = (
{
anchors = (
{
name = bottom;
pos = (394,0);
},
{
name = top;
pos = (542,700);
}
);
layerId = "62D20235-B81E-4649-AB7B-DFD33366F1EF";
shapes = (
{
closed = 1;
nodes = (
(197,0,l),
(520,641,ls),
(529,659,o),
(537,659,o),
(538,641,cs),
(587,0,l),
(620,0,l),
(970,700,l),
(944,700,l),
(622,55,ls),
(615,41,o),
(605,39,o),
(604,54,cs),
(554,700,l),
(526,700,l),
(200,54,ls),
(192,39,o),
(182,40,o),
(182,55,cs),
(183,98,l),
(136,700,l),
(113,700,l),
(168,0,l)
);
}
);
width = 897;
},
{
anchors = (
{
name = bottom;
pos = (426,0);
},
{
name = top;
pos = (575,700);
}
);
layerId = "8F4FB2AA-9411-450E-BE3E-D587D5B5F5D1";
shapes = (
{
closed = 1;
nodes = (
(288,0,l),
(518,487,ls),
(525,502,o),
(538,502,o),
(539,487,cs),
(564,0,l),
(688,0,l),
(1025,700,l),
(908,700,l),
(661,158,ls),
(655,145,o),
(639,145,o),
(639,157,cs),
(624,700,l),
(515,700,l),
(270,157,ls),
(265,145,o),
(250,145,o),
(250,158,cs),
(254,287,l),
(235,700,l),
(125,700,l),
(166,0,l)
);
}
);
width = 966;
},
{
anchors = (
{
name = bottom;
pos = (415,0);
},
{
name = top;
pos = (574,700);
}
);
layerId = "3917E251-E52F-4C58-ACE3-A75BE580C29C";
shapes = (
{
closed = 1;
nodes = (
(333,0,l),
(507,415,ls),
(514,431,o),
(528,431,o),
(528,415,cs),
(533,0,l),
(767,0,l),
(1053,700,l),
(852,700,l),
(697,263,ls),
(693,250,o),
(677,251,o),
(677,266,cs),
(669,700,l),
(480,700,l),
(288,262,ls),
(283,251,o),
(267,254,o),
(269,268,cs),
(288,380,l),
(297,700,l),
(111,700,l),
(99,0,l)
);
}
);
width = 946;
}
);
unicode = 87;
userData = {
com.schriftgestaltung.Glyphs.ColorIndex = 3;
};
},
{
glyphname = X;
kernLeft = KO_X;
kernRight = KO_X;
lastChange = "2025-01-20 07:45:44 +0000";
layers = (
{
anchors = (
{
name = bottom;
pos = (255,0);
},
{
name = bottomright;
pos = (533,0);
},
{
name = center;
pos = (329,350);
},
{
name = top;
pos = (403,700);
}
);
layerId = "62D20235-B81E-4649-AB7B-DFD33366F1EF";
shapes = (
{
closed = 1;
nodes = (
(-1,0,l),
(322,328,ls),
(330,336,o),
(334,333,o),
(336,328,cs),
(356,277,l),
(517,0,l),
(545,0,l),
(341,349,l),
(693,700,l),
(659,700,l),
(337,373,ls),
(330,365,o),
(323,365,o),
(320,373,cs),
(298,426,l),
(140,700,l),
(113,700,l),
(316,349,l),
(-35,0,l)
);
}
);
width = 620;
},
{
anchors = (
{
name = bottom;
pos = (300,0);
},
{
name = bottomright;
pos = (594,0);
},
{
name = center;
pos = (376,350);
},
{
name = top;
pos = (449,700);
}
);
layerId = "8F4FB2AA-9411-450E-BE3E-D587D5B5F5D1";
shapes = (
{
closed = 1;
nodes = (
(106,0,l),
(369,297,ls),
(378,307,o),
(387,305,o),
(390,294,cs),
(410,219,l),
(521,0,l),
(636,0,l),
(455,358,l),
(785,700,l),
(642,700,l),
(375,403,ls),
(366,393,o),
(356,395,o),
(353,408,cs),
(334,485,l),
(227,700,l),
(112,700,l),
(290,345,l),
(-37,0,l)
);
}
);
width = 713;
},
{
anchors = (
{
name = bottom;
pos = (343,0);
},
{
name = bottomright;
pos = (666,0);
},
{
name = center;
pos = (421,354);
},
{
name = top;
pos = (492,700);
}
);
layerId = "3917E251-E52F-4C58-ACE3-A75BE580C29C";
shapes = (
{
closed = 1;
nodes = (
(206,0,l),
(407,263,ls),
(417,276,o),
(429,274,o),
(431,260,cs),
(445,169,l),
(514,0,l),
(719,0,l),
(575,351,l),
(870,700,l),
(625,700,l),
(425,436,ls),
(414,422,o),
(402,425,o),
(400,440,cs),
(387,533,l),
(319,700,l),
(113,700,l),
(258,351,l),
(-38,0,l)
);
}
);
width = 799;
}
);
metricLeft = V;
metricRight = V;
unicode = 88;
userData = {
KernOnName = X;
com.schriftgestaltung.Glyphs.ColorIndex = 3;
com.schriftgestaltung.Glyphs.layer.leftMetricsKey = "==V";
com.schriftgestaltung.Glyphs.layer.rightMetricsKey = "==V";
com.schriftgestaltung.Glyphs.leftMetricsKey = T;
com.schriftgestaltung.Glyphs.rightMetricsKey = T;
};
},
{
glyphname = Y;
kernLeft = KO_Y;
kernRight = KO_Y;
lastChange = "2025-01-20 07:45:44 +0000";
layers = (
{
anchors = (
{
name = bottom;
pos = (272,0);
},
{
name = top;
pos = (421,700);
},
{
name = topleft;
pos = (126,700);
}
);
background = {
shapes = (
{
pos = (-86,0);
ref = M;
}
);
};
layerId = "62D20235-B81E-4649-AB7B-DFD33366F1EF";
shapes = (
{
closed = 1;
nodes = (
(284,0,l),
(337,253,l),
(725,700,l),
(695,700,l),
(384,337,l),
(338,281,ls),
(329,270,o),
(320,271,o),
(317,281,cs),
(300,333,l),
(137,700,l),
(113,700,l),
(313,253,l),
(260,0,l)
);
}
);
width = 652;
},
{
anchors = (
{
name = bottom;
pos = (304,0);
},
{
name = top;
pos = (453,700);
},
{
name = topleft;
pos = (136,700);
}
);
background = {
shapes = (
{
pos = (-88,0);
ref = M;
}
);
};
layerId = "8F4FB2AA-9411-450E-BE3E-D587D5B5F5D1";
shapes = (
{
closed = 1;
nodes = (
(363,0,l),
(416,250,l),
(794,700,l),
(653,700,l),
(428,427,l),
(380,351,ls),
(374,342,o),
(361,342,o),
(359,351,cs),
(344,427,l),
(229,700,l),
(112,700,l),
(299,250,l),
(246,0,l)
);
}
);
width = 722;
},
{
anchors = (
{
name = bottom;
pos = (302,0);
},
{
name = top;
pos = (451,700);
},
{
name = topleft;
pos = (111,700);
}
);
background = {
shapes = (
{
closed = 1;
nodes = (
(467,0,l),
(467,222,l),
(706,700,l),
(484,700,l),
(367,424,l),
(357,424,l),
(239,700,l),
(16,700,l),
(257,222,l),
(257,0,l)
);
}
);
};
layerId = "3917E251-E52F-4C58-ACE3-A75BE580C29C";
shapes = (
{
closed = 1;
nodes = (
(407,0,l),
(449,197,l),
(791,700,l),
(567,700,l),
(420,471,l),
(381,387,ls),
(375,372,o),
(359,376,o),
(360,391,cs),
(356,475,l),
(318,700,l),
(111,700,l),
(239,197,l),
(197,0,l)
);
}
);
width = 720;
}
);
unicode = 89;
userData = {
KernOnName = Y;
com.schriftgestaltung.Glyphs.ColorIndex = 3;
};
},
{
glyphname = Z;
kernLeft = KO_Z;
kernRight = KO_Z;
lastChange = "2025-01-19 17:48:57 +0000";
layers = (
{
anchors = (
{
name = bottom;
pos = (227,0);
},
{
name = top;
pos = (375,700);
}
);
layerId = "62D20235-B81E-4649-AB7B-DFD33366F1EF";
shapes = (
{
closed = 1;
nodes = (
(446,0,l),
(450,22,l),
(38,22,ls),
(28,22,o),
(25,30,o),
(35,38,cs),
(67,64,l),
(585,678,l),
(589,700,l),
(159,700,l),
(155,678,l),
(548,678,ls),
(557,678,o),
(560,670,o),
(552,663,cs),
(520,637,l),
(1,21,l),
(-3,0,l)
);
}
);
width = 553;
},
{
anchors = (
{
name = bottom;
pos = (245,0);
},
{
name = top;
pos = (394,700);
}
);
layerId = "8F4FB2AA-9411-450E-BE3E-D587D5B5F5D1";
shapes = (
{
closed = 1;
nodes = (
(504,0,l),
(526,103,l),
(177,103,ls),
(170,103,o),
(168,111,o),
(175,117,cs),
(249,186,l),
(637,623,l),
(652,700,l),
(145,700,l),
(125,597,l),
(473,597,l),
(479,597,o),
(481,589,o),
(475,583,cs),
(397,508,l),
(7,68,l),
(-13,0,l)
);
}
);
width = 606;
},
{
anchors = (
{
name = bottom;
pos = (262,0);
},
{
name = top;
pos = (411,700);
}
);
layerId = "3917E251-E52F-4C58-ACE3-A75BE580C29C";
shapes = (
{
closed = 1;
nodes = (
(554,0,l),
(592,180,l),
(301,180,ls),
(285,180,o),
(283,191,o),
(302,205,cs),
(398,275,l),
(669,539,l),
(703,700,l),
(129,700,l),
(91,520,l),
(393,520,l),
(410,520,o),
(412,507,o),
(393,494,cs),
(289,420,l),
(16,161,l),
(-18,0,l)
);
}
);
width = 650;
}
);
metricLeft = "=I/2";
metricRight = "=I/2";
unicode = 90;
userData = {
com.schriftgestaltung.Glyphs.ColorIndex = 3;
com.schriftgestaltung.Glyphs.layer.leftMetricsKey = "==H/2";
com.schriftgestaltung.Glyphs.layer.rightMetricsKey = "==H/2";
};
},
{
glyphname = Saltillo;
lastChange = "2025-01-19 17:48:57 +0000";
layers = (
{
layerId = "62D20235-B81E-4649-AB7B-DFD33366F1EF";
shapes = (
{
closed = 1;
nodes = (
(125,370,l),
(195,700,l),
(173,700,l),
(103,370,l)
);
}
);
width = 182;
},
{
layerId = "8F4FB2AA-9411-450E-BE3E-D587D5B5F5D1";
shapes = (
{
closed = 1;
nodes = (
(165,312,l),
(248,700,l),
(158,700,l),
(75,312,l)
);
}
);
width = 222;
},
{
layerId = "3917E251-E52F-4C58-ACE3-A75BE580C29C";
shapes = (
{
closed = 1;
nodes = (
(201,257,l),
(295,700,l),
(141,700,l),
(47,257,l)
);
}
);
width = 254;
}
);
metricLeft = quotesingle;
metricRight = quotesingle;
unicode = 42891;
},
{
glyphname = I_J.loclNLD;
kernLeft = KO_I;
kernRight = KO_J;
lastChange = "2026-03-12 14:59:06 +0000";
layers = (
{
anchors = (
{
name = bottom_1;
pos = (127,0);
},
{
name = bottom_2;
pos = (492,0);
},
{
name = caret_1;
pos = (364.5,0);
},
{
name = ogonek_1;
pos = (129,10);
},
{
name = ogonek_2;
pos = (494,10);
},
{
name = top_1;
pos = (275,700);
},
{
name = top_2;
pos = (640,700);
},
{
name = topleft_1;
pos = (113,700);
},
{
name = topleft_2;
pos = (113,700);
}
);
layerId = "62D20235-B81E-4649-AB7B-DFD33366F1EF";
shapes = (
{
closed = 1;
nodes = (
(72,0,l),
(220,700,l),
(196,700,l),
(48,0,l)
);
},
{
closed = 1;
nodes = (
(500,-12,o),
(579,37,o),
(599,135,cs),
(719,700,l),
(695,700,l),
(576,141,ls),
(557,52,o),
(489,10,o),
(413,10,cs),
(354,10,o),
(306,36,o),
(291,59,c),
(285,37,l),
(300,17,o),
(348,-12,o),
(413,-12,cs)
);
}
);
width = 729;
},
{
anchors = (
{
name = bottom_1;
pos = (144,0);
},
{
name = bottom_2;
pos = (545,0);
},
{
name = caret_1;
pos = (401,0);
},
{
name = ogonek_1;
pos = (146,10);
},
{
name = ogonek_2;
pos = (547,10);
},
{
name = top_1;
pos = (293,700);
},
{
name = top_2;
pos = (694,700);
},
{
name = topleft_1;
pos = (112,700);
},
{
name = topleft_2;
pos = (112,700);
}
);
layerId = "8F4FB2AA-9411-450E-BE3E-D587D5B5F5D1";
shapes = (
{
closed = 1;
nodes = (
(144,0,l),
(293,700,l),
(180,700,l),
(31,0,l)
);
},
{
closed = 1;
nodes = (
(564,-12,o),
(664,36,o),
(695,180,cs),
(806,700,l),
(693,700,l),
(587,202,ls),
(570,121,o),
(526,91,o),
(466,91,cs),
(421,91,o),
(374,104,o),
(347,126,c),
(325,21,l),
(362,-2,o),
(410,-12,o),
(461,-12,cs)
);
}
);
width = 802;
},
{
anchors = (
{
name = bottom_1;
pos = (167,0);
},
{
name = bottom_2;
pos = (617,0);
},
{
name = caret_1;
pos = (450,0);
},
{
name = ogonek_1;
pos = (169,10);
},
{
name = ogonek_2;
pos = (619,10);
},
{
name = top_1;
pos = (316,700);
},
{
name = top_2;
pos = (766,700);
},
{
name = topleft_1;
pos = (111,700);
},
{
name = topleft_2;
pos = (111,700);
}
);
layerId = "3917E251-E52F-4C58-ACE3-A75BE580C29C";
shapes = (
{
closed = 1;
nodes = (
(228,0,l),
(377,700,l),
(167,700,l),
(18,0,l)
);
},
{
closed = 1;
nodes = (
(657,-12,o),
(784,85,o),
(822,264,cs),
(915,700,l),
(705,700,l),
(612,264,ls),
(599,202,o),
(554,171,o),
(487,171,cs),
(457,171,o),
(440,176,o),
(419,182,c),
(381,3,l),
(406,-7,o),
(437,-12,o),
(482,-12,cs)
);
}
);
width = 900;
}
);
},
{
color = 9;
glyphname = I_J.loclNLD.ss01;
kernLeft = KO_H;
lastChange = "2026-03-12 14:59:06 +0000";
layers = (
{
anchors = (
{
name = bottom_1;
pos = (127,0);
},
{
name = bottom_2;
pos = (492,0);
},
{
name = caret_1;
pos = (364.5,0);
},
{
name = ogonek_1;
pos = (129,10);
},
{
name = ogonek_2;
pos = (494,10);
},
{
name = top_1;
pos = (275,700);
},
{
name = top_2;
pos = (640,700);
},
{
name = topleft_1;
pos = (113,700);
},
{
name = topleft_2;
pos = (113,700);
}
);
layerId = "62D20235-B81E-4649-AB7B-DFD33366F1EF";
shapes = (
{
closed = 1;
nodes = (
(72,0,l),
(220,700,l),
(196,700,l),
(48,0,l)
);
},
{
closed = 1;
nodes = (
(500,-12,o),
(579,37,o),
(599,135,cs),
(719,700,l),
(695,700,l),
(576,141,ls),
(557,52,o),
(489,10,o),
(413,10,cs),
(354,10,o),
(306,36,o),
(291,59,c),
(285,37,l),
(300,17,o),
(348,-12,o),
(413,-12,cs)
);
}
);
width = 729;
},
{
anchors = (
{
name = bottom_1;
pos = (144,0);
},
{
name = bottom_2;
pos = (545,0);
},
{
name = caret_1;
pos = (401,0);
},
{
name = ogonek_1;
pos = (146,10);
},
{
name = ogonek_2;
pos = (547,10);
},
{
name = top_1;
pos = (293,700);
},
{
name = top_2;
pos = (694,700);
},
{
name = topleft_1;
pos = (112,700);
},
{
name = topleft_2;
pos = (112,700);
}
);
layerId = "8F4FB2AA-9411-450E-BE3E-D587D5B5F5D1";
shapes = (
{
closed = 1;
nodes = (
(144,0,l),
(293,700,l),
(180,700,l),
(31,0,l)
);
},
{
closed = 1;
nodes = (
(564,-12,o),
(664,36,o),
(695,180,cs),
(806,700,l),
(693,700,l),
(587,202,ls),
(570,121,o),
(526,91,o),
(466,91,cs),
(421,91,o),
(374,104,o),
(347,126,c),
(325,21,l),
(362,-2,o),
(410,-12,o),
(461,-12,cs)
);
}
);
width = 802;
},
{
anchors = (
{
name = bottom_1;
pos = (167,0);
},
{
name = bottom_2;
pos = (617,0);
},
{
name = caret_1;
pos = (450,0);
},
{
name = ogonek_1;
pos = (169,10);
},
{
name = ogonek_2;
pos = (619,10);
},
{
name = top_1;
pos = (316,700);
},
{
name = top_2;
pos = (766,700);
},
{
name = topleft_1;
pos = (111,700);
},
{
name = topleft_2;
pos = (111,700);
}
);
layerId = "3917E251-E52F-4C58-ACE3-A75BE580C29C";
shapes = (
{
closed = 1;
nodes = (
(228,0,l),
(377,700,l),
(167,700,l),
(18,0,l)
);
},
{
closed = 1;
nodes = (
(657,-12,o),
(784,85,o),
(822,264,cs),
(915,700,l),
(705,700,l),
(612,264,ls),
(599,202,o),
(554,171,o),
(487,171,cs),
(457,171,o),
(440,176,o),
(419,182,c),
(381,3,l),
(406,-7,o),
(437,-12,o),
(482,-12,cs)
);
}
);
width = 900;
}
);
},
{
glyphname = a;
kernLeft = KO_a;
kernRight = KO_a;
lastChange = "2025-01-20 07:45:44 +0000";
layers = (
{
anchors = (
{
name = bottom;
pos = (219,0);
},
{
name = ogonek;
pos = (468,10);
},
{
name = top;
pos = (331,522);
}
);
background = {
shapes = (
{
pos = (-3,0);
ref = o;
},
{
pos = (6,0);
ref = u;
}
);
};
layerId = "62D20235-B81E-4649-AB7B-DFD33366F1EF";
shapes = (
{
closed = 1;
nodes = (
(276,-12,o),
(320,4,o),
(347,23,c),
(361,37,ls),
(367,43,o),
(373,43,o),
(381,40,cs),
(492,-10,l),
(503,11,l),
(402,58,l),
(503,522,l),
(480,508,ls),
(474,505,o),
(470,506,o),
(465,508,cs),
(435,523,l),
(411,529,o),
(385,534,o),
(354,534,cs),
(145,534,o),
(58,345,o),
(58,204,cs),
(58,88,o),
(108,-12,o),
(238,-12,cs)
);
},
{
closed = 1;
nodes = (
(125,10,o),
(82,96,o),
(82,204,cs),
(82,338,o),
(163,512,o),
(354,512,cs),
(404,512,o),
(436,499,o),
(470,484,c),
(381,74,l),
(327,28,o),
(286,10,o),
(238,10,cs)
);
}
);
width = 566;
},
{
anchors = (
{
name = bottom;
pos = (231,0);
},
{
name = ogonek;
pos = (496,10);
},
{
name = top;
pos = (345,536);
}
);
background = {
shapes = (
{
pos = (-1,0);
ref = o;
},
{
pos = (13,0);
ref = u;
}
);
};
layerId = "8F4FB2AA-9411-450E-BE3E-D587D5B5F5D1";
shapes = (
{
closed = 1;
nodes = (
(266,-12,o),
(303,-8,o),
(355,24,c),
(372,39,ls),
(378,45,o),
(385,45,o),
(392,42,cs),
(503,-9,l),
(555,84,l),
(473,120,l),
(566,542,l),
(484,527,ls),
(474,525,o),
(470,525,o),
(463,528,cs),
(427,543,l),
(406,546,o),
(384,548,o),
(362,548,cs),
(167,548,o),
(44,380,o),
(44,216,cs),
(44,88,o),
(110,-12,o),
(236,-12,cs)
);
},
{
closed = 1;
nodes = (
(182,78,o),
(154,144,o),
(154,214,cs),
(154,303,o),
(215,458,o),
(362,458,cs),
(384,458,o),
(410,455,o),
(437,446,c),
(369,135,l),
(326,91,o),
(292,78,o),
(267,78,cs)
);
}
);
width = 609;
},
{
anchors = (
{
name = bottom;
pos = (264,0);
},
{
name = ogonek;
pos = (557,10);
},
{
name = top;
pos = (380,546);
}
);
background = {
shapes = (
{
ref = o;
}
);
};
layerId = "3917E251-E52F-4C58-ACE3-A75BE580C29C";
shapes = (
{
closed = 1;
nodes = (
(321,-12,o),
(337,-10,o),
(357,-6,c),
(400,25,ls),
(410,32,o),
(416,32,o),
(424,29,cs),
(527,-12,l),
(622,160,l),
(547,187,l),
(626,558,l),
(482,534,ls),
(470,532,o),
(463,533,o),
(451,538,cs),
(410,554,l),
(390,557,o),
(374,558,o),
(357,558,cs),
(159,558,o),
(36,411,o),
(36,235,cs),
(34,80,o),
(149,-12,o),
(297,-12,cs)
);
},
{
closed = 1;
nodes = (
(254,150,o),
(223,180,o),
(224,235,cs),
(224,303,o),
(260,396,o),
(347,396,cs),
(369,396,o),
(385,392,o),
(403,383,c),
(357,162,l),
(342,154,o),
(333,150,o),
(307,150,cs)
);
}
);
width = 663;
}
);
unicode = 97;
userData = {
KernOnName = a;
com.schriftgestaltung.Glyphs.ColorIndex = 3;
com.typemytype.robofont.layerData = {
background = {
anchors = (
);
components = (
{
baseGlyph = n;
transformation = (
1,
0,
0,
1,
-5,
0
);
}
);
contours = (
);
lib = {
};
name = a;
unicodes = (
);
width = 491;
};
};
};
},
{
glyphname = aogonek;
kernLeft = KO_a;
kernRight = KO_a;
lastChange = "2025-01-19 17:48:57 +0000";
layers = (
{
background = {
shapes = (
{
ref = a;
}
);
};
layerId = "62D20235-B81E-4649-AB7B-DFD33366F1EF";
shapes = (
{
closed = 1;
nodes = (
(525,-197,l),
(485,-180,o),
(464,-148,o),
(464,-107,cs),
(464,-82,o),
(474,-48,o),
(494,-10,cs),
(505,11,l),
(404,58,l),
(505,522,l),
(482,508,ls),
(476,505,o),
(472,506,o),
(467,508,cs),
(437,523,l),
(413,529,o),
(387,534,o),
(356,534,cs),
(147,534,o),
(60,345,o),
(60,204,cs),
(60,88,o),
(110,-12,o),
(240,-12,cs),
(278,-12,o),
(322,4,o),
(349,23,c),
(363,37,ls),
(369,43,o),
(375,43,o),
(383,40,cs),
(476,-2,l),
(452,-42,o),
(441,-79,o),
(441,-111,cs),
(441,-164,o),
(471,-200,o),
(512,-213,c)
);
},
{
closed = 1;
nodes = (
(127,10,o),
(84,96,o),
(84,204,cs),
(84,338,o),
(165,512,o),
(356,512,cs),
(406,512,o),
(438,499,o),
(472,484,c),
(383,74,l),
(329,28,o),
(288,10,o),
(240,10,cs)
);
}
);
width = 578;
},
{
background = {
shapes = (
{
ref = a;
}
);
};
layerId = "8F4FB2AA-9411-450E-BE3E-D587D5B5F5D1";
shapes = (
{
closed = 1;
nodes = (
(539,-167,l),
(491,-163,o),
(463,-142,o),
(463,-105,cs),
(463,-80,o),
(470,-65,o),
(503,-9,cs),
(555,84,l),
(473,120,l),
(566,542,l),
(484,527,ls),
(474,525,o),
(470,525,o),
(463,528,cs),
(427,543,l),
(406,546,o),
(384,548,o),
(362,548,cs),
(167,548,o),
(44,380,o),
(44,216,cs),
(44,88,o),
(110,-12,o),
(236,-12,cs),
(266,-12,o),
(303,-8,o),
(355,24,c),
(372,39,ls),
(378,45,o),
(385,45,o),
(392,42,cs),
(431,24,l),
(393,-25,o),
(373,-68,o),
(373,-121,cs),
(373,-199,o),
(426,-240,o),
(512,-245,c)
);
},
{
closed = 1;
nodes = (
(182,78,o),
(154,144,o),
(154,214,cs),
(154,303,o),
(215,458,o),
(362,458,cs),
(384,458,o),
(410,455,o),
(437,446,c),
(369,135,l),
(326,91,o),
(292,78,o),
(267,78,cs)
);
}
);
width = 614;
},
{
background = {
shapes = (
{
ref = a;
}
);
};
layerId = "3917E251-E52F-4C58-ACE3-A75BE580C29C";
shapes = (
{
closed = 1;
nodes = (
(585,-149,l),
(532,-154,o),
(504,-132,o),
(504,-92,cs),
(504,-69,o),
(515,-34,o),
(527,-12,cs),
(622,160,l),
(547,187,l),
(626,558,l),
(482,534,ls),
(470,532,o),
(463,533,o),
(451,538,cs),
(410,554,l),
(390,557,o),
(374,558,o),
(357,558,cs),
(159,558,o),
(36,411,o),
(36,235,cs),
(34,80,o),
(149,-12,o),
(297,-12,cs),
(321,-12,o),
(337,-10,o),
(357,-6,c),
(400,25,ls),
(410,32,o),
(416,33,o),
(424,29,cs),
(432,25,l),
(389,-31,o),
(372,-70,o),
(372,-122,cs),
(372,-217,o),
(455,-258,o),
(563,-254,c)
);
},
{
closed = 1;
nodes = (
(254,150,o),
(223,180,o),
(224,235,cs),
(224,303,o),
(260,396,o),
(347,396,cs),
(369,396,o),
(385,392,o),
(403,383,c),
(357,162,l),
(342,154,o),
(333,150,o),
(307,150,cs)
);
}
);
width = 666;
}
);
unicode = 261;
},
{
glyphname = ae;
kernLeft = KO_ae;
kernRight = KO_e;
lastChange = "2025-01-19 17:48:57 +0000";
layers = (
{
anchors = (
{
name = bottom;
pos = (392,0);
},
{
name = top;
pos = (502,522);
}
);
layerId = "62D20235-B81E-4649-AB7B-DFD33366F1EF";
shapes = (
{
closed = 1;
nodes = (
(645,-12,o),
(723,5,o),
(784,71,c),
(769,85,l),
(715,29,o),
(651,10,o),
(593,10,cs),
(439,10,o),
(426,170,o),
(440,263,c),
(821,263,l),
(838,274,l),
(845,298,o),
(848,323,o),
(848,347,cs),
(847,447,o),
(794,534,o),
(678,534,cs),
(593,534,o),
(523,496,o),
(473,415,cs),
(466,403,o),
(459,407,o),
(457,418,cs),
(448,482,o),
(387,534,o),
(301,534,cs),
(235,534,o),
(169,515,o),
(114,473,c),
(118,453,l),
(165,490,o),
(231,512,o),
(296,512,cs),
(375,512,o),
(458,466,o),
(433,353,cs),
(418,285,l),
(255,285,ls),
(129,285,o),
(48,236,o),
(31,155,cs),
(11,59,o),
(77,-9,o),
(183,-9,cs),
(292,-9,o),
(376,62,o),
(399,136,cs),
(405,155,o),
(416,151,o),
(420,134,cs),
(438,60,o),
(485,-12,o),
(593,-12,cs)
);
},
{
closed = 1;
nodes = (
(85,13,o),
(40,75,o),
(55,151,cs),
(71,226,o),
(148,263,o),
(250,263,cs),
(329,263,l),
(404,270,ls),
(411,271,o),
(414,265,o),
(413,260,cs),
(397,185,ls),
(372,68,o),
(276,13,o),
(187,13,cs)
);
},
{
closed = 1;
nodes = (
(467,400,o),
(541,512,o),
(678,512,cs),
(781,512,o),
(823,429,o),
(824,347,cs),
(825,324,o),
(821,307,o),
(815,285,c),
(444,285,l)
);
}
);
width = 903;
},
{
anchors = (
{
name = bottom;
pos = (407,0);
},
{
name = top;
pos = (521,536);
}
);
layerId = "8F4FB2AA-9411-450E-BE3E-D587D5B5F5D1";
shapes = (
{
closed = 1;
nodes = (
(683,-12,o),
(758,11,o),
(828,98,c),
(756,149,l),
(705,96,o),
(665,78,o),
(613,78,cs),
(542,78,o),
(484,124,o),
(501,230,c),
(840,230,l),
(876,283,l),
(884,314,o),
(888,346,o),
(888,374,cs),
(887,470,o),
(824,548,o),
(700,548,cs),
(623,548,o),
(563,515,o),
(516,464,cs),
(501,449,o),
(497,449,o),
(489,465,cs),
(463,518,o),
(403,548,o),
(324,548,cs),
(237,548,o),
(177,520,o),
(113,477,c),
(128,395,l),
(187,436,o),
(250,455,o),
(307,455,cs),
(394,455,o),
(423,411,o),
(410,349,cs),
(404,316,l),
(273,318,ls),
(137,319,o),
(53,265,o),
(33,174,cs),
(10,67,o),
(90,-10,o),
(205,-10,cs),
(285,-10,o),
(360,38,o),
(401,89,cs),
(412,102,o),
(423,102,o),
(428,88,cs),
(445,42,o),
(502,-12,o),
(613,-12,cs)
);
},
{
closed = 1;
nodes = (
(161,80,o),
(124,117,o),
(133,158,cs),
(142,203,o),
(179,230,o),
(249,230,cs),
(307,230,l),
(371,244,ls),
(384,247,o),
(387,239,o),
(385,232,cs),
(377,191,ls),
(364,131,o),
(309,80,o),
(220,80,cs)
);
},
{
closed = 1;
nodes = (
(544,388,o),
(599,458,o),
(688,458,cs),
(750,458,o),
(789,424,o),
(789,362,cs),
(789,348,o),
(787,332,o),
(783,315,c),
(519,315,l)
);
}
);
width = 928;
},
{
anchors = (
{
name = bottom;
pos = (441,0);
},
{
name = top;
pos = (557,546);
}
);
background = {
shapes = (
{
pos = (300,0);
ref = e;
}
);
};
layerId = "3917E251-E52F-4C58-ACE3-A75BE580C29C";
shapes = (
{
closed = 1;
nodes = (
(750,-12,o),
(825,14,o),
(885,71,c),
(799,183,l),
(760,153,o),
(720,136,o),
(676,136,cs),
(617,136,o),
(580,169,o),
(582,216,c),
(919,216,l),
(967,277,l),
(973,301,o),
(975,325,o),
(975,348,cs),
(977,469,o),
(897,558,o),
(739,558,cs),
(666,558,o),
(597,529,o),
(553,490,cs),
(539,477,o),
(536,481,o),
(526,493,cs),
(488,537,o),
(435,559,o),
(355,559,cs),
(266,559,o),
(180,531,o),
(120,488,c),
(133,352,l),
(199,389,o),
(262,407,o),
(321,407,cs),
(397,407,o),
(418,380,o),
(411,349,cs),
(408,335,l),
(310,335,ls),
(141,335,o),
(56,276,o),
(36,184,cs),
(14,81,o),
(87,-11,o),
(224,-11,cs),
(309,-11,o),
(395,10,o),
(458,78,cs),
(469,91,o),
(480,91,o),
(486,80,cs),
(523,15,o),
(586,-12,o),
(672,-12,cs)
);
},
{
closed = 1;
nodes = (
(225,121,o),
(199,136,o),
(205,165,cs),
(211,192,o),
(240,206,o),
(282,206,cs),
(300,206,l),
(366,217,ls),
(373,218,o),
(383,217,o),
(381,207,cs),
(376,185,ls),
(369,151,o),
(323,121,o),
(265,121,cs)
);
},
{
closed = 1;
nodes = (
(619,382,o),
(661,419,o),
(725,419,cs),
(783,419,o),
(806,383,o),
(806,351,cs),
(806,345,o),
(805,339,o),
(803,333,c),
(601,333,l)
);
}
);
width = 998;
}
);
metricLeft = a;
metricRight = e;
unicode = 230;
userData = {
com.schriftgestaltung.Glyphs.leftMetricsKey = a;
com.schriftgestaltung.Glyphs.rightMetricsKey = e;
};
},
{
glyphname = b;
kernLeft = KO_h;
kernRight = KO_p;
lastChange = "2025-01-20 07:45:44 +0000";
layers = (
{
anchors = (
{
name = bottom;
pos = (232,0);
},
{
name = center;
pos = (186,633);
},
{
name = top;
pos = (344,522);
}
);
background = {
shapes = (
{
angle = 180;
pos = (543,522);
ref = a;
}
);
};
layerId = "62D20235-B81E-4649-AB7B-DFD33366F1EF";
shapes = (
{
closed = 1;
nodes = (
(396,-12,o),
(483,177,o),
(483,318,cs),
(483,434,o),
(433,534,o),
(303,534,cs),
(280,534,o),
(247,528,o),
(218,514,c),
(179,489,ls),
(171,485,o),
(167,488,o),
(168,495,cs),
(222,750,l),
(197,750,l),
(38,0,l),
(61,14,ls),
(67,17,o),
(71,16,o),
(76,14,cs),
(106,-1,l),
(130,-7,o),
(156,-12,o),
(187,-12,cs)
);
},
{
closed = 1;
nodes = (
(137,10,o),
(105,23,o),
(71,38,c),
(158,447,l),
(198,481,o),
(244,512,o),
(303,512,cs),
(416,512,o),
(459,426,o),
(459,318,cs),
(459,184,o),
(378,10,o),
(187,10,cs)
);
}
);
width = 541;
},
{
anchors = (
{
name = bottom;
pos = (244,0);
},
{
name = center;
pos = (215,636);
},
{
name = top;
pos = (358,536);
}
);
background = {
anchors = (
{
name = bottom;
pos = (-1615,0);
},
{
name = center;
pos = (-1577,268);
},
{
name = top;
pos = (-1539,536);
}
);
shapes = (
{
angle = 180;
pos = (581,536);
ref = a;
}
);
};
layerId = "8F4FB2AA-9411-450E-BE3E-D587D5B5F5D1";
shapes = (
{
closed = 1;
nodes = (
(414,-12,o),
(537,156,o),
(537,320,cs),
(537,448,o),
(471,548,o),
(345,548,cs),
(330,548,o),
(321,547,o),
(308,544,c),
(250,504,ls),
(240,499,o),
(232,502,o),
(234,513,cs),
(285,750,l),
(179,750,l),
(15,-6,l),
(97,9,ls),
(105,11,o),
(114,10,o),
(120,7,cs),
(154,-7,l),
(175,-10,o),
(197,-12,o),
(219,-12,cs)
);
},
{
closed = 1;
nodes = (
(197,78,o),
(171,81,o),
(144,90,c),
(210,401,l),
(251,439,o),
(283,458,o),
(314,458,cs),
(399,458,o),
(427,392,o),
(427,322,cs),
(427,233,o),
(366,78,o),
(219,78,cs)
);
}
);
width = 581;
},
{
anchors = (
{
name = bottom;
pos = (276,0);
},
{
name = center;
pos = (266,641);
},
{
name = top;
pos = (392,546);
}
);
background = {
anchors = (
{
name = bottom;
pos = (-1160,0);
},
{
name = center;
pos = (-1122,273);
},
{
name = top;
pos = (-1084,546);
}
);
shapes = (
{
angle = 180;
pos = (640,546);
ref = a;
},
{
ref = h;
}
);
};
layerId = "3917E251-E52F-4C58-ACE3-A75BE580C29C";
shapes = (
{
closed = 1;
nodes = (
(518,-12,o),
(605,197,o),
(605,342,cs),
(605,485,o),
(498,558,o),
(417,558,cs),
(406,558,o),
(397,557,o),
(389,555,c),
(334,524,ls),
(322,517,o),
(312,524,o),
(314,535,cs),
(361,750,l),
(168,750,l),
(7,-11,l),
(151,11,ls),
(163,13,o),
(171,12,o),
(183,8,cs),
(223,-6,l),
(242,-10,o),
(258,-12,o),
(274,-12,cs)
);
},
{
closed = 1;
nodes = (
(269,150,o),
(254,155,o),
(237,163,c),
(283,385,l),
(302,393,o),
(312,396,o),
(336,396,cs),
(375,396,o),
(416,374,o),
(416,316,cs),
(416,227,o),
(371,150,o),
(294,150,cs)
);
}
);
width = 635;
}
);
metricRight = o;
unicode = 98;
userData = {
com.schriftgestaltung.Glyphs.ColorIndex = 3;
com.schriftgestaltung.Glyphs.layer.leftMetricsKey = "==h-45";
com.schriftgestaltung.Glyphs.layer.rightMetricsKey = "==o";
com.schriftgestaltung.Glyphs.leftMetricsKey = "=h-45";
com.typemytype.robofont.layerData = {
background = {
anchors = (
);
components = (
{
baseGlyph = a;
transformation = (
-1,
0,
0,
1,
491,
0
);
}
);
contours = (
);
lib = {
};
name = b;
unicodes = (
);
width = 527;
};
};
};
},
{
color = 4;
glyphname = bstroke;
lastChange = "2025-01-19 16:39:55 +0000";
layers = (
{
layerId = "62D20235-B81E-4649-AB7B-DFD33366F1EF";
shapes = (
{
closed = 1;
nodes = (
(396,-12,o),
(483,177,o),
(483,318,cs),
(483,434,o),
(433,534,o),
(303,534,cs),
(280,534,o),
(247,528,o),
(218,514,c),
(179,489,l),
(171,485,o),
(167,488,o),
(168,495,cs),
(195,624,l),
(309,624,l),
(313,642,l),
(199,642,l),
(222,750,l),
(197,750,l),
(174,642,l),
(61,642,l),
(57,624,l),
(170,624,l),
(38,0,l),
(61,14,ls),
(67,17,o),
(71,16,o),
(76,14,cs),
(106,-1,l),
(130,-7,o),
(156,-12,o),
(187,-12,cs)
);
},
{
closed = 1;
nodes = (
(137,10,o),
(105,23,o),
(71,38,c),
(158,447,l),
(198,481,o),
(244,512,o),
(303,512,cs),
(416,512,o),
(459,426,o),
(459,318,cs),
(459,184,o),
(378,10,o),
(187,10,cs)
);
}
);
width = 541;
},
{
layerId = "8F4FB2AA-9411-450E-BE3E-D587D5B5F5D1";
shapes = (
{
closed = 1;
nodes = (
(414,-12,o),
(537,156,o),
(537,320,cs),
(537,448,o),
(471,548,o),
(345,548,cs),
(330,548,o),
(321,547,o),
(308,544,c),
(250,504,l),
(240,499,o),
(232,502,o),
(234,513,cs),
(252,596,l),
(361,596,l),
(380,677,l),
(269,677,l),
(285,750,l),
(179,750,l),
(163,677,l),
(69,677,l),
(50,596,l),
(146,596,l),
(15,-6,l),
(97,9,ls),
(105,11,o),
(114,10,o),
(120,7,cs),
(154,-7,l),
(175,-10,o),
(197,-12,o),
(219,-12,cs)
);
},
{
closed = 1;
nodes = (
(197,78,o),
(171,81,o),
(144,90,c),
(210,401,l),
(251,439,o),
(283,458,o),
(314,458,cs),
(399,458,o),
(427,392,o),
(427,322,cs),
(427,233,o),
(366,78,o),
(219,78,cs)
);
}
);
width = 581;
},
{
layerId = "3917E251-E52F-4C58-ACE3-A75BE580C29C";
shapes = (
{
closed = 1;
nodes = (
(518,-12,o),
(605,197,o),
(605,342,cs),
(605,485,o),
(498,558,o),
(417,558,cs),
(406,558,o),
(397,557,o),
(389,555,c),
(334,524,ls),
(322,517,o),
(312,524,o),
(314,535,cs),
(327,596,l),
(443,596,l),
(469,706,l),
(351,706,l),
(361,750,l),
(168,750,l),
(159,706,l),
(96,706,l),
(70,596,l),
(135,596,l),
(7,-11,l),
(151,11,ls),
(163,13,o),
(171,12,o),
(183,8,cs),
(223,-6,l),
(242,-10,o),
(258,-12,o),
(274,-12,cs)
);
},
{
closed = 1;
nodes = (
(269,150,o),
(254,155,o),
(237,163,c),
(283,385,l),
(302,393,o),
(312,396,o),
(336,396,cs),
(375,396,o),
(416,374,o),
(416,316,cs),
(416,227,o),
(371,150,o),
(294,150,cs)
);
}
);
width = 635;
}
);
unicode = 384;
},
{
glyphname = c;
kernLeft = KO_o;
kernRight = KO_c;
lastChange = "2025-01-20 07:45:44 +0000";
layers = (
{
anchors = (
{
name = bottom;
pos = (223,0);
},
{
name = center;
pos = (224,261);
},
{
name = top;
pos = (333,522);
}
);
background = {
anchors = (
{
name = bottom;
pos = (212,0);
},
{
name = center;
pos = (246,246);
},
{
name = ogonek;
pos = (404,10);
},
{
name = top;
pos = (280,492);
},
{
name = topright;
pos = (500,492);
}
);
shapes = (
{
pos = (-2,0);
ref = o;
}
);
};
layerId = "62D20235-B81E-4649-AB7B-DFD33366F1EF";
shapes = (
{
closed = 1;
nodes = (
(293,-12,o),
(336,1,o),
(375,26,c),
(372,46,l),
(338,23,o),
(294,10,o),
(239,10,cs),
(126,10,o),
(83,96,o),
(83,204,cs),
(83,338,o),
(158,512,o),
(335,512,cs),
(374,512,o),
(408,503,o),
(443,481,c),
(455,499,l),
(421,522,o),
(380,534,o),
(335,534,cs),
(140,534,o),
(59,345,o),
(59,204,cs),
(59,88,o),
(109,-12,o),
(239,-12,cs)
);
}
);
width = 450;
},
{
anchors = (
{
name = bottom;
pos = (234,0);
},
{
name = center;
pos = (242,268);
},
{
name = top;
pos = (341,536);
}
);
layerId = "8F4FB2AA-9411-450E-BE3E-D587D5B5F5D1";
shapes = (
{
closed = 1;
nodes = (
(302,-12,o),
(366,8,o),
(416,41,c),
(387,121,l),
(350,96,o),
(308,80,o),
(257,80,cs),
(185,80,o),
(141,141,o),
(147,233,cs),
(154,329,o),
(201,457,o),
(324,457,cs),
(370,457,o),
(404,439,o),
(431,414,c),
(493,487,l),
(455,524,o),
(397,547,o),
(341,547,cs),
(137,547,o),
(56,384,o),
(45,229,cs),
(36,98,o),
(97,-12,o),
(239,-12,cs)
);
}
);
width = 489;
},
{
anchors = (
{
name = bottom;
pos = (267,0);
},
{
name = center;
pos = (255,273);
},
{
name = top;
pos = (345,546);
}
);
background = {
anchors = (
{
name = bottom;
pos = (226,0);
},
{
name = center;
pos = (262,255);
},
{
name = ogonek;
pos = (447,10);
},
{
name = top;
pos = (298,510);
},
{
name = topright;
pos = (552,510);
}
);
shapes = (
{
ref = o;
}
);
};
layerId = "3917E251-E52F-4C58-ACE3-A75BE580C29C";
shapes = (
{
closed = 1;
nodes = (
(348,-11,o),
(396,3,o),
(434,26,c),
(401,170,l),
(379,156,o),
(346,145,o),
(313,145,cs),
(252,145,o),
(217,180,o),
(223,252,cs),
(228,316,o),
(265,401,o),
(350,401,cs),
(382,401,o),
(413,390,o),
(434,367,c),
(516,503,l),
(480,536,o),
(425,557,o),
(357,557,cs),
(159,557,o),
(36,408,o),
(36,232,cs),
(38,82,o),
(151,-11,o),
(298,-11,cs)
);
}
);
width = 499;
}
);
metricLeft = o;
unicode = 99;
userData = {
KernOnName = c;
com.schriftgestaltung.Glyphs.ColorIndex = 3;
com.schriftgestaltung.Glyphs.layer.leftMetricsKey = "==o";
com.schriftgestaltung.Glyphs.leftMetricsKey = o;
};
},
{
color = 4;
glyphname = d;
kernLeft = KO_d;
kernRight = KO_d;
lastChange = "2025-01-20 07:45:44 +0000";
layers = (
{
anchors = (
{
name = bottom;
pos = (226,0);
},
{
name = center;
pos = (433,261);
},
{
name = ogonek;
pos = (498,-8);
},
{
name = top;
pos = (338,522);
},
{
name = topright;
pos = (663,750);
}
);
background = {
shapes = (
{
pos = (-2,0);
ref = a;
}
);
};
layerId = "62D20235-B81E-4649-AB7B-DFD33366F1EF";
shapes = (
{
closed = 1;
nodes = (
(277,-12,o),
(312,1,o),
(347,23,c),
(362,38,ls),
(368,43,o),
(375,43,o),
(383,39,cs),
(492,-10,l),
(503,11,l),
(402,58,l),
(550,750,l),
(526,750,l),
(475,515,ls),
(474,508,o),
(469,506,o),
(463,509,cs),
(436,523,l),
(412,529,o),
(386,534,o),
(354,534,cs),
(145,534,o),
(58,345,o),
(58,204,cs),
(58,88,o),
(108,-12,o),
(238,-12,cs)
);
},
{
closed = 1;
nodes = (
(125,10,o),
(82,96,o),
(82,204,cs),
(82,338,o),
(163,512,o),
(354,512,cs),
(403,512,o),
(435,499,o),
(469,485,c),
(381,74,l),
(332,34,o),
(294,10,o),
(238,10,cs)
);
}
);
width = 566;
},
{
anchors = (
{
name = bottom;
pos = (234,0);
},
{
name = center;
pos = (449,268);
},
{
name = ogonek;
pos = (503,-9);
},
{
name = top;
pos = (348,536);
},
{
name = topright;
pos = (691,750);
}
);
background = {
shapes = (
{
ref = a;
}
);
};
guides = (
{
angle = 82;
pos = (969,447);
},
{
angle = 82;
pos = (1087,540);
}
);
layerId = "8F4FB2AA-9411-450E-BE3E-D587D5B5F5D1";
shapes = (
{
closed = 1;
nodes = (
(281,-12,o),
(315,0,o),
(355,24,c),
(372,39,ls),
(378,45,o),
(385,45,o),
(392,42,cs),
(503,-9,l),
(555,84,l),
(473,120,l),
(606,750,l),
(501,750,l),
(457,548,ls),
(455,537,o),
(448,534,o),
(439,538,cs),
(427,543,l),
(406,546,o),
(384,548,o),
(362,548,cs),
(167,548,o),
(44,380,o),
(44,216,cs),
(44,88,o),
(110,-12,o),
(236,-12,cs)
);
},
{
closed = 1;
nodes = (
(182,78,o),
(154,144,o),
(154,214,cs),
(154,303,o),
(215,458,o),
(362,458,cs),
(383,458,o),
(409,455,o),
(435,446,c),
(369,135,l),
(326,91,o),
(292,78,o),
(267,78,cs)
);
}
);
width = 609;
},
{
anchors = (
{
name = bottom;
pos = (270,0);
},
{
name = center;
pos = (483,273);
},
{
name = ogonek;
pos = (527,-12);
},
{
name = top;
pos = (386,546);
},
{
name = topright;
pos = (753,750);
}
);
background = {
shapes = (
{
ref = a;
}
);
};
guides = (
{
angle = 82;
pos = (1774,389);
},
{
angle = 82;
pos = (1982,558);
}
);
layerId = "3917E251-E52F-4C58-ACE3-A75BE580C29C";
shapes = (
{
closed = 1;
nodes = (
(317,-12,o),
(334,-9,o),
(359,-6,c),
(400,25,ls),
(409,32,o),
(416,32,o),
(424,29,cs),
(527,-12,l),
(622,160,l),
(547,187,l),
(667,750,l),
(483,750,l),
(437,544,ls),
(436,538,o),
(432,536,o),
(426,538,cs),
(376,558,l),
(367,558,o),
(361,558,o),
(352,558,cs),
(140,558,o),
(35,381,o),
(35,234,cs),
(33,65,o),
(157,-12,o),
(287,-12,cs)
);
},
{
closed = 1;
nodes = (
(254,150,o),
(223,180,o),
(224,235,cs),
(224,303,o),
(260,396,o),
(347,396,cs),
(369,396,o),
(385,392,o),
(403,383,c),
(357,162,l),
(342,154,o),
(333,150,o),
(307,150,cs)
);
}
);
width = 663;
}
);
metricLeft = o;
unicode = 100;
userData = {
KernOnName = d;
com.schriftgestaltung.Glyphs.ColorIndex = 3;
com.schriftgestaltung.Glyphs.layer.leftMetricsKey = "==o";
com.schriftgestaltung.Glyphs.layer.rightMetricsKey = "==i";
com.schriftgestaltung.Glyphs.rightMetricsKey = l;
};
},
{
color = 4;
glyphname = dcroat;
kernLeft = KO_d;
kernRight = KO_d;
lastChange = "2025-01-19 16:39:55 +0000";
layers = (
{
background = {
shapes = (
{
pos = (329,0);
ref = bstroke;
}
);
};
layerId = "62D20235-B81E-4649-AB7B-DFD33366F1EF";
shapes = (
{
closed = 1;
nodes = (
(277,-12,o),
(312,1,o),
(347,23,c),
(362,38,ls),
(368,43,o),
(375,43,o),
(383,39,cs),
(492,-10,l),
(503,11,l),
(402,58,l),
(523,624,l),
(638,624,l),
(642,642,l),
(527,642,l),
(550,750,l),
(526,750,l),
(503,642,l),
(390,642,l),
(386,624,l),
(499,624,l),
(475,515,ls),
(474,508,o),
(469,506,o),
(463,509,cs),
(436,523,l),
(412,529,o),
(386,534,o),
(354,534,cs),
(145,534,o),
(58,345,o),
(58,204,cs),
(58,88,o),
(108,-12,o),
(238,-12,cs)
);
},
{
closed = 1;
nodes = (
(125,10,o),
(82,96,o),
(82,204,cs),
(82,338,o),
(163,512,o),
(354,512,cs),
(403,512,o),
(435,499,o),
(469,485,c),
(381,74,l),
(332,34,o),
(294,10,o),
(238,10,cs)
);
}
);
width = 566;
},
{
background = {
shapes = (
{
pos = (322,0);
ref = bstroke;
}
);
};
layerId = "8F4FB2AA-9411-450E-BE3E-D587D5B5F5D1";
shapes = (
{
closed = 1;
nodes = (
(281,-12,o),
(315,0,o),
(355,24,c),
(372,39,ls),
(377,44,o),
(385,45,o),
(392,42,cs),
(503,-9,l),
(555,84,l),
(473,120,l),
(573,596,l),
(671,596,l),
(690,677,l),
(591,677,l),
(606,750,l),
(501,750,l),
(485,677,l),
(379,677,l),
(360,596,l),
(467,596,l),
(457,548,ls),
(455,537,o),
(448,534,o),
(439,538,cs),
(427,543,l),
(406,546,o),
(384,548,o),
(362,548,cs),
(167,548,o),
(44,380,o),
(44,216,cs),
(44,88,o),
(110,-12,o),
(236,-12,cs)
);
},
{
closed = 1;
nodes = (
(182,78,o),
(154,144,o),
(154,214,cs),
(154,303,o),
(215,458,o),
(362,458,cs),
(383,458,o),
(409,455,o),
(435,446,c),
(369,135,l),
(326,91,o),
(292,78,o),
(267,78,cs)
);
}
);
width = 609;
},
{
background = {
shapes = (
{
pos = (312,0);
ref = bstroke;
}
);
};
layerId = "3917E251-E52F-4C58-ACE3-A75BE580C29C";
shapes = (
{
closed = 1;
nodes = (
(317,-12,o),
(334,-9,o),
(359,-6,c),
(400,25,ls),
(409,32,o),
(416,32,o),
(424,29,cs),
(527,-12,l),
(622,160,l),
(547,187,l),
(634,596,l),
(679,596,l),
(704,706,l),
(658,706,l),
(667,750,l),
(483,750,l),
(473,706,l),
(368,706,l),
(344,596,l),
(449,596,l),
(437,544,ls),
(436,538,o),
(432,536,o),
(426,538,cs),
(376,557,l),
(368,558,o),
(360,558,o),
(352,558,cs),
(140,558,o),
(35,381,o),
(35,234,cs),
(33,65,o),
(157,-12,o),
(287,-12,cs)
);
},
{
closed = 1;
nodes = (
(254,150,o),
(223,180,o),
(224,235,cs),
(224,303,o),
(260,396,o),
(347,396,cs),
(369,396,o),
(385,392,o),
(403,383,c),
(357,162,l),
(342,154,o),
(333,150,o),
(307,150,cs)
);
}
);
width = 663;
}
);
metricLeft = d;
unicode = 273;
},
{
glyphname = dzcaron;
lastChange = "2026-01-30 11:40:12 +0000";
layers = (
{
anchors = (
{
name = bottom;
pos = (757,0);
},
{
name = center;
pos = (433,261);
},
{
name = ogonek;
pos = (498,-8);
},
{
name = top;
pos = (900,679);
},
{
name = topright;
pos = (663,750);
}
);
layerId = "62D20235-B81E-4649-AB7B-DFD33366F1EF";
shapes = (
{
closed = 1;
nodes = (
(277,-12,o),
(312,1,o),
(347,23,c),
(362,38,ls),
(368,43,o),
(375,43,o),
(383,39,cs),
(492,-10,l),
(503,11,l),
(402,58,l),
(550,750,l),
(526,750,l),
(475,515,ls),
(474,508,o),
(469,506,o),
(463,509,cs),
(436,523,l),
(412,529,o),
(386,534,o),
(354,534,cs),
(145,534,o),
(58,345,o),
(58,204,cs),
(58,88,o),
(108,-12,o),
(238,-12,cs)
);
},
{
closed = 1;
nodes = (
(125,10,o),
(82,96,o),
(82,204,cs),
(82,338,o),
(163,512,o),
(354,512,cs),
(403,512,o),
(435,499,o),
(469,485,c),
(381,74,l),
(332,34,o),
(294,10,o),
(238,10,cs)
);
},
{
closed = 1;
nodes = (
(958,0,l),
(964,23,l),
(603,23,ls),
(596,23,o),
(591,27,o),
(598,33,cs),
(636,68,l),
(1067,506,l),
(1069,522,l),
(664,522,l),
(659,500,l),
(1024,500,ls),
(1032,500,o),
(1036,497,o),
(1027,490,cs),
(981,450,l),
(553,15,l),
(554,0,l)
);
},
{
closed = 1;
nodes = (
(898,618,l),
(1020,760,l),
(994,760,l),
(914,667,l),
(895,640,ls),
(890,633,o),
(883,634,o),
(881,640,cs),
(872,667,l),
(832,760,l),
(810,760,l),
(872,618,l)
);
}
);
width = 1069;
},
{
anchors = (
{
name = bottom;
pos = (814,0);
},
{
name = center;
pos = (449,268);
},
{
name = ogonek;
pos = (503,-9);
},
{
name = top;
pos = (971,743);
},
{
name = topright;
pos = (691,750);
}
);
layerId = "8F4FB2AA-9411-450E-BE3E-D587D5B5F5D1";
shapes = (
{
closed = 1;
nodes = (
(281,-12,o),
(315,0,o),
(355,24,c),
(372,39,ls),
(378,45,o),
(385,45,o),
(392,42,cs),
(503,-9,l),
(555,84,l),
(473,120,l),
(606,750,l),
(501,750,l),
(457,548,ls),
(455,537,o),
(448,534,o),
(439,538,cs),
(427,543,l),
(406,546,o),
(384,548,o),
(362,548,cs),
(167,548,o),
(44,380,o),
(44,216,cs),
(44,88,o),
(110,-12,o),
(236,-12,cs)
);
},
{
closed = 1;
nodes = (
(182,78,o),
(154,144,o),
(154,214,cs),
(154,303,o),
(215,458,o),
(362,458,cs),
(383,458,o),
(409,455,o),
(435,446,c),
(369,135,l),
(326,91,o),
(292,78,o),
(267,78,cs)
);
},
{
closed = 1;
nodes = (
(1029,0,l),
(1048,90,l),
(754,90,ls),
(747,90,o),
(744,98,o),
(750,103,cs),
(804,146,l),
(1128,462,l),
(1142,536,l),
(711,536,l),
(692,446,l),
(986,446,ls),
(995,446,o),
(996,440,o),
(989,434,cs),
(937,393,l),
(611,74,l),
(598,0,l)
);
},
{
closed = 1;
nodes = (
(996,618,l),
(1120,760,l),
(1030,760,l),
(981,703,l),
(960,673,ls),
(954,664,o),
(948,665,o),
(946,673,cs),
(940,703,l),
(915,760,l),
(829,760,l),
(891,618,l)
);
}
);
width = 1155;
},
{
anchors = (
{
name = bottom;
pos = (900,0);
},
{
name = center;
pos = (483,273);
},
{
name = ogonek;
pos = (527,-12);
},
{
name = top;
pos = (1064,760);
},
{
name = topright;
pos = (753,750);
}
);
layerId = "3917E251-E52F-4C58-ACE3-A75BE580C29C";
shapes = (
{
closed = 1;
nodes = (
(317,-12,o),
(334,-9,o),
(359,-6,c),
(400,25,ls),
(409,32,o),
(416,32,o),
(424,29,cs),
(527,-12,l),
(622,160,l),
(547,187,l),
(667,750,l),
(483,750,l),
(437,544,ls),
(436,538,o),
(432,536,o),
(426,538,cs),
(376,558,l),
(367,558,o),
(361,558,o),
(352,558,cs),
(140,558,o),
(35,381,o),
(35,234,cs),
(33,65,o),
(157,-12,o),
(287,-12,cs)
);
},
{
closed = 1;
nodes = (
(254,150,o),
(223,180,o),
(224,235,cs),
(224,303,o),
(260,396,o),
(347,396,cs),
(369,396,o),
(385,392,o),
(403,383,c),
(357,162,l),
(342,154,o),
(333,150,o),
(307,150,cs)
);
},
{
closed = 1;
nodes = (
(1135,0,l),
(1168,154,l),
(925,154,ls),
(916,154,o),
(915,165,o),
(922,169,cs),
(981,205,l),
(1223,391,l),
(1252,546,l),
(781,546,l),
(748,392,l),
(990,392,ls),
(999,392,o),
(999,382,o),
(991,377,cs),
(934,342,l),
(695,156,l),
(664,0,l)
);
},
{
closed = 1;
nodes = (
(1132,618,l),
(1251,760,l),
(1110,760,l),
(1078,722,l),
(1054,692,ls),
(1049,685,o),
(1039,684,o),
(1036,694,cs),
(1027,722,l),
(1011,760,l),
(877,760,l),
(936,618,l)
);
}
);
width = 1239;
}
);
unicode = 454;
},
{
glyphname = eth;
lastChange = "2025-01-19 17:48:57 +0000";
layers = (
{
anchors = (
{
name = bottom;
pos = (228,0);
},
{
name = top;
pos = (387,750);
}
);
background = {
shapes = (
{
pos = (-2,0);
ref = o;
}
);
};
layerId = "62D20235-B81E-4649-AB7B-DFD33366F1EF";
shapes = (
{
closed = 1;
nodes = (
(427,-12,o),
(505,177,o),
(505,318,cs),
(505,374,o),
(492,423,o),
(471,465,cs),
(332,750,l),
(306,750,l),
(422,517,ls),
(426,509,o),
(421,505,o),
(415,509,cs),
(387,525,l),
(365,532,o),
(349,534,o),
(325,534,cs),
(137,534,o),
(59,345,o),
(59,204,cs),
(59,88,o),
(109,-12,o),
(239,-12,cs)
);
},
{
closed = 1;
nodes = (
(126,10,o),
(83,96,o),
(83,204,cs),
(83,338,o),
(155,512,o),
(325,512,cs),
(438,512,o),
(481,426,o),
(481,318,cs),
(481,184,o),
(409,10,o),
(239,10,cs)
);
},
{
closed = 1;
nodes = (
(498,682,l),
(490,699,l),
(244,612,l),
(254,596,l)
);
}
);
width = 564;
},
{
anchors = (
{
name = bottom;
pos = (248,0);
},
{
name = top;
pos = (407,750);
}
);
background = {
anchors = (
{
name = bottom;
pos = (249,0);
},
{
name = center;
pos = (305,267);
},
{
name = ogonek;
pos = (342,0);
},
{
name = top;
pos = (361,533);
},
{
name = topright;
pos = (472,533);
}
);
shapes = (
{
closed = 1;
nodes = (
(450,-12,o),
(565,156,o),
(565,320,cs),
(565,448,o),
(488,548,o),
(342,548,cs),
(159,548,o),
(44,380,o),
(44,216,cs),
(44,88,o),
(121,-12,o),
(267,-12,cs)
);
},
{
closed = 1;
nodes = (
(182,78,o),
(154,144,o),
(154,214,cs),
(154,303,o),
(209,458,o),
(342,458,cs),
(427,458,o),
(455,392,o),
(455,322,cs),
(455,233,o),
(400,78,o),
(267,78,cs)
);
}
);
};
layerId = "8F4FB2AA-9411-450E-BE3E-D587D5B5F5D1";
shapes = (
{
closed = 1;
nodes = (
(450,-12,o),
(565,156,o),
(565,320,cs),
(565,364,o),
(563,404,o),
(514,497,cs),
(382,750,l),
(265,750,l),
(390,542,ls),
(396,532,o),
(383,524,o),
(373,529,cs),
(353,540,l),
(346,541,o),
(339,541,o),
(332,541,cs),
(162,541,o),
(44,371,o),
(44,216,cs),
(44,88,o),
(121,-12,o),
(267,-12,cs)
);
},
{
closed = 1;
nodes = (
(182,78,o),
(154,144,o),
(154,214,cs),
(154,302,o),
(209,454,o),
(342,454,cs),
(427,454,o),
(455,390,o),
(455,322,cs),
(455,233,o),
(400,78,o),
(267,78,cs)
);
},
{
closed = 1;
nodes = (
(525,693,l),
(493,750,l),
(214,637,l),
(247,577,l)
);
}
);
width = 610;
},
{
anchors = (
{
name = bottom;
pos = (269,0);
},
{
name = top;
pos = (428,750);
}
);
background = {
shapes = (
{
pos = (-1,0);
ref = o;
}
);
};
layerId = "3917E251-E52F-4C58-ACE3-A75BE580C29C";
shapes = (
{
closed = 1;
nodes = (
(494,-12,o),
(617,135,o),
(617,311,cs),
(618,354,o),
(609,391,o),
(594,424,cs),
(434,750,l),
(211,750,l),
(363,530,ls),
(370,520,o),
(356,506,o),
(343,511,cs),
(298,529,l),
(294,530,o),
(287,531,o),
(278,531,cs),
(144,531,o),
(35,389,o),
(35,235,cs),
(33,80,o),
(148,-12,o),
(296,-12,cs)
);
},
{
closed = 1;
nodes = (
(253,150,o),
(222,180,o),
(223,235,cs),
(223,300,o),
(259,389,o),
(346,389,cs),
(399,389,o),
(430,361,o),
(429,311,cs),
(429,243,o),
(393,150,o),
(306,150,cs)
);
},
{
closed = 1;
nodes = (
(589,654,l),
(543,750,l),
(143,670,l),
(198,573,l)
);
}
);
width = 653;
}
);
metricLeft = o;
metricRight = o;
unicode = 240;
userData = {
com.schriftgestaltung.Glyphs.leftMetricsKey = six;
com.schriftgestaltung.Glyphs.rightMetricsKey = six;
};
},
{
glyphname = e;
kernLeft = KO_e;
kernRight = KO_e;
lastChange = "2025-01-20 07:45:44 +0000";
layers = (
{
anchors = (
{
name = "abkhasian-hook";
pos = (74,253);
},
{
name = bottom;
pos = (242,0);
},
{
name = ogonek;
pos = (386,31);
},
{
name = top;
pos = (330,521);
}
);
background = {
shapes = (
{
pos = (-2,0);
ref = o;
}
);
};
layerId = "62D20235-B81E-4649-AB7B-DFD33366F1EF";
shapes = (
{
closed = 1;
nodes = (
(301,-12,o),
(365,0,o),
(431,71,c),
(416,85,l),
(357,24,o),
(307,10,o),
(239,10,cs),
(126,10,o),
(83,96,o),
(83,204,cs),
(83,338,o),
(155,512,o),
(325,512,cs),
(428,512,o),
(470,429,o),
(471,347,cs),
(472,324,o),
(468,299,o),
(462,275,c),
(74,275,l),
(74,253,l),
(468,253,l),
(485,274,l),
(492,298,o),
(495,323,o),
(495,347,cs),
(494,447,o),
(441,534,o),
(325,534,cs),
(137,534,o),
(59,345,o),
(59,204,cs),
(59,88,o),
(109,-12,o),
(239,-12,cs)
);
}
);
width = 550;
},
{
anchors = (
{
name = "abkhasian-hook";
pos = (132,230);
},
{
name = bottom;
pos = (248,0);
},
{
name = ogonek;
pos = (410,30);
},
{
name = top;
pos = (349,533);
}
);
background = {
shapes = (
{
ref = o;
}
);
};
layerId = "8F4FB2AA-9411-450E-BE3E-D587D5B5F5D1";
shapes = (
{
closed = 1;
nodes = (
(338,-12,o),
(413,11,o),
(483,98,c),
(411,149,l),
(360,96,o),
(320,78,o),
(268,78,cs),
(183,78,o),
(155,144,o),
(155,214,cs),
(155,303,o),
(210,458,o),
(343,458,cs),
(405,458,o),
(444,424,o),
(444,362,cs),
(444,348,o),
(442,332,o),
(438,315,c),
(132,315,l),
(132,230,l),
(495,230,l),
(531,283,l),
(539,314,o),
(543,346,o),
(543,374,cs),
(542,470,o),
(478,548,o),
(343,548,cs),
(160,548,o),
(45,380,o),
(45,216,cs),
(45,88,o),
(122,-12,o),
(268,-12,cs)
);
}
);
width = 583;
},
{
anchors = (
{
name = "abkhasian-hook";
pos = (152,216);
},
{
name = bottom;
pos = (284,0);
},
{
name = ogonek;
pos = (459,30);
},
{
name = top;
pos = (366,546);
}
);
background = {
shapes = (
{
ref = o;
},
{
ref = c;
}
);
};
layerId = "3917E251-E52F-4C58-ACE3-A75BE580C29C";
shapes = (
{
closed = 1;
nodes = (
(375,-12,o),
(454,14,o),
(514,71,c),
(428,183,l),
(389,153,o),
(349,136,o),
(305,136,cs),
(242,136,o),
(208,174,o),
(210,243,cs),
(210,317,o),
(254,419,o),
(354,419,cs),
(412,419,o),
(435,383,o),
(435,351,cs),
(435,345,o),
(434,339,o),
(432,333,c),
(152,333,l),
(152,216,l),
(548,216,l),
(596,277,l),
(602,301,o),
(604,325,o),
(604,348,cs),
(606,457,o),
(514,558,o),
(357,558,cs),
(159,558,o),
(36,411,o),
(36,235,cs),
(34,80,o),
(149,-12,o),
(297,-12,cs)
);
}
);
width = 627;
}
);
metricLeft = o;
unicode = 101;
userData = {
com.schriftgestaltung.Glyphs.ColorIndex = 3;
com.schriftgestaltung.Glyphs.layer.leftMetricsKey = "==o";
com.schriftgestaltung.Glyphs.leftMetricsKey = o;
};
},
{
glyphname = ezh;
lastChange = "2025-01-19 17:48:57 +0000";
layers = (
{
anchors = (
{
name = bottom;
pos = (153,0);
},
{
name = top;
pos = (258,522);
}
);
background = {
shapes = (
{
pos = (-44,0);
ref = g;
}
);
};
layerId = "62D20235-B81E-4649-AB7B-DFD33366F1EF";
shapes = (
{
closed = 1;
nodes = (
(239,-206,o),
(335,-134,o),
(344,-13,cs),
(353,114,o),
(262,179,o),
(108,173,c),
(108,164,l),
(447,506,l),
(451,522,l),
(84,522,l),
(79,500,l),
(400,500,ls),
(408,500,o),
(408,493,o),
(403,488,cs),
(363,455,l),
(82,168,l),
(79,152,l),
(126,152,ls),
(250,152,o),
(332,101,o),
(321,-13,cs),
(312,-105,o),
(246,-183,o),
(113,-183,cs),
(65,-183,o),
(9,-171,o),
(-28,-139,c),
(-37,-160,l),
(-9,-187,o),
(53,-206,o),
(110,-206,cs)
);
}
);
width = 439;
},
{
anchors = (
{
name = bottom;
pos = (178,0);
},
{
name = top;
pos = (285,536);
}
);
background = {
shapes = (
{
pos = (2,0);
ref = g;
}
);
};
layerId = "8F4FB2AA-9411-450E-BE3E-D587D5B5F5D1";
shapes = (
{
closed = 1;
nodes = (
(249,-209,o),
(359,-125,o),
(383,-11,cs),
(412,126,o),
(300,226,o),
(157,219,c),
(187,184,l),
(466,460,l),
(480,536,l),
(77,536,l),
(57,444,l),
(320,444,ls),
(330,444,o),
(332,432,o),
(322,427,cs),
(272,392,l),
(74,192,l),
(60,122,l),
(150,122,ls),
(248,122,o),
(289,74,o),
(277,8,cs),
(264,-59,o),
(200,-119,o),
(109,-119,cs),
(49,-119,o),
(1,-104,o),
(-39,-77,c),
(-77,-162,l),
(-33,-196,o),
(33,-209,o),
(102,-209,cs)
);
}
);
width = 465;
},
{
anchors = (
{
name = bottom;
pos = (215,0);
},
{
name = top;
pos = (324,546);
}
);
background = {
shapes = (
{
pos = (2,0);
ref = g;
}
);
};
layerId = "3917E251-E52F-4C58-ACE3-A75BE580C29C";
shapes = (
{
closed = 1;
nodes = (
(245,-234,o),
(402,-196,o),
(439,-27,cs),
(472,124,o),
(363,235,o),
(222,235,c),
(238,183,l),
(497,414,l),
(523,546,l),
(88,546,l),
(53,386,l),
(263,386,ls),
(273,386,o),
(275,376,o),
(265,369,cs),
(197,321,l),
(92,217,l),
(68,97,l),
(146,97,ls),
(218,97,o),
(267,55,o),
(256,1,cs),
(245,-51,o),
(195,-77,o),
(128,-77,cs),
(77,-77,o),
(35,-68,o),
(-9,-39,c),
(-76,-171,l),
(-24,-215,o),
(47,-234,o),
(118,-234,cs)
);
}
);
width = 511;
}
);
unicode = 658;
},
{
glyphname = f;
kernLeft = KO_f;
kernRight = KO_f;
lastChange = "2025-01-20 07:45:44 +0000";
layers = (
{
anchors = (
{
name = bottom;
pos = (99,0);
},
{
name = top;
pos = (204,492);
}
);
layerId = "62D20235-B81E-4649-AB7B-DFD33366F1EF";
shapes = (
{
closed = 1;
nodes = (
(99,0,l),
(206,500,l),
(358,500,l),
(363,522,l),
(211,522,l),
(232,624,ls),
(247,696,o),
(301,740,o),
(361,740,cs),
(388,740,o),
(407,736,o),
(426,728,c),
(431,750,l),
(412,758,o),
(390,762,o),
(362,762,cs),
(285,759,o),
(226,710,o),
(208,624,cs),
(187,522,l),
(76,522,l),
(71,500,l),
(182,500,l),
(75,0,l)
);
}
);
width = 327;
},
{
anchors = (
{
name = bottom;
pos = (135,0);
},
{
name = top;
pos = (242,504);
}
);
layerId = "8F4FB2AA-9411-450E-BE3E-D587D5B5F5D1";
shapes = (
{
closed = 1;
nodes = (
(169,0,l),
(264,444,l),
(374,444,l),
(393,536,l),
(283,536,l),
(298,607,ls),
(308,656,o),
(343,675,o),
(382,675,cs),
(405,675,o),
(426,671,o),
(440,665,c),
(459,750,l),
(436,759,o),
(412,763,o),
(383,763,cs),
(291,763,o),
(216,719,o),
(192,606,cs),
(177,536,l),
(77,536,l),
(58,444,l),
(158,444,l),
(63,0,l)
);
}
);
width = 357;
},
{
anchors = (
{
name = bottom;
pos = (173,0);
},
{
name = top;
pos = (282,517);
}
);
layerId = "3917E251-E52F-4C58-ACE3-A75BE580C29C";
shapes = (
{
closed = 1;
nodes = (
(257,0,l),
(339,386,l),
(445,386,l),
(479,546,l),
(373,546,l),
(376,558,ls),
(385,597,o),
(421,614,o),
(460,614,cs),
(482,614,o),
(497,611,o),
(512,606,c),
(542,750,l),
(515,758,o),
(484,762,o),
(434,762,cs),
(322,762,o),
(209,707,o),
(181,574,cs),
(175,546,l),
(78,546,l),
(44,386,l),
(141,386,l),
(59,0,l)
);
}
);
width = 441;
}
);
metricLeft = "=t";
unicode = 102;
userData = {
KernOnName = f;
com.schriftgestaltung.Glyphs.ColorIndex = 3;
};
},
{
glyphname = g;
kernLeft = KO_d;
kernRight = KO_g;
lastChange = "2025-01-19 17:48:57 +0000";
layers = (
{
anchors = (
{
name = bottom;
pos = (161,-250);
},
{
name = top;
pos = (325,522);
}
);
background = {
shapes = (
{
pos = (-2,0);
ref = a;
}
);
};
layerId = "62D20235-B81E-4649-AB7B-DFD33366F1EF";
shapes = (
{
closed = 1;
nodes = (
(271,-206,o),
(363,-138,o),
(392,0,cs),
(503,522,l),
(480,508,ls),
(474,505,o),
(470,506,o),
(465,508,cs),
(435,523,l),
(411,529,o),
(385,534,o),
(354,534,cs),
(145,534,o),
(58,345,o),
(58,204,cs),
(58,88,o),
(108,-12,o),
(238,-12,cs),
(276,-12,o),
(320,5,o),
(347,23,c),
(359,35,ls),
(367,43,o),
(375,36,o),
(373,28,cs),
(367,0,ls),
(340,-124,o),
(258,-183,o),
(155,-183,cs),
(107,-183,o),
(51,-171,o),
(14,-139,c),
(5,-160,l),
(33,-187,o),
(95,-206,o),
(152,-206,cs)
);
},
{
closed = 1;
nodes = (
(125,10,o),
(82,96,o),
(82,204,cs),
(82,338,o),
(163,512,o),
(354,512,cs),
(404,512,o),
(436,499,o),
(470,484,c),
(381,74,l),
(327,28,o),
(286,10,o),
(238,10,cs)
);
}
);
width = 541;
},
{
anchors = (
{
name = bottom;
pos = (189,-250);
},
{
name = top;
pos = (356,536);
}
);
background = {
shapes = (
{
ref = a;
}
);
};
layerId = "8F4FB2AA-9411-450E-BE3E-D587D5B5F5D1";
shapes = (
{
closed = 1;
nodes = (
(301,-209,o),
(415,-144,o),
(447,2,cs),
(566,542,l),
(484,527,ls),
(474,525,o),
(470,525,o),
(463,528,cs),
(427,543,l),
(406,546,o),
(384,548,o),
(362,548,cs),
(167,548,o),
(44,380,o),
(44,216,cs),
(44,88,o),
(110,-12,o),
(236,-12,cs),
(254,-12,o),
(264,-10,o),
(280,-6,c),
(328,22,ls),
(339,28,o),
(347,23,o),
(344,14,cs),
(340,2,ls),
(315,-73,o),
(258,-119,o),
(173,-119,cs),
(113,-119,o),
(65,-104,o),
(25,-77,c),
(-13,-162,l),
(31,-196,o),
(97,-209,o),
(166,-209,cs)
);
},
{
closed = 1;
nodes = (
(182,78,o),
(154,144,o),
(154,214,cs),
(154,303,o),
(215,458,o),
(362,458,cs),
(384,458,o),
(410,455,o),
(437,446,c),
(369,134,l),
(335,103,o),
(307,78,o),
(267,78,cs)
);
}
);
width = 581;
},
{
anchors = (
{
name = bottom;
pos = (234,-250);
},
{
name = top;
pos = (403,546);
}
);
background = {
shapes = (
{
ref = a;
}
);
};
layerId = "3917E251-E52F-4C58-ACE3-A75BE580C29C";
shapes = (
{
closed = 1;
nodes = (
(312,-234,o),
(471,-195,o),
(507,-27,cs),
(632,559,l),
(488,535,ls),
(476,533,o),
(469,535,o),
(457,539,cs),
(417,553,l),
(393,557,o),
(372,558,o),
(352,558,cs),
(140,558,o),
(35,381,o),
(35,234,cs),
(35,53,o),
(142,-12,o),
(220,-12,c),
(227,-12,o),
(232,-11,o),
(237,-9,c),
(303,22,ls),
(316,28,o),
(325,22,o),
(323,11,cs),
(320,-6,ls),
(311,-52,o),
(261,-77,o),
(196,-77,cs),
(145,-77,o),
(103,-68,o),
(59,-39,c),
(-8,-171,l),
(44,-215,o),
(114,-234,o),
(185,-234,cs)
);
},
{
closed = 1;
nodes = (
(254,150,o),
(223,180,o),
(224,235,cs),
(224,303,o),
(260,396,o),
(347,396,cs),
(369,396,o),
(385,392,o),
(403,383,c),
(357,162,l),
(342,154,o),
(333,150,o),
(307,150,cs)
);
}
);
width = 638;
}
);
unicode = 103;
},
{
glyphname = gstroke;
lastChange = "2026-03-12 14:42:54 +0000";
layers = (
{
layerId = "62D20235-B81E-4649-AB7B-DFD33366F1EF";
shapes = (
{
closed = 1;
nodes = (
(213,-206,o),
(299,-147,o),
(321,-44,cs),
(441,522,l),
(418,508,ls),
(412,505,o),
(408,506,o),
(403,508,cs),
(373,523,l),
(349,529,o),
(323,534,o),
(292,534,cs),
(83,534,o),
(-4,345,o),
(-4,204,cs),
(-4,88,o),
(46,-12,o),
(176,-12,cs),
(214,-12,o),
(258,5,o),
(285,23,c),
(297,35,ls),
(305,43,o),
(313,36,o),
(311,28,cs),
(296,-43,ls),
(275,-140,o),
(194,-183,o),
(93,-183,cs),
(45,-183,o),
(-11,-171,o),
(-48,-139,c),
(-57,-160,l),
(-29,-187,o),
(33,-206,o),
(90,-206,cs)
);
},
{
closed = 1;
nodes = (
(386,-92,l),
(390,-72,l),
(121,-72,l),
(117,-92,l)
);
},
{
closed = 1;
nodes = (
(63,10,o),
(20,96,o),
(20,204,cs),
(20,338,o),
(101,512,o),
(292,512,cs),
(342,512,o),
(374,499,o),
(408,484,c),
(319,74,l),
(265,28,o),
(224,10,o),
(176,10,cs)
);
}
);
width = 479;
},
{
layerId = "8F4FB2AA-9411-450E-BE3E-D587D5B5F5D1";
shapes = (
{
closed = 1;
nodes = (
(306,-209,o),
(410,-167,o),
(431,-73,cs),
(566,542,l),
(484,527,ls),
(474,525,o),
(470,525,o),
(463,528,cs),
(427,543,l),
(406,546,o),
(384,548,o),
(362,548,cs),
(174,548,o),
(57,395,o),
(57,247,cs),
(57,130,o),
(123,41,o),
(249,41,cs),
(267,41,o),
(277,43,o),
(293,47,c),
(341,75,ls),
(352,81,o),
(360,76,o),
(357,67,cs),
(321,-71,ls),
(313,-101,o),
(262,-119,o),
(183,-119,cs),
(119,-119,o),
(68,-104,o),
(25,-77,c),
(-13,-162,l),
(33,-196,o),
(103,-209,o),
(176,-209,cs)
);
},
{
closed = 1;
nodes = (
(496,-73,l),
(514,9,l),
(194,9,l),
(176,-73,l)
);
},
{
closed = 1;
nodes = (
(195,131,o),
(167,187,o),
(167,247,cs),
(167,324,o),
(223,458,o),
(362,458,cs),
(384,458,o),
(410,455,o),
(437,446,c),
(382,187,l),
(348,156,o),
(320,131,o),
(280,131,cs)
);
}
);
width = 581;
},
{
layerId = "3917E251-E52F-4C58-ACE3-A75BE580C29C";
shapes = (
{
closed = 1;
nodes = (
(312,-234,o),
(473,-197,o),
(507,-37,cs),
(632,559,l),
(488,535,ls),
(476,533,o),
(469,535,o),
(457,539,cs),
(417,553,l),
(393,557,o),
(372,558,o),
(352,558,cs),
(152,558,o),
(53,402,o),
(53,273,cs),
(53,125,o),
(145,74,o),
(239,74,c),
(246,74,o),
(251,75,o),
(256,77,c),
(322,108,ls),
(335,114,o),
(344,108,o),
(342,97,cs),
(312,-45,ls),
(306,-73,o),
(257,-87,o),
(196,-87,cs),
(145,-87,o),
(103,-78,o),
(59,-49,c),
(-8,-171,l),
(44,-215,o),
(114,-234,o),
(185,-234,cs)
);
},
{
closed = 1;
nodes = (
(563,-45,l),
(585,45,l),
(187,45,l),
(165,-45,l)
);
},
{
closed = 1;
nodes = (
(272,236,o),
(241,261,o),
(242,307,cs),
(242,345,o),
(273,396,o),
(347,396,cs),
(369,396,o),
(385,392,o),
(403,383,c),
(376,248,l),
(361,240,o),
(352,236,o),
(326,236,cs)
);
}
);
width = 638;
}
);
unicode = 485;
},
{
glyphname = h;
kernLeft = KO_h;
kernRight = KO_n;
lastChange = "2025-01-20 07:45:44 +0000";
layers = (
{
anchors = (
{
name = bottom;
pos = (220,0);
},
{
name = bottomright;
pos = (388,0);
},
{
name = center;
pos = (186,633);
},
{
name = top;
pos = (398,704);
}
);
background = {
shapes = (
{
pos = (-37,0);
ref = n;
}
);
};
layerId = "62D20235-B81E-4649-AB7B-DFD33366F1EF";
shapes = (
{
closed = 1;
nodes = (
(62,0,l),
(157,448,l),
(214,482,o),
(277,512,o),
(325,512,cs),
(432,512,o),
(456,431,o),
(437,340,cs),
(364,0,l),
(388,0,l),
(460,336,ls),
(481,434,o),
(459,534,o),
(328,534,cs),
(290,534,o),
(257,523,o),
(216,505,c),
(175,479,ls),
(169,475,o),
(162,478,o),
(164,486,cs),
(221,750,l),
(197,750,l),
(38,0,l)
);
}
);
width = 533;
},
{
anchors = (
{
name = bottom;
pos = (241,0);
},
{
name = bottomright;
pos = (440,0);
},
{
name = center;
pos = (215,636);
},
{
name = top;
pos = (425,718);
}
);
background = {
shapes = (
{
pos = (-37,0);
ref = n;
}
);
};
layerId = "8F4FB2AA-9411-450E-BE3E-D587D5B5F5D1";
shapes = (
{
closed = 1;
nodes = (
(124,0,l),
(208,398,l),
(256,444,o),
(287,458,o),
(330,458,cs),
(385,458,o),
(419,418,o),
(407,359,cs),
(331,0,l),
(439,0,l),
(512,344,ls),
(536,459,o),
(477,547,o),
(361,547,cs),
(335,547,o),
(324,545,o),
(307,543,c),
(252,504,ls),
(241,499,o),
(234,503,o),
(236,513,cs),
(286,750,l),
(181,750,l),
(16,0,l)
);
}
);
width = 573;
},
{
anchors = (
{
name = bottom;
pos = (284,0);
},
{
name = bottomright;
pos = (541,0);
},
{
name = center;
pos = (266,641);
},
{
name = top;
pos = (481,728);
}
);
background = {
shapes = (
{
pos = (-34,0);
ref = n;
}
);
};
layerId = "3917E251-E52F-4C58-ACE3-A75BE580C29C";
shapes = (
{
closed = 1;
nodes = (
(205,0,l),
(283,362,l),
(313,387,o),
(340,397,o),
(369,397,cs),
(407,397,o),
(429,369,o),
(421,329,cs),
(351,0,l),
(547,0,l),
(615,318,ls),
(648,474,o),
(536,558,o),
(443,558,cs),
(432,558,o),
(422,557,o),
(414,556,c),
(338,524,ls),
(324,518,o),
(315,524,o),
(317,535,cs),
(361,750,l),
(168,750,l),
(9,0,l)
);
}
);
width = 663;
}
);
metricRight = n;
unicode = 104;
userData = {
KernOnName = h;
com.schriftgestaltung.Glyphs.ColorIndex = 3;
com.schriftgestaltung.Glyphs.layer.leftMetricsKey = "==n";
com.schriftgestaltung.Glyphs.layer.rightMetricsKey = "==n";
com.schriftgestaltung.Glyphs.leftMetricsKey = n;
com.schriftgestaltung.Glyphs.rightMetricsKey = n;
};
},
{
glyphname = hbar;
kernRight = KO_hbar;
lastChange = "2026-02-13 12:27:31 +0000";
layers = (
{
anchors = (
{
name = bottom;
pos = (220,0);
},
{
name = bottomright;
pos = (388,0);
},
{
name = center;
pos = (186,633);
},
{
name = top;
pos = (398,704);
}
);
background = {
shapes = (
{
closed = 1;
nodes = (
(8942,597,l),
(8942,619,l),
(8690,619,l),
(8690,597,l)
);
},
{
closed = 1;
nodes = (
(8826,0,l),
(8826,329,ls),
(8826,451,o),
(8912,512,o),
(9002,512,cs),
(9094,512,o),
(9169,455,o),
(9169,339,cs),
(9169,0,l),
(9193,0,l),
(9193,339,ls),
(9193,471,o),
(9105,534,o),
(9003,534,cs),
(8933,534,o),
(8861,497,o),
(8836,427,cs),
(8833,419,o),
(8826,422,o),
(8826,429,cs),
(8826,522,l),
(8802,522,l),
(8802,0,l)
);
},
{
closed = 1;
nodes = (
(8826,522,l),
(8826,750,l),
(8802,750,l),
(8802,522,l)
);
}
);
};
layerId = "62D20235-B81E-4649-AB7B-DFD33366F1EF";
shapes = (
{
closed = 1;
nodes = (
(62,0,l),
(157,448,l),
(214,482,o),
(277,512,o),
(325,512,cs),
(432,512,o),
(456,431,o),
(437,340,cs),
(364,0,l),
(388,0,l),
(460,336,ls),
(481,434,o),
(459,534,o),
(328,534,cs),
(290,534,o),
(257,523,o),
(216,505,c),
(175,479,ls),
(169,475,o),
(162,478,o),
(164,486,cs),
(194,623,l),
(309,623,l),
(313,643,l),
(198,643,l),
(221,750,l),
(197,750,l),
(174,643,l),
(61,643,l),
(57,623,l),
(170,623,l),
(38,0,l)
);
}
);
width = 533;
},
{
anchors = (
{
name = bottom;
pos = (241,0);
},
{
name = bottomright;
pos = (440,0);
},
{
name = center;
pos = (215,636);
},
{
name = top;
pos = (425,718);
}
);
background = {
shapes = (
{
closed = 1;
nodes = (
(8761,587,l),
(8761,677,l),
(8450,677,l),
(8450,587,l)
);
},
{
closed = 1;
nodes = (
(8662,0,l),
(8662,337,ls),
(8662,407,o),
(8713,453,o),
(8785,453,cs),
(8849,453,o),
(8895,404,o),
(8895,337,cs),
(8895,0,l),
(9003,0,l),
(9003,345,ls),
(9003,483,o),
(8908,548,o),
(8816,548,cs),
(8751,548,o),
(8712,521,o),
(8677,482,cs),
(8672,476,o),
(8662,479,o),
(8662,487,cs),
(8662,536,l),
(8554,536,l),
(8554,0,l)
);
},
{
closed = 1;
nodes = (
(8662,536,l),
(8662,750,l),
(8554,750,l),
(8554,536,l)
);
}
);
};
layerId = "8F4FB2AA-9411-450E-BE3E-D587D5B5F5D1";
shapes = (
{
closed = 1;
nodes = (
(124,0,l),
(208,398,l),
(256,444,o),
(287,458,o),
(330,458,cs),
(385,458,o),
(419,418,o),
(407,359,cs),
(331,0,l),
(439,0,l),
(512,344,ls),
(536,459,o),
(477,547,o),
(361,547,cs),
(335,547,o),
(324,545,o),
(307,543,c),
(252,504,l),
(241,499,o),
(234,503,o),
(236,513,cs),
(252,591,l),
(361,591,l),
(380,681,l),
(271,681,l),
(286,750,l),
(181,750,l),
(166,681,l),
(69,681,l),
(50,591,l),
(146,591,l),
(16,0,l)
);
}
);
width = 573;
},
{
anchors = (
{
name = bottom;
pos = (284,0);
},
{
name = bottomright;
pos = (547,0);
},
{
name = center;
pos = (266,641);
},
{
name = top;
pos = (481,728);
}
);
background = {
shapes = (
{
closed = 1;
nodes = (
(4780,571,l),
(4780,705,l),
(4407,705,l),
(4407,571,l)
);
},
{
closed = 1;
nodes = (
(4682,0,l),
(4682,320,ls),
(4682,366,o),
(4721,389,o),
(4758,389,cs),
(4798,389,o),
(4839,367,o),
(4839,320,cs),
(4839,0,l),
(5035,0,l),
(5035,361,ls),
(5035,496,o),
(4933,558,o),
(4836,558,cs),
(4755,558,o),
(4731,529,o),
(4698,494,cs),
(4692,488,o),
(4682,492,o),
(4682,500,cs),
(4682,546,l),
(4486,546,l),
(4486,0,l)
);
},
{
closed = 1;
nodes = (
(4682,546,l),
(4682,750,l),
(4486,750,l),
(4486,546,l)
);
}
);
};
layerId = "3917E251-E52F-4C58-ACE3-A75BE580C29C";
shapes = (
{
closed = 1;
nodes = (
(205,0,l),
(283,362,l),
(313,387,o),
(340,397,o),
(369,397,cs),
(407,397,o),
(429,369,o),
(421,329,cs),
(351,0,l),
(547,0,l),
(615,318,ls),
(648,474,o),
(536,558,o),
(443,558,cs),
(432,558,o),
(422,557,o),
(414,556,c),
(338,524,ls),
(324,518,o),
(315,524,o),
(317,535,cs),
(324,567,l),
(436,567,l),
(469,706,l),
(352,706,l),
(361,750,l),
(168,750,l),
(159,706,l),
(96,706,l),
(63,567,l),
(129,567,l),
(9,0,l)
);
}
);
width = 663;
}
);
metricLeft = t;
metricRight = h;
unicode = 295;
},
{
glyphname = hbar.001;
kernRight = KO_hbar;
lastChange = "2026-02-13 12:27:31 +0000";
layers = (
{
anchors = (
{
name = bottom;
pos = (220,0);
},
{
name = bottomright;
pos = (388,0);
},
{
name = center;
pos = (186,633);
},
{
name = top;
pos = (398,704);
}
);
background = {
shapes = (
{
closed = 1;
nodes = (
(8942,597,l),
(8942,619,l),
(8690,619,l),
(8690,597,l)
);
},
{
closed = 1;
nodes = (
(8826,0,l),
(8826,329,ls),
(8826,451,o),
(8912,512,o),
(9002,512,cs),
(9094,512,o),
(9169,455,o),
(9169,339,cs),
(9169,0,l),
(9193,0,l),
(9193,339,ls),
(9193,471,o),
(9105,534,o),
(9003,534,cs),
(8933,534,o),
(8861,497,o),
(8836,427,cs),
(8833,419,o),
(8826,422,o),
(8826,429,cs),
(8826,522,l),
(8802,522,l),
(8802,0,l)
);
},
{
closed = 1;
nodes = (
(8826,522,l),
(8826,750,l),
(8802,750,l),
(8802,522,l)
);
}
);
};
layerId = "62D20235-B81E-4649-AB7B-DFD33366F1EF";
shapes = (
{
closed = 1;
nodes = (
(62,0,l),
(157,448,l),
(214,482,o),
(277,512,o),
(325,512,cs),
(432,512,o),
(456,431,o),
(437,340,cs),
(364,0,l),
(388,0,l),
(460,336,ls),
(481,434,o),
(459,534,o),
(328,534,cs),
(290,534,o),
(257,523,o),
(216,505,c),
(175,479,ls),
(169,475,o),
(162,478,o),
(164,486,cs),
(194,623,l),
(309,623,l),
(313,643,l),
(198,643,l),
(221,750,l),
(197,750,l),
(174,643,l),
(61,643,l),
(57,623,l),
(170,623,l),
(38,0,l)
);
}
);
width = 533;
},
{
anchors = (
{
name = bottom;
pos = (241,0);
},
{
name = bottomright;
pos = (440,0);
},
{
name = center;
pos = (215,636);
},
{
name = top;
pos = (425,718);
}
);
background = {
shapes = (
{
closed = 1;
nodes = (
(8761,587,l),
(8761,677,l),
(8450,677,l),
(8450,587,l)
);
},
{
closed = 1;
nodes = (
(8662,0,l),
(8662,337,ls),
(8662,407,o),
(8713,453,o),
(8785,453,cs),
(8849,453,o),
(8895,404,o),
(8895,337,cs),
(8895,0,l),
(9003,0,l),
(9003,345,ls),
(9003,483,o),
(8908,548,o),
(8816,548,cs),
(8751,548,o),
(8712,521,o),
(8677,482,cs),
(8672,476,o),
(8662,479,o),
(8662,487,cs),
(8662,536,l),
(8554,536,l),
(8554,0,l)
);
},
{
closed = 1;
nodes = (
(8662,536,l),
(8662,750,l),
(8554,750,l),
(8554,536,l)
);
}
);
};
layerId = "8F4FB2AA-9411-450E-BE3E-D587D5B5F5D1";
shapes = (
{
closed = 1;
nodes = (
(124,0,l),
(208,398,l),
(256,444,o),
(287,458,o),
(330,458,cs),
(385,458,o),
(419,418,o),
(407,359,cs),
(331,0,l),
(439,0,l),
(512,344,ls),
(536,459,o),
(477,547,o),
(361,547,cs),
(335,547,o),
(324,545,o),
(307,543,c),
(252,504,l),
(241,499,o),
(234,503,o),
(236,513,cs),
(252,591,l),
(361,591,l),
(380,681,l),
(271,681,l),
(286,750,l),
(181,750,l),
(166,681,l),
(69,681,l),
(50,591,l),
(146,591,l),
(16,0,l)
);
}
);
width = 573;
},
{
anchors = (
{
name = bottom;
pos = (284,0);
},
{
name = bottomright;
pos = (547,0);
},
{
name = center;
pos = (266,641);
},
{
name = top;
pos = (481,728);
}
);
background = {
shapes = (
{
closed = 1;
nodes = (
(4780,571,l),
(4780,705,l),
(4407,705,l),
(4407,571,l)
);
},
{
closed = 1;
nodes = (
(4682,0,l),
(4682,320,ls),
(4682,366,o),
(4721,389,o),
(4758,389,cs),
(4798,389,o),
(4839,367,o),
(4839,320,cs),
(4839,0,l),
(5035,0,l),
(5035,361,ls),
(5035,496,o),
(4933,558,o),
(4836,558,cs),
(4755,558,o),
(4731,529,o),
(4698,494,cs),
(4692,488,o),
(4682,492,o),
(4682,500,cs),
(4682,546,l),
(4486,546,l),
(4486,0,l)
);
},
{
closed = 1;
nodes = (
(4682,546,l),
(4682,750,l),
(4486,750,l),
(4486,546,l)
);
}
);
};
layerId = "3917E251-E52F-4C58-ACE3-A75BE580C29C";
shapes = (
{
closed = 1;
nodes = (
(205,0,l),
(283,362,l),
(313,387,o),
(340,397,o),
(369,397,cs),
(407,397,o),
(429,369,o),
(421,329,cs),
(351,0,l),
(547,0,l),
(615,318,ls),
(648,474,o),
(536,558,o),
(443,558,cs),
(432,558,o),
(422,557,o),
(414,556,c),
(338,524,ls),
(324,518,o),
(315,524,o),
(317,535,cs),
(324,567,l),
(436,567,l),
(469,706,l),
(352,706,l),
(361,750,l),
(168,750,l),
(159,706,l),
(96,706,l),
(63,567,l),
(129,567,l),
(9,0,l)
);
}
);
width = 663;
}
);
metricLeft = t;
metricRight = h;
},
{
glyphname = i;
kernLeft = KO_i;
kernRight = KO_i;
lastChange = "2026-01-30 11:44:42 +0000";
layers = (
{
anchors = (
{
name = bottom;
pos = (47,0);
},
{
name = center;
pos = (105,261);
},
{
name = ogonek;
pos = (59,0);
},
{
name = top;
pos = (199,703);
}
);
layerId = "62D20235-B81E-4649-AB7B-DFD33366F1EF";
shapes = (
{
closed = 1;
nodes = (
(59,0,l),
(170,522,l),
(76,522,l),
(71,500,l),
(142,500,l),
(35,0,l)
);
},
{
closed = 1;
nodes = (
(196,632,l),
(221,750,l),
(197,750,l),
(172,632,l)
);
}
);
width = 208;
},
{
anchors = (
{
name = bottom;
pos = (96,0);
},
{
name = center;
pos = (163,268);
},
{
name = ogonek;
pos = (162,0);
},
{
name = top;
pos = (267,750);
}
);
layerId = "8F4FB2AA-9411-450E-BE3E-D587D5B5F5D1";
shapes = (
{
closed = 1;
nodes = (
(162,0,l),
(280,536,l),
(77,536,l),
(58,444,l),
(151,444,l),
(53,0,l)
);
},
{
closed = 1;
nodes = (
(296,632,l),
(321,750,l),
(213,750,l),
(188,632,l)
);
}
);
width = 296;
},
{
anchors = (
{
name = bottom;
pos = (131,0);
},
{
name = center;
pos = (203,268);
},
{
name = ogonek;
pos = (243,0);
},
{
name = top;
pos = (294,753);
}
);
layerId = "3917E251-E52F-4C58-ACE3-A75BE580C29C";
shapes = (
{
closed = 1;
nodes = (
(243,0,l),
(359,546,l),
(78,546,l),
(44,386,l),
(132,386,l),
(50,0,l)
);
},
{
closed = 1;
nodes = (
(374,618,l),
(402,750,l),
(185,750,l),
(157,618,l)
);
}
);
width = 368;
}
);
unicode = 105;
userData = {
KernOnName = i;
com.schriftgestaltung.Glyphs.ColorIndex = 3;
};
},
{
glyphname = idotless;
kernLeft = KO_i;
kernRight = "KO_en-cy";
lastChange = "2025-01-20 07:45:44 +0000";
layers = (
{
anchors = (
{
name = bottom;
pos = (47,0);
},
{
name = center;
pos = (105,261);
},
{
name = ogonek;
pos = (59,0);
},
{
name = top;
pos = (160,522);
}
);
layerId = "62D20235-B81E-4649-AB7B-DFD33366F1EF";
shapes = (
{
closed = 1;
nodes = (
(59,0,l),
(170,522,l),
(76,522,l),
(71,500,l),
(142,500,l),
(35,0,l)
);
}
);
width = 208;
},
{
anchors = (
{
name = bottom;
pos = (96,0);
},
{
name = center;
pos = (163,268);
},
{
name = ogonek;
pos = (162,0);
},
{
name = top;
pos = (222,536);
}
);
layerId = "8F4FB2AA-9411-450E-BE3E-D587D5B5F5D1";
shapes = (
{
closed = 1;
nodes = (
(162,0,l),
(280,536,l),
(77,536,l),
(58,444,l),
(151,444,l),
(53,0,l)
);
}
);
width = 296;
},
{
anchors = (
{
name = bottom;
pos = (131,0);
},
{
name = center;
pos = (203,268);
},
{
name = ogonek;
pos = (243,0);
},
{
name = top;
pos = (250,546);
}
);
layerId = "3917E251-E52F-4C58-ACE3-A75BE580C29C";
shapes = (
{
closed = 1;
nodes = (
(243,0,l),
(359,546,l),
(78,546,l),
(44,386,l),
(132,386,l),
(50,0,l)
);
}
);
width = 368;
}
);
metricRight = "=|n";
unicode = 305;
userData = {
KernOnName = idotless;
};
},
{
color = 9;
glyphname = icaron.ss01;
lastChange = "2026-02-13 12:17:46 +0000";
layers = (
{
anchors = (
{
name = bottom;
pos = (47,0);
},
{
name = center;
pos = (105,261);
},
{
name = ogonek;
pos = (59,0);
},
{
name = top;
pos = (194,679);
}
);
layerId = "62D20235-B81E-4649-AB7B-DFD33366F1EF";
shapes = (
{
closed = 1;
nodes = (
(59,0,l),
(170,522,l),
(76,522,l),
(71,500,l),
(142,500,l),
(35,0,l)
);
},
{
closed = 1;
nodes = (
(192,618,l),
(314,760,l),
(288,760,l),
(208,667,l),
(189,640,ls),
(184,633,o),
(177,634,o),
(175,640,cs),
(166,667,l),
(126,760,l),
(104,760,l),
(166,618,l)
);
}
);
width = 208;
},
{
anchors = (
{
name = bottom;
pos = (96,0);
},
{
name = center;
pos = (163,268);
},
{
name = ogonek;
pos = (162,0);
},
{
name = top;
pos = (266,743);
}
);
layerId = "8F4FB2AA-9411-450E-BE3E-D587D5B5F5D1";
shapes = (
{
closed = 1;
nodes = (
(162,0,l),
(280,536,l),
(77,536,l),
(58,444,l),
(151,444,l),
(53,0,l)
);
},
{
closed = 1;
nodes = (
(291,618,l),
(415,760,l),
(325,760,l),
(276,703,l),
(255,673,ls),
(249,664,o),
(243,665,o),
(241,673,cs),
(235,703,l),
(210,760,l),
(124,760,l),
(186,618,l)
);
}
);
width = 296;
},
{
anchors = (
{
name = bottom;
pos = (131,0);
},
{
name = center;
pos = (203,268);
},
{
name = ogonek;
pos = (243,0);
},
{
name = top;
pos = (296,760);
}
);
layerId = "3917E251-E52F-4C58-ACE3-A75BE580C29C";
shapes = (
{
closed = 1;
nodes = (
(243,0,l),
(359,546,l),
(78,546,l),
(44,386,l),
(132,386,l),
(50,0,l)
);
},
{
closed = 1;
nodes = (
(364,618,l),
(483,760,l),
(342,760,l),
(310,722,l),
(286,692,ls),
(281,685,o),
(271,684,o),
(268,694,cs),
(259,722,l),
(243,760,l),
(109,760,l),
(168,618,l)
);
}
);
width = 368;
}
);
},
{
glyphname = idotbelow;
kernLeft = KO_i;
kernRight = KO_i;
lastChange = "2026-01-30 11:40:58 +0000";
layers = (
{
anchors = (
{
name = bottom;
pos = (-1,-228);
},
{
name = center;
pos = (105,261);
},
{
name = ogonek;
pos = (59,0);
},
{
name = top;
pos = (199,703);
}
);
layerId = "62D20235-B81E-4649-AB7B-DFD33366F1EF";
shapes = (
{
closed = 1;
nodes = (
(196,632,l),
(221,750,l),
(197,750,l),
(172,632,l)
);
},
{
closed = 1;
nodes = (
(11,-228,l),
(36,-110,l),
(12,-110,l),
(-13,-228,l)
);
},
{
ref = idotless;
}
);
width = 208;
},
{
anchors = (
{
name = bottom;
pos = (51,-214);
},
{
name = center;
pos = (163,268);
},
{
name = ogonek;
pos = (162,0);
},
{
name = top;
pos = (267,750);
}
);
layerId = "8F4FB2AA-9411-450E-BE3E-D587D5B5F5D1";
shapes = (
{
closed = 1;
nodes = (
(296,632,l),
(321,750,l),
(213,750,l),
(188,632,l)
);
},
{
closed = 1;
nodes = (
(105,-214,l),
(130,-96,l),
(22,-96,l),
(-3,-214,l)
);
},
{
ref = idotless;
}
);
width = 296;
},
{
anchors = (
{
name = bottom;
pos = (87,-204);
},
{
name = center;
pos = (203,268);
},
{
name = ogonek;
pos = (243,0);
},
{
name = top;
pos = (294,753);
}
);
layerId = "3917E251-E52F-4C58-ACE3-A75BE580C29C";
shapes = (
{
closed = 1;
nodes = (
(374,618,l),
(402,750,l),
(185,750,l),
(157,618,l)
);
},
{
closed = 1;
nodes = (
(196,-204,l),
(224,-72,l),
(7,-72,l),
(-21,-204,l)
);
},
{
ref = idotless;
}
);
width = 368;
}
);
unicode = 7883;
},
{
color = 9;
glyphname = idotbelow.ss01;
kernLeft = KO_i.ss01;
lastChange = "2026-02-13 12:17:24 +0000";
layers = (
{
anchors = (
{
name = bottom;
pos = (-1,-228);
},
{
name = center;
pos = (105,261);
},
{
name = ogonek;
pos = (59,0);
},
{
name = top;
pos = (199,703);
}
);
layerId = "62D20235-B81E-4649-AB7B-DFD33366F1EF";
shapes = (
{
closed = 1;
nodes = (
(196,632,l),
(221,750,l),
(197,750,l),
(172,632,l)
);
},
{
closed = 1;
nodes = (
(11,-228,l),
(36,-110,l),
(12,-110,l),
(-13,-228,l)
);
},
{
ref = idotless;
}
);
width = 208;
},
{
anchors = (
{
name = bottom;
pos = (51,-214);
},
{
name = center;
pos = (163,268);
},
{
name = ogonek;
pos = (162,0);
},
{
name = top;
pos = (267,750);
}
);
layerId = "8F4FB2AA-9411-450E-BE3E-D587D5B5F5D1";
shapes = (
{
closed = 1;
nodes = (
(296,632,l),
(321,750,l),
(213,750,l),
(188,632,l)
);
},
{
closed = 1;
nodes = (
(105,-214,l),
(130,-96,l),
(22,-96,l),
(-3,-214,l)
);
},
{
ref = idotless;
}
);
width = 296;
},
{
anchors = (
{
name = bottom;
pos = (87,-204);
},
{
name = center;
pos = (203,268);
},
{
name = ogonek;
pos = (243,0);
},
{
name = top;
pos = (294,753);
}
);
layerId = "3917E251-E52F-4C58-ACE3-A75BE580C29C";
shapes = (
{
closed = 1;
nodes = (
(374,618,l),
(402,750,l),
(185,750,l),
(157,618,l)
);
},
{
closed = 1;
nodes = (
(196,-204,l),
(224,-72,l),
(7,-72,l),
(-21,-204,l)
);
},
{
ref = idotless;
}
);
width = 368;
}
);
},
{
color = 4;
glyphname = istroke;
lastChange = "2026-03-12 14:38:58 +0000";
layers = (
{
anchors = (
{
name = bottom;
pos = (47,0);
},
{
name = center;
pos = (105,261);
},
{
name = ogonek;
pos = (59,0);
},
{
name = top;
pos = (199,703);
}
);
background = {
anchors = (
{
name = bottom;
pos = (47,0);
},
{
name = center;
pos = (105,261);
},
{
name = ogonek;
pos = (59,0);
},
{
name = top;
pos = (199,703);
}
);
shapes = (
{
closed = 1;
nodes = (
(59,0,l),
(170,522,l),
(76,522,l),
(71,500,l),
(142,500,l),
(35,0,l)
);
},
{
closed = 1;
nodes = (
(196,632,l),
(221,750,l),
(197,750,l),
(172,632,l)
);
},
{
closed = 1;
nodes = (
(228,251,l),
(232,271,l),
(-20,271,l),
(-24,251,l)
);
}
);
};
layerId = "62D20235-B81E-4649-AB7B-DFD33366F1EF";
shapes = (
{
closed = 1;
nodes = (
(59,0,l),
(170,522,l),
(76,522,l),
(71,500,l),
(142,500,l),
(35,0,l)
);
},
{
closed = 1;
nodes = (
(196,632,l),
(221,750,l),
(197,750,l),
(172,632,l)
);
},
{
closed = 1;
nodes = (
(228,251,l),
(232,271,l),
(-20,271,l),
(-24,251,l)
);
}
);
width = 208;
},
{
anchors = (
{
name = bottom;
pos = (96,0);
},
{
name = center;
pos = (163,268);
},
{
name = ogonek;
pos = (162,0);
},
{
name = top;
pos = (267,750);
}
);
background = {
anchors = (
{
name = bottom;
pos = (96,0);
},
{
name = center;
pos = (163,268);
},
{
name = ogonek;
pos = (162,0);
},
{
name = top;
pos = (267,750);
}
);
shapes = (
{
closed = 1;
nodes = (
(162,0,l),
(280,536,l),
(77,536,l),
(58,444,l),
(151,444,l),
(53,0,l)
);
},
{
closed = 1;
nodes = (
(296,632,l),
(321,750,l),
(213,750,l),
(188,632,l)
);
},
{
closed = 1;
nodes = (
(309,223,l),
(328,313,l),
(17,313,l),
(-2,223,l)
);
}
);
};
layerId = "8F4FB2AA-9411-450E-BE3E-D587D5B5F5D1";
shapes = (
{
closed = 1;
nodes = (
(162,0,l),
(280,536,l),
(77,536,l),
(58,444,l),
(151,444,l),
(53,0,l)
);
},
{
closed = 1;
nodes = (
(296,632,l),
(321,750,l),
(213,750,l),
(188,632,l)
);
},
{
closed = 1;
nodes = (
(309,228,l),
(328,314,l),
(17,314,l),
(-2,228,l)
);
}
);
width = 296;
},
{
anchors = (
{
name = bottom;
pos = (131,0);
},
{
name = center;
pos = (203,268);
},
{
name = ogonek;
pos = (243,0);
},
{
name = top;
pos = (294,753);
}
);
background = {
anchors = (
{
name = bottom;
pos = (131,0);
},
{
name = center;
pos = (203,268);
},
{
name = ogonek;
pos = (243,0);
},
{
name = top;
pos = (294,753);
}
);
shapes = (
{
closed = 1;
nodes = (
(243,0,l),
(359,546,l),
(78,546,l),
(44,386,l),
(132,386,l),
(50,0,l)
);
},
{
closed = 1;
nodes = (
(374,618,l),
(402,750,l),
(185,750,l),
(157,618,l)
);
},
{
closed = 1;
nodes = (
(373,186,l),
(406,340,l),
(33,340,l),
(0,186,l)
);
}
);
};
layerId = "3917E251-E52F-4C58-ACE3-A75BE580C29C";
shapes = (
{
closed = 1;
nodes = (
(243,0,l),
(359,546,l),
(78,546,l),
(44,386,l),
(132,386,l),
(50,0,l)
);
},
{
closed = 1;
nodes = (
(374,618,l),
(402,750,l),
(185,750,l),
(157,618,l)
);
},
{
closed = 1;
nodes = (
(375,201,l),
(406,340,l),
(33,340,l),
(2,201,l)
);
}
);
width = 368;
}
);
unicode = 616;
},
{
glyphname = ij;
kernLeft = KO_i;
lastChange = "2026-01-30 11:36:07 +0000";
layers = (
{
anchors = (
{
name = bottom;
pos = (193,-265);
},
{
name = center;
pos = (105,261);
},
{
name = ogonek;
pos = (59,0);
},
{
name = top;
pos = (418,703);
}
);
layerId = "62D20235-B81E-4649-AB7B-DFD33366F1EF";
shapes = (
{
closed = 1;
nodes = (
(59,0,l),
(170,522,l),
(76,522,l),
(71,500,l),
(142,500,l),
(35,0,l)
);
},
{
closed = 1;
nodes = (
(196,632,l),
(221,750,l),
(197,750,l),
(172,632,l)
);
},
{
closed = 1;
nodes = (
(190,-190,o),
(251,-128,o),
(276,-16,cs),
(394,522,l),
(296,522,l),
(291,500,l),
(364,500,l),
(254,-13,ls),
(233,-113,o),
(180,-173,o),
(54,-216,c),
(64,-233,l)
);
},
{
closed = 1;
nodes = (
(415,632,l),
(440,750,l),
(416,750,l),
(391,632,l)
);
}
);
width = 432;
},
{
anchors = (
{
name = bottom;
pos = (339,-265);
},
{
name = center;
pos = (163,268);
},
{
name = ogonek;
pos = (162,0);
},
{
name = top;
pos = (564,750);
}
);
layerId = "8F4FB2AA-9411-450E-BE3E-D587D5B5F5D1";
shapes = (
{
closed = 1;
nodes = (
(162,0,l),
(280,536,l),
(77,536,l),
(58,444,l),
(151,444,l),
(53,0,l)
);
},
{
closed = 1;
nodes = (
(296,632,l),
(321,750,l),
(213,750,l),
(188,632,l)
);
},
{
closed = 1;
nodes = (
(339,-210,o),
(436,-141,o),
(468,5,cs),
(584,536,l),
(384,536,l),
(366,445,l),
(456,445,l),
(360,8,ls),
(342,-76,o),
(284,-122,o),
(198,-141,c),
(215,-236,l)
);
},
{
closed = 1;
nodes = (
(593,632,l),
(618,750,l),
(510,750,l),
(485,632,l)
);
}
);
width = 600;
},
{
anchors = (
{
name = bottom;
pos = (445,-265);
},
{
name = center;
pos = (203,268);
},
{
name = ogonek;
pos = (243,0);
},
{
name = top;
pos = (659,753);
}
);
layerId = "3917E251-E52F-4C58-ACE3-A75BE580C29C";
shapes = (
{
closed = 1;
nodes = (
(243,0,l),
(359,546,l),
(78,546,l),
(44,386,l),
(132,386,l),
(50,0,l)
);
},
{
closed = 1;
nodes = (
(374,618,l),
(402,750,l),
(185,750,l),
(157,618,l)
);
},
{
closed = 1;
nodes = (
(425,-238,o),
(573,-172,o),
(608,-10,cs),
(727,546,l),
(446,546,l),
(412,386,l),
(500,386,l),
(421,15,ls),
(410,-34,o),
(358,-62,o),
(290,-62,c),
(305,-235,l)
);
},
{
closed = 1;
nodes = (
(739,618,l),
(767,750,l),
(550,750,l),
(522,618,l)
);
}
);
width = 736;
}
);
unicode = 307;
},
{
glyphname = jdotless;
lastChange = "2025-01-19 17:48:57 +0000";
layers = (
{
anchors = (
{
name = bottom;
pos = (-31,-265);
},
{
name = top;
pos = (155,522);
}
);
background = {
shapes = (
{
pos = (-19,0);
ref = i.ss01;
}
);
};
layerId = "62D20235-B81E-4649-AB7B-DFD33366F1EF";
shapes = (
{
closed = 1;
nodes = (
(-34,-190,o),
(27,-128,o),
(52,-16,cs),
(170,522,l),
(72,522,l),
(67,500,l),
(140,500,l),
(30,-13,ls),
(9,-113,o),
(-44,-173,o),
(-170,-216,c),
(-160,-233,l)
);
}
);
width = 208;
},
{
anchors = (
{
name = bottom;
pos = (35,-265);
},
{
name = top;
pos = (215,536);
}
);
background = {
shapes = (
{
pos = (-23,0);
ref = idotless;
}
);
};
layerId = "8F4FB2AA-9411-450E-BE3E-D587D5B5F5D1";
shapes = (
{
closed = 1;
nodes = (
(35,-210,o),
(132,-141,o),
(164,5,cs),
(280,536,l),
(80,536,l),
(62,445,l),
(152,445,l),
(56,8,ls),
(38,-76,o),
(-20,-122,o),
(-106,-141,c),
(-89,-236,l)
);
}
);
width = 296;
},
{
anchors = (
{
name = bottom;
pos = (77,-265);
},
{
name = top;
pos = (247,546);
}
);
background = {
shapes = (
{
pos = (-9,0);
ref = i.ss01;
}
);
};
layerId = "3917E251-E52F-4C58-ACE3-A75BE580C29C";
shapes = (
{
closed = 1;
nodes = (
(57,-238,o),
(205,-172,o),
(240,-10,cs),
(359,546,l),
(78,546,l),
(44,386,l),
(132,386,l),
(53,15,ls),
(42,-34,o),
(-10,-62,o),
(-78,-62,c),
(-63,-235,l)
);
}
);
width = 368;
}
);
metricRight = idotless;
unicode = 567;
},
{
glyphname = k;
kernLeft = KO_h;
kernRight = KO_k;
lastChange = "2025-01-20 07:45:44 +0000";
layers = (
{
anchors = (
{
name = bottom;
pos = (219,0);
},
{
name = center;
pos = (233,608);
},
{
name = top;
pos = (371,675);
}
);
background = {
shapes = (
{
closed = 1;
nodes = (
(50,0,l),
(85,252,l),
(185,252,l),
(304,0,l),
(330,0,l),
(207,261,l),
(363,492,l),
(334,492,l),
(187,274,l),
(88,274,l),
(154,750,l),
(130,750,l),
(26,0,l)
);
}
);
};
layerId = "62D20235-B81E-4649-AB7B-DFD33366F1EF";
shapes = (
{
closed = 1;
nodes = (
(61,0,l),
(119,274,l),
(215,274,l),
(399,0,l),
(427,0,l),
(235,286,l),
(507,522,l),
(473,522,l),
(216,297,l),
(124,297,l),
(220,750,l),
(197,750,l),
(38,0,l)
);
}
);
width = 489;
},
{
anchors = (
{
name = bottom;
pos = (244,0);
},
{
name = center;
pos = (202,611);
},
{
name = top;
pos = (426,682);
}
);
background = {
shapes = (
{
closed = 1;
nodes = (
(120,0,l),
(152,233,l),
(220,233,l),
(286,0,l),
(401,0,l),
(312,290,l),
(457,504,l),
(334,504,l),
(215,327,l),
(165,327,l),
(225,750,l),
(117,750,l),
(12,0,l)
);
}
);
};
layerId = "8F4FB2AA-9411-450E-BE3E-D587D5B5F5D1";
shapes = (
{
closed = 1;
nodes = (
(123,0,l),
(180,249,l),
(254,249,l),
(376,0,l),
(493,0,l),
(344,301,l),
(569,536,l),
(444,536,l),
(265,343,l),
(199,343,l),
(289,750,l),
(182,750,l),
(16,0,l)
);
}
);
width = 565;
},
{
anchors = (
{
name = bottom;
pos = (283,0);
},
{
name = center;
pos = (260,613);
},
{
name = top;
pos = (455,720);
}
);
layerId = "3917E251-E52F-4C58-ACE3-A75BE580C29C";
shapes = (
{
closed = 1;
nodes = (
(205,0,l),
(252,222,l),
(295,222,l),
(357,0,l),
(560,0,l),
(467,287,l),
(681,547,l),
(463,547,l),
(330,382,l),
(286,382,l),
(364,750,l),
(168,750,l),
(9,0,l)
);
}
);
width = 643;
}
);
metricLeft = h;
unicode = 107;
userData = {
KernOnName = k;
com.schriftgestaltung.Glyphs.ColorIndex = 3;
com.schriftgestaltung.Glyphs.layer.leftMetricsKey = "==n";
com.schriftgestaltung.Glyphs.leftMetricsKey = n;
};
},
{
glyphname = kgreenlandic;
lastChange = "2025-01-19 17:48:57 +0000";
layers = (
{
anchors = (
{
name = bottom;
pos = (200,0);
},
{
name = top;
pos = (310,522);
}
);
background = {
shapes = (
{
closed = 1;
nodes = (
(61,0,l),
(119,274,l),
(215,274,l),
(399,0,l),
(427,0,l),
(235,286,l),
(507,522,l),
(473,522,l),
(216,297,l),
(124,297,l),
(220,750,l),
(197,750,l),
(38,0,l)
);
}
);
};
layerId = "62D20235-B81E-4649-AB7B-DFD33366F1EF";
shapes = (
{
closed = 1;
nodes = (
(61,0,l),
(119,274,l),
(215,274,l),
(399,0,l),
(427,0,l),
(235,286,l),
(507,522,l),
(473,522,l),
(216,297,l),
(124,297,l),
(172,522,l),
(149,522,l),
(38,0,l)
);
}
);
width = 509;
},
{
anchors = (
{
name = bottom;
pos = (228,0);
},
{
name = top;
pos = (342,536);
}
);
layerId = "8F4FB2AA-9411-450E-BE3E-D587D5B5F5D1";
shapes = (
{
closed = 1;
nodes = (
(123,0,l),
(180,249,l),
(252,249,l),
(374,0,l),
(493,0,l),
(344,301,l),
(569,536,l),
(448,536,l),
(265,343,l),
(199,343,l),
(242,536,l),
(135,536,l),
(16,0,l)
);
}
);
width = 570;
},
{
anchors = (
{
name = bottom;
pos = (264,0);
},
{
name = top;
pos = (380,546);
}
);
layerId = "3917E251-E52F-4C58-ACE3-A75BE580C29C";
shapes = (
{
closed = 1;
nodes = (
(204,0,l),
(251,222,l),
(295,222,l),
(357,0,l),
(572,0,l),
(474,304,l),
(681,547,l),
(463,547,l),
(330,382,l),
(285,382,l),
(321,546,l),
(125,546,l),
(9,0,l)
);
}
);
width = 650;
}
);
metricLeft = n;
metricRight = k;
unicode = 312;
},
{
glyphname = l;
kernLeft = KO_l;
kernRight = KO_l;
lastChange = "2025-01-20 07:45:44 +0000";
layers = (
{
anchors = (
{
name = bottom;
pos = (103,0);
},
{
name = center;
pos = (106,261);
},
{
name = top;
pos = (210,750);
},
{
name = topright;
pos = (310,750);
}
);
layerId = "62D20235-B81E-4649-AB7B-DFD33366F1EF";
shapes = (
{
closed = 1;
nodes = (
(140,0,l),
(145,22,l),
(116,22,ls),
(85,22,o),
(70,42,o),
(78,74,cs),
(221,750,l),
(197,750,l),
(54,75,ls),
(43,30,o),
(69,0,o),
(114,0,cs)
);
}
);
width = 236;
},
{
anchors = (
{
name = bottom;
pos = (124,0);
},
{
name = center;
pos = (131,268);
},
{
name = top;
pos = (233,750);
},
{
name = topright;
pos = (363,750);
}
);
layerId = "8F4FB2AA-9411-450E-BE3E-D587D5B5F5D1";
shapes = (
{
closed = 1;
nodes = (
(199,0,l),
(220,94,l),
(172,94,ls),
(154,94,o),
(145,103,o),
(150,124,cs),
(288,750,l),
(180,750,l),
(41,116,ls),
(26,48,o),
(70,0,o),
(139,0,cs)
);
}
);
width = 281;
},
{
anchors = (
{
name = bottom;
pos = (165,0);
},
{
name = center;
pos = (161,273);
},
{
name = top;
pos = (262,750);
},
{
name = topright;
pos = (426,750);
}
);
layerId = "3917E251-E52F-4C58-ACE3-A75BE580C29C";
shapes = (
{
closed = 1;
nodes = (
(268,2,l),
(304,170,l),
(264,170,ls),
(249,170,o),
(242,173,o),
(246,191,cs),
(364,750,l),
(168,750,l),
(38,134,ls),
(23,61,o),
(68,2,o),
(139,2,cs)
);
}
);
width = 345;
}
);
metricLeft = h;
unicode = 108;
userData = {
KernOnName = l;
com.schriftgestaltung.Glyphs.ColorIndex = 3;
com.schriftgestaltung.Glyphs.layer.leftMetricsKey = "==h";
com.schriftgestaltung.Glyphs.leftMetricsKey = n;
com.typemytype.robofont.layerData = {
background = {
anchors = (
{
name = bottom;
x = 108;
y = 0;
},
{
name = top;
x = 108;
y = 500;
},
{
name = topright;
x = 204;
y = 500;
},
{
name = center;
x = 148;
y = 250;
}
);
components = (
);
contours = (
{
points = (
{
segmentType = line;
smooth = 0;
x = 95;
y = 750;
},
{
segmentType = line;
smooth = 0;
x = 95;
y = 61;
},
{
segmentType = line;
smooth = 0;
x = 148;
y = -11;
},
{
segmentType = line;
smooth = 0;
x = 215;
y = 31;
},
{
segmentType = line;
smooth = 0;
x = 175;
y = 90;
},
{
segmentType = line;
smooth = 0;
x = 175;
y = 750;
}
);
}
);
lib = {
};
name = l;
unicodes = (
);
width = 275;
};
};
};
},
{
glyphname = lj;
lastChange = "2026-01-30 11:41:40 +0000";
layers = (
{
anchors = (
{
name = bottom;
pos = (216,-265);
},
{
name = center;
pos = (106,261);
},
{
name = top;
pos = (441,703);
},
{
name = topright;
pos = (310,750);
}
);
layerId = "62D20235-B81E-4649-AB7B-DFD33366F1EF";
shapes = (
{
closed = 1;
nodes = (
(140,0,l),
(145,22,l),
(116,22,ls),
(85,22,o),
(70,42,o),
(78,74,cs),
(221,750,l),
(197,750,l),
(54,75,ls),
(43,30,o),
(69,0,o),
(114,0,cs)
);
},
{
closed = 1;
nodes = (
(213,-190,o),
(274,-128,o),
(299,-16,cs),
(417,522,l),
(319,522,l),
(314,500,l),
(387,500,l),
(277,-13,ls),
(256,-113,o),
(203,-173,o),
(77,-216,c),
(87,-233,l)
);
},
{
closed = 1;
nodes = (
(438,632,l),
(463,750,l),
(439,750,l),
(414,632,l)
);
}
);
width = 455;
},
{
anchors = (
{
name = bottom;
pos = (325,-265);
},
{
name = center;
pos = (131,268);
},
{
name = top;
pos = (550,750);
},
{
name = topright;
pos = (363,750);
}
);
layerId = "8F4FB2AA-9411-450E-BE3E-D587D5B5F5D1";
shapes = (
{
closed = 1;
nodes = (
(199,0,l),
(220,94,l),
(172,94,ls),
(154,94,o),
(145,103,o),
(150,124,cs),
(288,750,l),
(180,750,l),
(41,116,ls),
(26,48,o),
(70,0,o),
(139,0,cs)
);
},
{
closed = 1;
nodes = (
(325,-210,o),
(422,-141,o),
(454,5,cs),
(570,536,l),
(370,536,l),
(352,445,l),
(442,445,l),
(346,8,ls),
(328,-76,o),
(270,-122,o),
(184,-141,c),
(201,-236,l)
);
},
{
closed = 1;
nodes = (
(579,632,l),
(604,750,l),
(496,750,l),
(471,632,l)
);
}
);
width = 586;
},
{
anchors = (
{
name = bottom;
pos = (428,-265);
},
{
name = center;
pos = (161,273);
},
{
name = top;
pos = (642,753);
},
{
name = topright;
pos = (426,750);
}
);
layerId = "3917E251-E52F-4C58-ACE3-A75BE580C29C";
shapes = (
{
closed = 1;
nodes = (
(268,2,l),
(304,170,l),
(264,170,ls),
(249,170,o),
(242,173,o),
(246,191,cs),
(364,750,l),
(168,750,l),
(38,134,ls),
(23,61,o),
(68,2,o),
(139,2,cs)
);
},
{
closed = 1;
nodes = (
(408,-238,o),
(556,-172,o),
(591,-10,cs),
(710,546,l),
(429,546,l),
(395,386,l),
(483,386,l),
(404,15,ls),
(393,-34,o),
(341,-62,o),
(273,-62,c),
(288,-235,l)
);
},
{
closed = 1;
nodes = (
(722,618,l),
(750,750,l),
(533,750,l),
(505,618,l)
);
}
);
width = 719;
}
);
unicode = 457;
},
{
color = 9;
glyphname = lj.ss01;
lastChange = "2026-02-13 12:16:37 +0000";
layers = (
{
anchors = (
{
name = bottom;
pos = (216,-265);
},
{
name = center;
pos = (106,261);
},
{
name = top;
pos = (441,703);
},
{
name = topright;
pos = (310,750);
}
);
layerId = "62D20235-B81E-4649-AB7B-DFD33366F1EF";
shapes = (
{
closed = 1;
nodes = (
(140,0,l),
(145,22,l),
(116,22,ls),
(85,22,o),
(70,42,o),
(78,74,cs),
(221,750,l),
(197,750,l),
(54,75,ls),
(43,30,o),
(69,0,o),
(114,0,cs)
);
},
{
closed = 1;
nodes = (
(213,-190,o),
(274,-128,o),
(299,-16,cs),
(417,522,l),
(319,522,l),
(314,500,l),
(387,500,l),
(277,-13,ls),
(256,-113,o),
(203,-173,o),
(77,-216,c),
(87,-233,l)
);
},
{
closed = 1;
nodes = (
(438,632,l),
(463,750,l),
(439,750,l),
(414,632,l)
);
}
);
width = 455;
},
{
anchors = (
{
name = bottom;
pos = (325,-265);
},
{
name = center;
pos = (131,268);
},
{
name = top;
pos = (550,750);
},
{
name = topright;
pos = (363,750);
}
);
layerId = "8F4FB2AA-9411-450E-BE3E-D587D5B5F5D1";
shapes = (
{
closed = 1;
nodes = (
(199,0,l),
(220,94,l),
(172,94,ls),
(154,94,o),
(145,103,o),
(150,124,cs),
(288,750,l),
(180,750,l),
(41,116,ls),
(26,48,o),
(70,0,o),
(139,0,cs)
);
},
{
closed = 1;
nodes = (
(325,-210,o),
(422,-141,o),
(454,5,cs),
(570,536,l),
(370,536,l),
(352,445,l),
(442,445,l),
(346,8,ls),
(328,-76,o),
(270,-122,o),
(184,-141,c),
(201,-236,l)
);
},
{
closed = 1;
nodes = (
(579,632,l),
(604,750,l),
(496,750,l),
(471,632,l)
);
}
);
width = 586;
},
{
anchors = (
{
name = bottom;
pos = (428,-265);
},
{
name = center;
pos = (161,273);
},
{
name = top;
pos = (642,753);
},
{
name = topright;
pos = (426,750);
}
);
layerId = "3917E251-E52F-4C58-ACE3-A75BE580C29C";
shapes = (
{
closed = 1;
nodes = (
(268,2,l),
(304,170,l),
(264,170,ls),
(249,170,o),
(242,173,o),
(246,191,cs),
(364,750,l),
(168,750,l),
(38,134,ls),
(23,61,o),
(68,2,o),
(139,2,cs)
);
},
{
closed = 1;
nodes = (
(408,-238,o),
(556,-172,o),
(591,-10,cs),
(710,546,l),
(429,546,l),
(395,386,l),
(483,386,l),
(404,15,ls),
(393,-34,o),
(341,-62,o),
(273,-62,c),
(288,-235,l)
);
},
{
closed = 1;
nodes = (
(722,618,l),
(750,750,l),
(533,750,l),
(505,618,l)
);
}
);
width = 719;
}
);
},
{
glyphname = lslash;
lastChange = "2025-01-19 17:48:57 +0000";
layers = (
{
background = {
shapes = (
{
pos = (14,0);
ref = l;
}
);
};
layerId = "62D20235-B81E-4649-AB7B-DFD33366F1EF";
shapes = (
{
closed = 1;
nodes = (
(280,472,l),
(285,496,l),
(39,350,l),
(34,326,l)
);
},
{
closed = 1;
nodes = (
(154,0,l),
(159,22,l),
(130,22,ls),
(99,22,o),
(84,42,o),
(92,74,cs),
(235,750,l),
(211,750,l),
(68,75,ls),
(57,30,o),
(83,0,o),
(128,0,cs)
);
}
);
width = 255;
},
{
background = {
shapes = (
{
pos = (28,0);
ref = l;
}
);
};
layerId = "8F4FB2AA-9411-450E-BE3E-D587D5B5F5D1";
shapes = (
{
closed = 1;
nodes = (
(336,459,l),
(357,559,l),
(41,369,l),
(20,269,l)
);
},
{
closed = 1;
nodes = (
(227,0,l),
(248,94,l),
(200,94,ls),
(182,94,o),
(173,103,o),
(178,124,cs),
(316,750,l),
(208,750,l),
(69,116,ls),
(54,48,o),
(98,0,o),
(167,0,cs)
);
}
);
width = 315;
},
{
background = {
shapes = (
{
pos = (25,0);
ref = l;
}
);
};
layerId = "3917E251-E52F-4C58-ACE3-A75BE580C29C";
shapes = (
{
closed = 1;
nodes = (
(395,444,l),
(434,626,l),
(45,390,l),
(6,208,l)
);
},
{
closed = 1;
nodes = (
(293,2,l),
(329,170,l),
(289,170,ls),
(274,170,o),
(267,173,o),
(271,191,cs),
(389,750,l),
(193,750,l),
(63,134,ls),
(48,61,o),
(93,2,o),
(164,2,cs)
);
}
);
width = 379;
}
);
metricLeft = t;
metricRight = "=|t";
unicode = 322;
},
